<svg xmlns="http://www.w3.org/2000/svg" xmlns:xlink="http://www.w3.org/1999/xlink" width="500" zoomAndPan="magnify" viewBox="0 0 375 374.999991" height="500" preserveAspectRatio="xMidYMid meet" version="1.0"><defs><g/></defs><g fill="#1e3151" fill-opacity="1"><g transform="translate(94.664485, 172.815735)"><g><path d="M 2.34375 -11.046875 L 4.03125 -11.046875 C 4.425781 -8.296875 5.519531 -6.132812 7.3125 -4.5625 C 9.101562 -2.988281 11.3125 -2.203125 13.9375 -2.203125 C 15.007812 -2.203125 15.992188 -2.332031 16.890625 -2.59375 C 17.785156 -2.851562 18.550781 -3.222656 19.1875 -3.703125 C 19.820312 -4.179688 20.3125 -4.742188 20.65625 -5.390625 C 21 -6.035156 21.171875 -6.765625 21.171875 -7.578125 C 21.171875 -8.265625 21.0625 -8.859375 20.84375 -9.359375 C 20.625 -9.867188 20.210938 -10.363281 19.609375 -10.84375 C 19.003906 -11.320312 18.175781 -11.804688 17.125 -12.296875 C 16.070312 -12.785156 14.707031 -13.347656 13.03125 -13.984375 C 9.65625 -15.285156 7.160156 -16.789062 5.546875 -18.5 C 3.929688 -20.21875 3.125 -22.25 3.125 -24.59375 C 3.125 -25.945312 3.378906 -27.1875 3.890625 -28.3125 C 4.410156 -29.4375 5.140625 -30.398438 6.078125 -31.203125 C 7.015625 -32.015625 8.140625 -32.644531 9.453125 -33.09375 C 10.773438 -33.539062 12.226562 -33.765625 13.8125 -33.765625 C 15.28125 -33.765625 16.664062 -33.535156 17.96875 -33.078125 C 19.269531 -32.617188 20.554688 -31.925781 21.828125 -31 L 22.59375 -33.171875 L 23.640625 -33.171875 L 24.109375 -23.8125 L 22.421875 -23.8125 C 21.734375 -26.175781 20.648438 -27.984375 19.171875 -29.234375 C 17.703125 -30.492188 16.003906 -31.125 14.078125 -31.125 C 12.285156 -31.125 10.832031 -30.679688 9.71875 -29.796875 C 8.601562 -28.921875 8.046875 -27.789062 8.046875 -26.40625 C 8.046875 -25.800781 8.144531 -25.257812 8.34375 -24.78125 C 8.550781 -24.3125 8.925781 -23.859375 9.46875 -23.421875 C 10.019531 -22.992188 10.769531 -22.554688 11.71875 -22.109375 C 12.675781 -21.660156 13.90625 -21.160156 15.40625 -20.609375 C 17.425781 -19.828125 19.148438 -19.039062 20.578125 -18.25 C 22.015625 -17.457031 23.1875 -16.601562 24.09375 -15.6875 C 25 -14.78125 25.664062 -13.820312 26.09375 -12.8125 C 26.53125 -11.800781 26.75 -10.691406 26.75 -9.484375 C 26.75 -8.015625 26.429688 -6.671875 25.796875 -5.453125 C 25.171875 -4.242188 24.285156 -3.207031 23.140625 -2.34375 C 22.003906 -1.476562 20.648438 -0.796875 19.078125 -0.296875 C 17.503906 0.191406 15.765625 0.4375 13.859375 0.4375 C 12.117188 0.4375 10.554688 0.195312 9.171875 -0.28125 C 7.785156 -0.757812 6.359375 -1.53125 4.890625 -2.59375 L 4.03125 0 L 2.984375 0 Z M 2.34375 -11.046875 "/></g></g></g><g fill="#1e3151" fill-opacity="1"><g transform="translate(123.495081, 172.815735)"><g><path d="M 9.4375 -20.140625 L 9.609375 -20.140625 C 11.515625 -22.296875 14 -23.375 17.0625 -23.375 C 18.726562 -23.375 20.257812 -23.078125 21.65625 -22.484375 C 23.0625 -21.898438 24.273438 -21.078125 25.296875 -20.015625 C 26.328125 -18.960938 27.125 -17.707031 27.6875 -16.25 C 28.25 -14.800781 28.53125 -13.207031 28.53125 -11.46875 C 28.53125 -9.738281 28.25 -8.148438 27.6875 -6.703125 C 27.125 -5.265625 26.335938 -4.007812 25.328125 -2.9375 C 24.316406 -1.875 23.109375 -1.046875 21.703125 -0.453125 C 20.304688 0.140625 18.785156 0.4375 17.140625 0.4375 C 14.347656 0.4375 12.210938 -0.515625 10.734375 -2.421875 L 10.5625 -2.421875 L 10.5625 3.59375 C 10.5625 4.75 10.617188 5.671875 10.734375 6.359375 C 10.847656 7.054688 11.09375 7.59375 11.46875 7.96875 C 11.84375 8.34375 12.367188 8.601562 13.046875 8.75 C 13.734375 8.894531 14.640625 8.976562 15.765625 9 L 15.765625 10.828125 L 0.828125 10.828125 L 0.828125 9 C 1.597656 8.976562 2.226562 8.894531 2.71875 8.75 C 3.21875 8.601562 3.601562 8.34375 3.875 7.96875 C 4.144531 7.59375 4.332031 7.078125 4.4375 6.421875 C 4.539062 5.773438 4.59375 4.929688 4.59375 3.890625 L 4.59375 -12.203125 C 4.59375 -13.535156 4.5625 -14.800781 4.5 -16 C 4.445312 -17.195312 4.375 -18.039062 4.28125 -18.53125 C 4.132812 -19.195312 3.804688 -19.660156 3.296875 -19.921875 C 2.796875 -20.179688 1.941406 -20.3125 0.734375 -20.3125 L 0.734375 -22 L 9.4375 -23.203125 Z M 16.796875 -20.90625 C 15.867188 -20.90625 14.988281 -20.703125 14.15625 -20.296875 C 13.320312 -19.898438 12.660156 -19.367188 12.171875 -18.703125 C 11.679688 -18.035156 11.304688 -17.203125 11.046875 -16.203125 C 10.785156 -15.210938 10.65625 -14.140625 10.65625 -12.984375 L 10.65625 -10.046875 C 10.65625 -7.992188 11.160156 -6.25 12.171875 -4.8125 C 13.265625 -3.21875 14.804688 -2.421875 16.796875 -2.421875 C 18.554688 -2.421875 19.863281 -3.148438 20.71875 -4.609375 C 21.570312 -6.066406 22 -8.328125 22 -11.390625 C 22 -17.734375 20.265625 -20.90625 16.796875 -20.90625 Z M 16.796875 -20.90625 "/></g></g></g><g fill="#1e3151" fill-opacity="1"><g transform="translate(154.100586, 172.815735)"><g><path d="M 14.890625 -12.34375 C 12.460938 -11.238281 10.632812 -10.21875 9.40625 -9.28125 C 8.1875 -8.34375 7.578125 -7.367188 7.578125 -6.359375 C 7.578125 -5.523438 7.804688 -4.863281 8.265625 -4.375 C 8.734375 -3.882812 9.3125 -3.640625 10 -3.640625 C 10.695312 -3.640625 11.347656 -3.757812 11.953125 -4 C 12.554688 -4.25 13.070312 -4.570312 13.5 -4.96875 C 13.9375 -5.375 14.273438 -5.859375 14.515625 -6.421875 C 14.765625 -6.992188 14.890625 -7.59375 14.890625 -8.21875 Z M 14.890625 -14.640625 L 14.890625 -16.453125 C 14.890625 -18.128906 14.59375 -19.347656 14 -20.109375 C 13.414062 -20.878906 12.5 -21.265625 11.25 -21.265625 C 10.414062 -21.265625 9.78125 -21.039062 9.34375 -20.59375 C 8.914062 -20.144531 8.515625 -19.398438 8.140625 -18.359375 C 7.878906 -17.640625 7.507812 -17.078125 7.03125 -16.671875 C 6.5625 -16.265625 5.90625 -16.0625 5.0625 -16.0625 C 4.257812 -16.0625 3.640625 -16.304688 3.203125 -16.796875 C 2.765625 -17.285156 2.546875 -17.976562 2.546875 -18.875 C 2.546875 -20.257812 3.300781 -21.351562 4.8125 -22.15625 C 6.332031 -22.96875 8.625 -23.375 11.6875 -23.375 C 14.925781 -23.375 17.238281 -22.789062 18.625 -21.625 C 20.007812 -20.457031 20.703125 -18.503906 20.703125 -15.765625 L 20.703125 -6.28125 C 20.703125 -3.820312 21.191406 -2.59375 22.171875 -2.59375 C 22.710938 -2.59375 23.21875 -2.78125 23.6875 -3.15625 L 24.328125 -1.90625 C 23.929688 -1.1875 23.304688 -0.613281 22.453125 -0.1875 C 21.597656 0.226562 20.632812 0.4375 19.5625 0.4375 C 18.238281 0.4375 17.226562 0.0351562 16.53125 -0.765625 C 15.84375 -1.578125 15.5 -2.722656 15.5 -4.203125 L 15.28125 -4.203125 C 14.445312 -2.703125 13.363281 -1.5625 12.03125 -0.78125 C 10.707031 0 9.191406 0.390625 7.484375 0.390625 C 5.671875 0.390625 4.210938 -0.117188 3.109375 -1.140625 C 2.015625 -2.171875 1.46875 -3.507812 1.46875 -5.15625 C 1.46875 -6.425781 2.03125 -7.613281 3.15625 -8.71875 C 4.28125 -9.832031 6.160156 -10.925781 8.796875 -12 Z M 14.890625 -14.640625 "/></g></g></g><g fill="#1e3151" fill-opacity="1"><g transform="translate(179.381544, 172.815735)"><g><path d="M 11.171875 -6.71875 C 11.171875 -5.582031 11.21875 -4.691406 11.3125 -4.046875 C 11.414062 -3.398438 11.625 -2.898438 11.9375 -2.546875 C 12.257812 -2.203125 12.722656 -1.976562 13.328125 -1.875 C 13.941406 -1.78125 14.753906 -1.734375 15.765625 -1.734375 L 15.765625 0 L 1.296875 0 L 1.296875 -1.734375 C 2.160156 -1.785156 2.851562 -1.867188 3.375 -1.984375 C 3.894531 -2.109375 4.285156 -2.34375 4.546875 -2.6875 C 4.804688 -3.03125 4.972656 -3.523438 5.046875 -4.171875 C 5.117188 -4.828125 5.15625 -5.703125 5.15625 -6.796875 L 5.15625 -12.078125 C 5.15625 -13.867188 5.109375 -15.296875 5.015625 -16.359375 C 4.929688 -17.429688 4.742188 -18.253906 4.453125 -18.828125 C 4.171875 -19.410156 3.757812 -19.796875 3.21875 -19.984375 C 2.6875 -20.171875 1.988281 -20.265625 1.125 -20.265625 L 1.125 -21.78125 L 9.78125 -23.375 L 10.484375 -18.40625 L 10.65625 -18.40625 C 11.425781 -19.9375 12.445312 -21.144531 13.71875 -22.03125 C 14.988281 -22.925781 16.332031 -23.375 17.75 -23.375 C 18.84375 -23.375 19.734375 -23.097656 20.421875 -22.546875 C 21.117188 -22.003906 21.46875 -21.316406 21.46875 -20.484375 C 21.46875 -19.554688 21.203125 -18.773438 20.671875 -18.140625 C 20.140625 -17.503906 19.410156 -17.1875 18.484375 -17.1875 C 18.054688 -17.1875 17.664062 -17.269531 17.3125 -17.4375 C 16.96875 -17.613281 16.65625 -17.8125 16.375 -18.03125 C 16.101562 -18.25 15.832031 -18.453125 15.5625 -18.640625 C 15.289062 -18.828125 15.007812 -18.921875 14.71875 -18.921875 C 14.164062 -18.921875 13.644531 -18.554688 13.15625 -17.828125 C 12.664062 -17.109375 12.265625 -16.144531 11.953125 -14.9375 C 11.722656 -14.070312 11.535156 -13.097656 11.390625 -12.015625 C 11.242188 -10.929688 11.171875 -9.859375 11.171875 -8.796875 Z M 11.171875 -6.71875 "/></g></g></g><g fill="#1e3151" fill-opacity="1"><g transform="translate(200.601982, 172.815735)"><g/></g></g><g fill="#1e3151" fill-opacity="1"><g transform="translate(212.549911, 172.815735)"><g/></g></g><g fill="#1e3151" fill-opacity="1"><g transform="translate(224.508231, 172.815735)"><g><path d="M 23.375 -4.03125 C 20.75 -1.050781 17.472656 0.4375 13.546875 0.4375 C 11.765625 0.4375 10.144531 0.15625 8.6875 -0.40625 C 7.226562 -0.96875 5.976562 -1.757812 4.9375 -2.78125 C 3.894531 -3.8125 3.082031 -5.035156 2.5 -6.453125 C 1.925781 -7.867188 1.640625 -9.441406 1.640625 -11.171875 C 1.640625 -12.960938 1.941406 -14.597656 2.546875 -16.078125 C 3.160156 -17.566406 4.019531 -18.851562 5.125 -19.9375 C 6.238281 -21.019531 7.550781 -21.863281 9.0625 -22.46875 C 10.582031 -23.070312 12.253906 -23.375 14.078125 -23.375 C 17.128906 -23.375 19.503906 -22.550781 21.203125 -20.90625 C 22.910156 -19.257812 23.765625 -16.953125 23.765625 -13.984375 C 23.765625 -13.523438 23.691406 -13.242188 23.546875 -13.140625 C 23.410156 -13.035156 23.007812 -12.984375 22.34375 -12.984375 L 8.40625 -12.984375 C 8.28125 -12.722656 8.21875 -12.25 8.21875 -11.5625 C 8.21875 -8.726562 8.832031 -6.488281 10.0625 -4.84375 C 11.289062 -3.195312 12.957031 -2.375 15.0625 -2.375 C 16.28125 -2.375 17.488281 -2.648438 18.6875 -3.203125 C 19.882812 -3.753906 21.046875 -4.535156 22.171875 -5.546875 Z M 14.984375 -15.40625 C 16.140625 -15.40625 16.878906 -15.46875 17.203125 -15.59375 C 17.535156 -15.726562 17.703125 -16.046875 17.703125 -16.546875 C 17.703125 -17.804688 17.34375 -18.84375 16.625 -19.65625 C 15.90625 -20.46875 14.992188 -20.875 13.890625 -20.875 C 12.648438 -20.875 11.546875 -20.359375 10.578125 -19.328125 C 9.617188 -18.304688 8.992188 -17 8.703125 -15.40625 Z M 14.984375 -15.40625 "/></g></g></g><g fill="#1e3151" fill-opacity="1"><g transform="translate(250.265366, 172.815735)"><g><path d="M 20.828125 -2.765625 L 20.65625 -2.765625 C 18.664062 -0.628906 16.082031 0.4375 12.90625 0.4375 C 11.257812 0.4375 9.75 0.148438 8.375 -0.421875 C 7.007812 -1.003906 5.828125 -1.816406 4.828125 -2.859375 C 3.828125 -3.898438 3.050781 -5.132812 2.5 -6.5625 C 1.957031 -7.988281 1.6875 -9.566406 1.6875 -11.296875 C 1.6875 -13.023438 1.96875 -14.625 2.53125 -16.09375 C 3.09375 -17.570312 3.859375 -18.851562 4.828125 -19.9375 C 5.796875 -21.019531 6.945312 -21.863281 8.28125 -22.46875 C 9.625 -23.070312 11.078125 -23.375 12.640625 -23.375 C 14.085938 -23.375 15.363281 -23.15625 16.46875 -22.71875 C 17.582031 -22.289062 18.554688 -21.554688 19.390625 -20.515625 L 19.5625 -20.515625 L 19.5625 -24.203125 C 19.5625 -25.898438 19.539062 -27.363281 19.5 -28.59375 C 19.457031 -29.820312 19.394531 -30.625 19.3125 -31 C 19.164062 -31.601562 18.722656 -32.039062 17.984375 -32.3125 C 17.253906 -32.59375 16.125 -32.734375 14.59375 -32.734375 L 14.59375 -34.203125 L 25.546875 -35.9375 L 25.546875 -11.171875 C 25.546875 -9.003906 25.566406 -7.335938 25.609375 -6.171875 C 25.648438 -5.003906 25.726562 -4.113281 25.84375 -3.5 C 25.90625 -3.125 25.992188 -2.820312 26.109375 -2.59375 C 26.222656 -2.363281 26.394531 -2.179688 26.625 -2.046875 C 26.851562 -1.921875 27.160156 -1.835938 27.546875 -1.796875 C 27.941406 -1.753906 28.441406 -1.734375 29.046875 -1.734375 L 29.046875 -0.046875 L 20.828125 0.4375 Z M 19.484375 -12.421875 C 19.484375 -13.523438 19.367188 -14.546875 19.140625 -15.484375 C 18.910156 -16.421875 18.5625 -17.25 18.09375 -17.96875 C 17.570312 -18.800781 16.90625 -19.429688 16.09375 -19.859375 C 15.289062 -20.296875 14.429688 -20.515625 13.515625 -20.515625 C 11.804688 -20.515625 10.503906 -19.734375 9.609375 -18.171875 C 8.710938 -16.617188 8.265625 -14.359375 8.265625 -11.390625 C 8.265625 -8.390625 8.710938 -6.078125 9.609375 -4.453125 C 10.503906 -2.835938 11.789062 -2.03125 13.46875 -2.03125 C 14.414062 -2.03125 15.320312 -2.273438 16.1875 -2.765625 C 17.050781 -3.253906 17.757812 -3.921875 18.3125 -4.765625 C 18.71875 -5.398438 19.015625 -6.1875 19.203125 -7.125 C 19.390625 -8.0625 19.484375 -9.265625 19.484375 -10.734375 Z M 19.484375 -12.421875 "/></g></g></g><g fill="#1e3151" fill-opacity="1"><g transform="translate(48.782686, 209.918732)"><g><path d="M 30.609375 -33.34375 L 32.734375 -33.34375 L 31.859375 -22.390625 L 30.140625 -22.390625 C 29.523438 -25.046875 28.34375 -27.132812 26.59375 -28.65625 C 24.851562 -30.1875 22.742188 -30.953125 20.265625 -30.953125 C 18.554688 -30.953125 17.035156 -30.613281 15.703125 -29.9375 C 14.378906 -29.257812 13.265625 -28.289062 12.359375 -27.03125 C 11.453125 -25.78125 10.757812 -24.253906 10.28125 -22.453125 C 9.800781 -20.648438 9.5625 -18.617188 9.5625 -16.359375 C 9.5625 -11.890625 10.476562 -8.445312 12.3125 -6.03125 C 14.144531 -3.625 16.851562 -2.421875 20.4375 -2.421875 C 23.320312 -2.421875 25.707031 -3.195312 27.59375 -4.75 C 29.488281 -6.3125 30.84375 -8.640625 31.65625 -11.734375 L 33.5625 -11.734375 L 33.5625 0 L 31.515625 0 L 30.90625 -3.421875 C 27.738281 -0.847656 23.890625 0.4375 19.359375 0.4375 C 16.722656 0.4375 14.335938 0.046875 12.203125 -0.734375 C 10.066406 -1.515625 8.25 -2.617188 6.75 -4.046875 C 5.25 -5.472656 4.085938 -7.210938 3.265625 -9.265625 C 2.441406 -11.316406 2.03125 -13.597656 2.03125 -16.109375 C 2.03125 -18.734375 2.460938 -21.128906 3.328125 -23.296875 C 4.191406 -25.460938 5.410156 -27.320312 6.984375 -28.875 C 8.566406 -30.4375 10.445312 -31.640625 12.625 -32.484375 C 14.800781 -33.335938 17.21875 -33.765625 19.875 -33.765625 C 21.632812 -33.765625 23.28125 -33.519531 24.8125 -33.03125 C 26.34375 -32.539062 28 -31.75 29.78125 -30.65625 Z M 30.609375 -33.34375 "/></g></g></g><g fill="#1e3151" fill-opacity="1"><g transform="translate(84.409583, 209.918732)"><g><path d="M 14.203125 -23.375 C 15.929688 -23.375 17.566406 -23.078125 19.109375 -22.484375 C 20.660156 -21.898438 22.019531 -21.085938 23.1875 -20.046875 C 24.351562 -19.003906 25.273438 -17.769531 25.953125 -16.34375 C 26.628906 -14.914062 26.96875 -13.347656 26.96875 -11.640625 C 26.96875 -9.878906 26.628906 -8.265625 25.953125 -6.796875 C 25.273438 -5.328125 24.351562 -4.054688 23.1875 -2.984375 C 22.019531 -1.921875 20.660156 -1.082031 19.109375 -0.46875 C 17.566406 0.132812 15.929688 0.4375 14.203125 0.4375 C 12.492188 0.4375 10.875 0.140625 9.34375 -0.453125 C 7.820312 -1.046875 6.484375 -1.875 5.328125 -2.9375 C 4.171875 -4.007812 3.257812 -5.285156 2.59375 -6.765625 C 1.9375 -8.253906 1.609375 -9.878906 1.609375 -11.640625 C 1.609375 -13.347656 1.9375 -14.921875 2.59375 -16.359375 C 3.257812 -17.804688 4.171875 -19.046875 5.328125 -20.078125 C 6.484375 -21.117188 7.820312 -21.925781 9.34375 -22.5 C 10.875 -23.082031 12.492188 -23.375 14.203125 -23.375 Z M 14.203125 -20.875 C 13.335938 -20.875 12.539062 -20.648438 11.8125 -20.203125 C 11.09375 -19.753906 10.476562 -19.125 9.96875 -18.3125 C 9.46875 -17.507812 9.082031 -16.535156 8.8125 -15.390625 C 8.539062 -14.253906 8.40625 -12.992188 8.40625 -11.609375 C 8.40625 -10.160156 8.539062 -8.859375 8.8125 -7.703125 C 9.082031 -6.546875 9.46875 -5.5625 9.96875 -4.75 C 10.476562 -3.945312 11.085938 -3.320312 11.796875 -2.875 C 12.503906 -2.425781 13.304688 -2.203125 14.203125 -2.203125 C 15.097656 -2.203125 15.910156 -2.425781 16.640625 -2.875 C 17.378906 -3.320312 18.007812 -3.957031 18.53125 -4.78125 C 19.050781 -5.601562 19.453125 -6.59375 19.734375 -7.75 C 20.023438 -8.90625 20.171875 -10.191406 20.171875 -11.609375 C 20.171875 -12.992188 20.023438 -14.25 19.734375 -15.375 C 19.453125 -16.5 19.050781 -17.472656 18.53125 -18.296875 C 18.007812 -19.117188 17.378906 -19.753906 16.640625 -20.203125 C 15.910156 -20.648438 15.097656 -20.875 14.203125 -20.875 Z M 14.203125 -20.875 "/></g></g></g><g fill="#1e3151" fill-opacity="1"><g transform="translate(112.980363, 209.918732)"><g><path d="M 11.125 -7.0625 C 11.125 -5.875 11.160156 -4.941406 11.234375 -4.265625 C 11.304688 -3.585938 11.460938 -3.066406 11.703125 -2.703125 C 11.953125 -2.347656 12.328125 -2.109375 12.828125 -1.984375 C 13.335938 -1.867188 14.023438 -1.785156 14.890625 -1.734375 L 14.890625 0 L 1.25 0 L 1.25 -1.734375 C 2.09375 -1.785156 2.765625 -1.867188 3.265625 -1.984375 C 3.773438 -2.109375 4.164062 -2.34375 4.4375 -2.6875 C 4.707031 -3.03125 4.882812 -3.519531 4.96875 -4.15625 C 5.0625 -4.789062 5.109375 -5.65625 5.109375 -6.75 L 5.109375 -12.171875 C 5.109375 -13.867188 5.078125 -15.242188 5.015625 -16.296875 C 4.960938 -17.347656 4.894531 -18.0625 4.8125 -18.4375 C 4.71875 -18.8125 4.597656 -19.125 4.453125 -19.375 C 4.316406 -19.625 4.101562 -19.8125 3.8125 -19.9375 C 3.519531 -20.070312 3.15625 -20.160156 2.71875 -20.203125 C 2.289062 -20.242188 1.742188 -20.265625 1.078125 -20.265625 L 1.078125 -21.734375 L 9.4375 -23.375 L 10 -19.5625 L 10.171875 -19.5625 C 11.128906 -20.78125 12.253906 -21.71875 13.546875 -22.375 C 14.847656 -23.039062 16.28125 -23.375 17.84375 -23.375 C 19.6875 -23.375 21.175781 -23.117188 22.3125 -22.609375 C 23.457031 -22.109375 24.476562 -21.269531 25.375 -20.09375 C 25.863281 -19.425781 26.296875 -18.566406 26.671875 -17.515625 C 27.046875 -16.460938 27.234375 -15.007812 27.234375 -13.15625 L 27.234375 -7.0625 C 27.234375 -5.875 27.269531 -4.941406 27.34375 -4.265625 C 27.414062 -3.585938 27.570312 -3.066406 27.8125 -2.703125 C 28.0625 -2.347656 28.429688 -2.109375 28.921875 -1.984375 C 29.410156 -1.867188 30.070312 -1.785156 30.90625 -1.734375 L 30.90625 0 L 17.359375 0 L 17.359375 -1.734375 C 18.222656 -1.765625 18.90625 -1.84375 19.40625 -1.96875 C 19.914062 -2.101562 20.300781 -2.34375 20.5625 -2.6875 C 20.820312 -3.03125 20.992188 -3.523438 21.078125 -4.171875 C 21.171875 -4.828125 21.21875 -5.6875 21.21875 -6.75 L 21.21875 -12.640625 C 21.21875 -14.109375 21.128906 -15.347656 20.953125 -16.359375 C 20.785156 -17.367188 20.503906 -18.1875 20.109375 -18.8125 C 19.722656 -19.4375 19.210938 -19.882812 18.578125 -20.15625 C 17.941406 -20.425781 17.144531 -20.5625 16.1875 -20.5625 C 15.269531 -20.5625 14.476562 -20.300781 13.8125 -19.78125 C 13.144531 -19.257812 12.566406 -18.539062 12.078125 -17.625 C 11.816406 -17.101562 11.59375 -16.429688 11.40625 -15.609375 C 11.21875 -14.785156 11.125 -13.925781 11.125 -13.03125 Z M 11.125 -7.0625 "/></g></g></g><g fill="#1e3151" fill-opacity="1"><g transform="translate(144.451511, 209.918732)"><g><path d="M 11.125 -7.0625 C 11.125 -5.875 11.160156 -4.941406 11.234375 -4.265625 C 11.304688 -3.585938 11.460938 -3.066406 11.703125 -2.703125 C 11.953125 -2.347656 12.328125 -2.109375 12.828125 -1.984375 C 13.335938 -1.867188 14.023438 -1.785156 14.890625 -1.734375 L 14.890625 0 L 1.25 0 L 1.25 -1.734375 C 2.09375 -1.785156 2.765625 -1.867188 3.265625 -1.984375 C 3.773438 -2.109375 4.164062 -2.34375 4.4375 -2.6875 C 4.707031 -3.03125 4.882812 -3.519531 4.96875 -4.15625 C 5.0625 -4.789062 5.109375 -5.65625 5.109375 -6.75 L 5.109375 -12.171875 C 5.109375 -13.867188 5.078125 -15.242188 5.015625 -16.296875 C 4.960938 -17.347656 4.894531 -18.0625 4.8125 -18.4375 C 4.71875 -18.8125 4.597656 -19.125 4.453125 -19.375 C 4.316406 -19.625 4.101562 -19.8125 3.8125 -19.9375 C 3.519531 -20.070312 3.15625 -20.160156 2.71875 -20.203125 C 2.289062 -20.242188 1.742188 -20.265625 1.078125 -20.265625 L 1.078125 -21.734375 L 9.4375 -23.375 L 10 -19.5625 L 10.171875 -19.5625 C 11.128906 -20.78125 12.253906 -21.71875 13.546875 -22.375 C 14.847656 -23.039062 16.28125 -23.375 17.84375 -23.375 C 19.6875 -23.375 21.175781 -23.117188 22.3125 -22.609375 C 23.457031 -22.109375 24.476562 -21.269531 25.375 -20.09375 C 25.863281 -19.425781 26.296875 -18.566406 26.671875 -17.515625 C 27.046875 -16.460938 27.234375 -15.007812 27.234375 -13.15625 L 27.234375 -7.0625 C 27.234375 -5.875 27.269531 -4.941406 27.34375 -4.265625 C 27.414062 -3.585938 27.570312 -3.066406 27.8125 -2.703125 C 28.0625 -2.347656 28.429688 -2.109375 28.921875 -1.984375 C 29.410156 -1.867188 30.070312 -1.785156 30.90625 -1.734375 L 30.90625 0 L 17.359375 0 L 17.359375 -1.734375 C 18.222656 -1.765625 18.90625 -1.84375 19.40625 -1.96875 C 19.914062 -2.101562 20.300781 -2.34375 20.5625 -2.6875 C 20.820312 -3.03125 20.992188 -3.523438 21.078125 -4.171875 C 21.171875 -4.828125 21.21875 -5.6875 21.21875 -6.75 L 21.21875 -12.640625 C 21.21875 -14.109375 21.128906 -15.347656 20.953125 -16.359375 C 20.785156 -17.367188 20.503906 -18.1875 20.109375 -18.8125 C 19.722656 -19.4375 19.210938 -19.882812 18.578125 -20.15625 C 17.941406 -20.425781 17.144531 -20.5625 16.1875 -20.5625 C 15.269531 -20.5625 14.476562 -20.300781 13.8125 -19.78125 C 13.144531 -19.257812 12.566406 -18.539062 12.078125 -17.625 C 11.816406 -17.101562 11.59375 -16.429688 11.40625 -15.609375 C 11.21875 -14.785156 11.125 -13.925781 11.125 -13.03125 Z M 11.125 -7.0625 "/></g></g></g><g fill="#1e3151" fill-opacity="1"><g transform="translate(175.922659, 209.918732)"><g><path d="M 23.375 -4.03125 C 20.75 -1.050781 17.472656 0.4375 13.546875 0.4375 C 11.765625 0.4375 10.144531 0.15625 8.6875 -0.40625 C 7.226562 -0.96875 5.976562 -1.757812 4.9375 -2.78125 C 3.894531 -3.8125 3.082031 -5.035156 2.5 -6.453125 C 1.925781 -7.867188 1.640625 -9.441406 1.640625 -11.171875 C 1.640625 -12.960938 1.941406 -14.597656 2.546875 -16.078125 C 3.160156 -17.566406 4.019531 -18.851562 5.125 -19.9375 C 6.238281 -21.019531 7.550781 -21.863281 9.0625 -22.46875 C 10.582031 -23.070312 12.253906 -23.375 14.078125 -23.375 C 17.128906 -23.375 19.503906 -22.550781 21.203125 -20.90625 C 22.910156 -19.257812 23.765625 -16.953125 23.765625 -13.984375 C 23.765625 -13.523438 23.691406 -13.242188 23.546875 -13.140625 C 23.410156 -13.035156 23.007812 -12.984375 22.34375 -12.984375 L 8.40625 -12.984375 C 8.28125 -12.722656 8.21875 -12.25 8.21875 -11.5625 C 8.21875 -8.726562 8.832031 -6.488281 10.0625 -4.84375 C 11.289062 -3.195312 12.957031 -2.375 15.0625 -2.375 C 16.28125 -2.375 17.488281 -2.648438 18.6875 -3.203125 C 19.882812 -3.753906 21.046875 -4.535156 22.171875 -5.546875 Z M 14.984375 -15.40625 C 16.140625 -15.40625 16.878906 -15.46875 17.203125 -15.59375 C 17.535156 -15.726562 17.703125 -16.046875 17.703125 -16.546875 C 17.703125 -17.804688 17.34375 -18.84375 16.625 -19.65625 C 15.90625 -20.46875 14.992188 -20.875 13.890625 -20.875 C 12.648438 -20.875 11.546875 -20.359375 10.578125 -19.328125 C 9.617188 -18.304688 8.992188 -17 8.703125 -15.40625 Z M 14.984375 -15.40625 "/></g></g></g><g fill="#1e3151" fill-opacity="1"><g transform="translate(201.246761, 209.918732)"><g><path d="M 22.859375 -3.59375 C 21.765625 -2.382812 20.398438 -1.445312 18.765625 -0.78125 C 17.140625 -0.113281 15.375 0.21875 13.46875 0.21875 C 11.707031 0.21875 10.101562 -0.0625 8.65625 -0.625 C 7.21875 -1.1875 5.976562 -1.972656 4.9375 -2.984375 C 3.894531 -3.992188 3.09375 -5.210938 2.53125 -6.640625 C 1.96875 -8.078125 1.6875 -9.660156 1.6875 -11.390625 C 1.6875 -13.179688 1.988281 -14.8125 2.59375 -16.28125 C 3.195312 -17.75 4.046875 -19.007812 5.140625 -20.0625 C 6.242188 -21.113281 7.5625 -21.925781 9.09375 -22.5 C 10.625 -23.082031 12.3125 -23.375 14.15625 -23.375 C 15.457031 -23.375 16.660156 -23.242188 17.765625 -22.984375 C 18.878906 -22.722656 19.832031 -22.363281 20.625 -21.90625 C 21.425781 -21.445312 22.054688 -20.90625 22.515625 -20.28125 C 22.972656 -19.664062 23.203125 -18.992188 23.203125 -18.265625 C 23.203125 -17.429688 22.960938 -16.769531 22.484375 -16.28125 C 22.015625 -15.789062 21.375 -15.546875 20.5625 -15.546875 C 19.894531 -15.546875 19.3125 -15.71875 18.8125 -16.0625 C 18.3125 -16.40625 17.8125 -16.96875 17.3125 -17.75 C 16.882812 -18.445312 16.519531 -18.992188 16.21875 -19.390625 C 15.914062 -19.796875 15.632812 -20.109375 15.375 -20.328125 C 15.113281 -20.546875 14.851562 -20.691406 14.59375 -20.765625 C 14.332031 -20.835938 14.015625 -20.875 13.640625 -20.875 C 11.960938 -20.875 10.660156 -20.09375 9.734375 -18.53125 C 8.816406 -16.96875 8.359375 -14.789062 8.359375 -12 C 8.359375 -8.988281 8.910156 -6.675781 10.015625 -5.0625 C 11.128906 -3.445312 12.726562 -2.640625 14.8125 -2.640625 C 15.988281 -2.640625 17.171875 -2.863281 18.359375 -3.3125 C 19.546875 -3.757812 20.671875 -4.398438 21.734375 -5.234375 Z M 22.859375 -3.59375 "/></g></g></g><g fill="#1e3151" fill-opacity="1"><g transform="translate(225.661791, 209.918732)"><g><path d="M 1.078125 -20.5625 L 1.078125 -22.515625 C 2.816406 -23.003906 4.269531 -23.742188 5.4375 -24.734375 C 6.601562 -25.734375 7.472656 -26.882812 8.046875 -28.1875 L 10.265625 -28.1875 L 10.265625 -22.953125 L 15.234375 -22.953125 L 15.234375 -20.5625 L 10.265625 -20.5625 L 10.265625 -7.28125 C 10.265625 -5.488281 10.457031 -4.21875 10.84375 -3.46875 C 11.238281 -2.71875 11.894531 -2.34375 12.8125 -2.34375 C 13.9375 -2.34375 14.789062 -2.859375 15.375 -3.890625 L 16.28125 -2.640625 C 15.46875 -0.585938 13.5625 0.4375 10.5625 0.4375 C 8.570312 0.4375 7.019531 -0.0234375 5.90625 -0.953125 C 4.800781 -1.878906 4.25 -3.175781 4.25 -4.84375 L 4.25 -20.5625 Z M 1.078125 -20.5625 "/></g></g></g><g fill="#1e3151" fill-opacity="1"><g transform="translate(242.198216, 209.918732)"><g><path d="M 11.125 -7.09375 C 11.125 -5.945312 11.164062 -5.023438 11.25 -4.328125 C 11.34375 -3.640625 11.519531 -3.109375 11.78125 -2.734375 C 12.039062 -2.359375 12.414062 -2.101562 12.90625 -1.96875 C 13.394531 -1.84375 14.054688 -1.765625 14.890625 -1.734375 L 14.890625 0 L 1.25 0 L 1.25 -1.734375 C 2.0625 -1.765625 2.71875 -1.859375 3.21875 -2.015625 C 3.726562 -2.171875 4.117188 -2.425781 4.390625 -2.78125 C 4.671875 -3.144531 4.859375 -3.648438 4.953125 -4.296875 C 5.054688 -4.953125 5.109375 -5.785156 5.109375 -6.796875 L 5.109375 -12.125 C 5.109375 -13.800781 5.078125 -15.175781 5.015625 -16.25 C 4.960938 -17.332031 4.894531 -18.078125 4.8125 -18.484375 C 4.664062 -19.203125 4.335938 -19.675781 3.828125 -19.90625 C 3.328125 -20.144531 2.410156 -20.265625 1.078125 -20.265625 L 1.078125 -21.734375 L 11.125 -23.375 Z M 4.765625 -32.5625 C 4.765625 -33.507812 5.085938 -34.304688 5.734375 -34.953125 C 6.390625 -35.609375 7.175781 -35.9375 8.09375 -35.9375 C 9.050781 -35.9375 9.851562 -35.609375 10.5 -34.953125 C 11.144531 -34.304688 11.46875 -33.507812 11.46875 -32.5625 C 11.46875 -31.632812 11.144531 -30.84375 10.5 -30.1875 C 9.851562 -29.539062 9.050781 -29.21875 8.09375 -29.21875 C 7.175781 -29.21875 6.390625 -29.539062 5.734375 -30.1875 C 5.085938 -30.84375 4.765625 -31.632812 4.765625 -32.5625 Z M 4.765625 -32.5625 "/></g></g></g><g fill="#1e3151" fill-opacity="1"><g transform="translate(257.82558, 209.918732)"><g><path d="M 14.203125 -23.375 C 15.929688 -23.375 17.566406 -23.078125 19.109375 -22.484375 C 20.660156 -21.898438 22.019531 -21.085938 23.1875 -20.046875 C 24.351562 -19.003906 25.273438 -17.769531 25.953125 -16.34375 C 26.628906 -14.914062 26.96875 -13.347656 26.96875 -11.640625 C 26.96875 -9.878906 26.628906 -8.265625 25.953125 -6.796875 C 25.273438 -5.328125 24.351562 -4.054688 23.1875 -2.984375 C 22.019531 -1.921875 20.660156 -1.082031 19.109375 -0.46875 C 17.566406 0.132812 15.929688 0.4375 14.203125 0.4375 C 12.492188 0.4375 10.875 0.140625 9.34375 -0.453125 C 7.820312 -1.046875 6.484375 -1.875 5.328125 -2.9375 C 4.171875 -4.007812 3.257812 -5.285156 2.59375 -6.765625 C 1.9375 -8.253906 1.609375 -9.878906 1.609375 -11.640625 C 1.609375 -13.347656 1.9375 -14.921875 2.59375 -16.359375 C 3.257812 -17.804688 4.171875 -19.046875 5.328125 -20.078125 C 6.484375 -21.117188 7.820312 -21.925781 9.34375 -22.5 C 10.875 -23.082031 12.492188 -23.375 14.203125 -23.375 Z M 14.203125 -20.875 C 13.335938 -20.875 12.539062 -20.648438 11.8125 -20.203125 C 11.09375 -19.753906 10.476562 -19.125 9.96875 -18.3125 C 9.46875 -17.507812 9.082031 -16.535156 8.8125 -15.390625 C 8.539062 -14.253906 8.40625 -12.992188 8.40625 -11.609375 C 8.40625 -10.160156 8.539062 -8.859375 8.8125 -7.703125 C 9.082031 -6.546875 9.46875 -5.5625 9.96875 -4.75 C 10.476562 -3.945312 11.085938 -3.320312 11.796875 -2.875 C 12.503906 -2.425781 13.304688 -2.203125 14.203125 -2.203125 C 15.097656 -2.203125 15.910156 -2.425781 16.640625 -2.875 C 17.378906 -3.320312 18.007812 -3.957031 18.53125 -4.78125 C 19.050781 -5.601562 19.453125 -6.59375 19.734375 -7.75 C 20.023438 -8.90625 20.171875 -10.191406 20.171875 -11.609375 C 20.171875 -12.992188 20.023438 -14.25 19.734375 -15.375 C 19.453125 -16.5 19.050781 -17.472656 18.53125 -18.296875 C 18.007812 -19.117188 17.378906 -19.753906 16.640625 -20.203125 C 15.910156 -20.648438 15.097656 -20.875 14.203125 -20.875 Z M 14.203125 -20.875 "/></g></g></g><g fill="#1e3151" fill-opacity="1"><g transform="translate(286.396349, 209.918732)"><g><path d="M 11.125 -7.0625 C 11.125 -5.875 11.160156 -4.941406 11.234375 -4.265625 C 11.304688 -3.585938 11.460938 -3.066406 11.703125 -2.703125 C 11.953125 -2.347656 12.328125 -2.109375 12.828125 -1.984375 C 13.335938 -1.867188 14.023438 -1.785156 14.890625 -1.734375 L 14.890625 0 L 1.25 0 L 1.25 -1.734375 C 2.09375 -1.785156 2.765625 -1.867188 3.265625 -1.984375 C 3.773438 -2.109375 4.164062 -2.34375 4.4375 -2.6875 C 4.707031 -3.03125 4.882812 -3.519531 4.96875 -4.15625 C 5.0625 -4.789062 5.109375 -5.65625 5.109375 -6.75 L 5.109375 -12.171875 C 5.109375 -13.867188 5.078125 -15.242188 5.015625 -16.296875 C 4.960938 -17.347656 4.894531 -18.0625 4.8125 -18.4375 C 4.71875 -18.8125 4.597656 -19.125 4.453125 -19.375 C 4.316406 -19.625 4.101562 -19.8125 3.8125 -19.9375 C 3.519531 -20.070312 3.15625 -20.160156 2.71875 -20.203125 C 2.289062 -20.242188 1.742188 -20.265625 1.078125 -20.265625 L 1.078125 -21.734375 L 9.4375 -23.375 L 10 -19.5625 L 10.171875 -19.5625 C 11.128906 -20.78125 12.253906 -21.71875 13.546875 -22.375 C 14.847656 -23.039062 16.28125 -23.375 17.84375 -23.375 C 19.6875 -23.375 21.175781 -23.117188 22.3125 -22.609375 C 23.457031 -22.109375 24.476562 -21.269531 25.375 -20.09375 C 25.863281 -19.425781 26.296875 -18.566406 26.671875 -17.515625 C 27.046875 -16.460938 27.234375 -15.007812 27.234375 -13.15625 L 27.234375 -7.0625 C 27.234375 -5.875 27.269531 -4.941406 27.34375 -4.265625 C 27.414062 -3.585938 27.570312 -3.066406 27.8125 -2.703125 C 28.0625 -2.347656 28.429688 -2.109375 28.921875 -1.984375 C 29.410156 -1.867188 30.070312 -1.785156 30.90625 -1.734375 L 30.90625 0 L 17.359375 0 L 17.359375 -1.734375 C 18.222656 -1.765625 18.90625 -1.84375 19.40625 -1.96875 C 19.914062 -2.101562 20.300781 -2.34375 20.5625 -2.6875 C 20.820312 -3.03125 20.992188 -3.523438 21.078125 -4.171875 C 21.171875 -4.828125 21.21875 -5.6875 21.21875 -6.75 L 21.21875 -12.640625 C 21.21875 -14.109375 21.128906 -15.347656 20.953125 -16.359375 C 20.785156 -17.367188 20.503906 -18.1875 20.109375 -18.8125 C 19.722656 -19.4375 19.210938 -19.882812 18.578125 -20.15625 C 17.941406 -20.425781 17.144531 -20.5625 16.1875 -20.5625 C 15.269531 -20.5625 14.476562 -20.300781 13.8125 -19.78125 C 13.144531 -19.257812 12.566406 -18.539062 12.078125 -17.625 C 11.816406 -17.101562 11.59375 -16.429688 11.40625 -15.609375 C 11.21875 -14.785156 11.125 -13.925781 11.125 -13.03125 Z M 11.125 -7.0625 "/></g></g></g><path stroke-linecap="round" transform="matrix(0.75, 0.000000000000000944, -0.000000000000000944, 0.75, 176.817912, 134.766524)" fill="none" stroke-linejoin="miter" d="M 1.997992 1.998802 L 20.586535 1.998802 " stroke="#efa73a" stroke-width="4" stroke-opacity="1" stroke-miterlimit="4"/><path stroke-linecap="round" transform="matrix(0.614034, 0.430654, -0.430654, 0.614034, 188.480735, 117.90005)" fill="none" stroke-linejoin="miter" d="M 1.999301 1.998628 L 14.143993 1.999133 " stroke="#efa73a" stroke-width="4" stroke-opacity="1" stroke-miterlimit="4"/><path stroke-linecap="round" transform="matrix(0, 0.75, -0.75, 0, 207.170571, 105.424351)" fill="none" stroke-linejoin="miter" d="M 2.001906 1.998261 L 23.116491 1.998261 " stroke="#efa73a" stroke-width="4" stroke-opacity="1" stroke-miterlimit="4"/><g fill="#cf577e" fill-opacity="1"><g transform="translate(49.960774, 234.79311)"><g><path d="M 0.828125 -3.9375 L 1.4375 -3.9375 C 1.582031 -2.957031 1.972656 -2.1875 2.609375 -1.625 C 3.242188 -1.0625 4.03125 -0.78125 4.96875 -0.78125 C 5.351562 -0.78125 5.703125 -0.828125 6.015625 -0.921875 C 6.335938 -1.015625 6.613281 -1.144531 6.84375 -1.3125 C 7.070312 -1.488281 7.25 -1.691406 7.375 -1.921875 C 7.5 -2.148438 7.5625 -2.410156 7.5625 -2.703125 C 7.5625 -2.953125 7.519531 -3.164062 7.4375 -3.34375 C 7.363281 -3.519531 7.21875 -3.691406 7 -3.859375 C 6.78125 -4.035156 6.484375 -4.210938 6.109375 -4.390625 C 5.734375 -4.566406 5.25 -4.765625 4.65625 -4.984375 C 3.445312 -5.453125 2.550781 -5.992188 1.96875 -6.609375 C 1.394531 -7.222656 1.109375 -7.945312 1.109375 -8.78125 C 1.109375 -9.257812 1.203125 -9.695312 1.390625 -10.09375 C 1.578125 -10.5 1.835938 -10.847656 2.171875 -11.140625 C 2.503906 -11.429688 2.90625 -11.65625 3.375 -11.8125 C 3.84375 -11.96875 4.359375 -12.046875 4.921875 -12.046875 C 5.453125 -12.046875 5.945312 -11.960938 6.40625 -11.796875 C 6.875 -11.640625 7.332031 -11.394531 7.78125 -11.0625 L 8.0625 -11.84375 L 8.4375 -11.84375 L 8.609375 -8.5 L 8 -8.5 C 7.757812 -9.34375 7.375 -9.988281 6.84375 -10.4375 C 6.320312 -10.882812 5.710938 -11.109375 5.015625 -11.109375 C 4.378906 -11.109375 3.863281 -10.953125 3.46875 -10.640625 C 3.070312 -10.328125 2.875 -9.921875 2.875 -9.421875 C 2.875 -9.210938 2.910156 -9.019531 2.984375 -8.84375 C 3.054688 -8.675781 3.1875 -8.515625 3.375 -8.359375 C 3.570312 -8.203125 3.84375 -8.046875 4.1875 -7.890625 C 4.53125 -7.734375 4.96875 -7.554688 5.5 -7.359375 C 6.21875 -7.078125 6.832031 -6.796875 7.34375 -6.515625 C 7.851562 -6.234375 8.269531 -5.925781 8.59375 -5.59375 C 8.925781 -5.269531 9.164062 -4.925781 9.3125 -4.5625 C 9.46875 -4.207031 9.546875 -3.816406 9.546875 -3.390625 C 9.546875 -2.859375 9.429688 -2.375 9.203125 -1.9375 C 8.984375 -1.507812 8.671875 -1.140625 8.265625 -0.828125 C 7.859375 -0.523438 7.375 -0.285156 6.8125 -0.109375 C 6.25 0.0664062 5.625 0.15625 4.9375 0.15625 C 4.320312 0.15625 3.765625 0.0703125 3.265625 -0.09375 C 2.773438 -0.269531 2.269531 -0.546875 1.75 -0.921875 L 1.4375 0 L 1.0625 0 Z M 0.828125 -3.9375 "/></g></g></g><g fill="#cf577e" fill-opacity="1"><g transform="translate(60.200958, 234.79311)"><g><path d="M 3.984375 -2.546875 C 3.984375 -2.117188 3.992188 -1.78125 4.015625 -1.53125 C 4.035156 -1.28125 4.09375 -1.085938 4.1875 -0.953125 C 4.28125 -0.828125 4.414062 -0.742188 4.59375 -0.703125 C 4.769531 -0.671875 5.007812 -0.644531 5.3125 -0.625 L 5.3125 0 L 0.4375 0 L 0.4375 -0.625 C 0.738281 -0.644531 0.984375 -0.671875 1.171875 -0.703125 C 1.359375 -0.742188 1.5 -0.828125 1.59375 -0.953125 C 1.6875 -1.078125 1.75 -1.253906 1.78125 -1.484375 C 1.8125 -1.722656 1.828125 -2.035156 1.828125 -2.421875 L 1.828125 -4.34375 C 1.828125 -4.925781 1.816406 -5.410156 1.796875 -5.796875 C 1.785156 -6.191406 1.757812 -6.460938 1.71875 -6.609375 C 1.6875 -6.742188 1.644531 -6.847656 1.59375 -6.921875 C 1.550781 -7.003906 1.476562 -7.066406 1.375 -7.109375 C 1.28125 -7.160156 1.15625 -7.191406 1 -7.203125 C 0.84375 -7.222656 0.644531 -7.234375 0.40625 -7.234375 L 0.40625 -7.75 L 3.390625 -8.34375 L 3.5625 -7 L 3.65625 -7 C 4.09375 -7.476562 4.53125 -7.820312 4.96875 -8.03125 C 5.40625 -8.238281 5.910156 -8.34375 6.484375 -8.34375 C 7.171875 -8.34375 7.734375 -8.222656 8.171875 -7.984375 C 8.617188 -7.753906 8.953125 -7.414062 9.171875 -6.96875 L 9.234375 -6.96875 C 9.609375 -7.40625 10.050781 -7.742188 10.5625 -7.984375 C 11.082031 -8.222656 11.632812 -8.34375 12.21875 -8.34375 C 12.84375 -8.34375 13.382812 -8.265625 13.84375 -8.109375 C 14.300781 -7.953125 14.65625 -7.734375 14.90625 -7.453125 C 15.113281 -7.210938 15.265625 -6.898438 15.359375 -6.515625 C 15.460938 -6.140625 15.515625 -5.609375 15.515625 -4.921875 L 15.515625 -2.546875 C 15.515625 -2.128906 15.523438 -1.796875 15.546875 -1.546875 C 15.578125 -1.296875 15.640625 -1.101562 15.734375 -0.96875 C 15.828125 -0.832031 15.957031 -0.742188 16.125 -0.703125 C 16.300781 -0.671875 16.546875 -0.644531 16.859375 -0.625 L 16.859375 0 L 11.96875 0 L 11.96875 -0.625 C 12.28125 -0.632812 12.523438 -0.660156 12.703125 -0.703125 C 12.890625 -0.742188 13.03125 -0.828125 13.125 -0.953125 C 13.226562 -1.085938 13.289062 -1.269531 13.3125 -1.5 C 13.332031 -1.726562 13.34375 -2.035156 13.34375 -2.421875 L 13.34375 -4.453125 C 13.34375 -4.984375 13.3125 -5.429688 13.25 -5.796875 C 13.195312 -6.171875 13.101562 -6.472656 12.96875 -6.703125 C 12.832031 -6.929688 12.648438 -7.09375 12.421875 -7.1875 C 12.203125 -7.289062 11.9375 -7.34375 11.625 -7.34375 C 11.257812 -7.34375 10.960938 -7.253906 10.734375 -7.078125 C 10.503906 -6.898438 10.3125 -6.671875 10.15625 -6.390625 C 9.882812 -5.910156 9.75 -5.3125 9.75 -4.59375 L 9.75 -2.546875 C 9.75 -2.128906 9.757812 -1.796875 9.78125 -1.546875 C 9.800781 -1.296875 9.859375 -1.101562 9.953125 -0.96875 C 10.046875 -0.832031 10.179688 -0.742188 10.359375 -0.703125 C 10.535156 -0.671875 10.785156 -0.644531 11.109375 -0.625 L 11.109375 0 L 6.21875 0 L 6.21875 -0.625 C 6.519531 -0.644531 6.757812 -0.671875 6.9375 -0.703125 C 7.125 -0.742188 7.265625 -0.828125 7.359375 -0.953125 C 7.460938 -1.078125 7.523438 -1.253906 7.546875 -1.484375 C 7.578125 -1.722656 7.59375 -2.035156 7.59375 -2.421875 L 7.59375 -4.453125 C 7.59375 -4.984375 7.5625 -5.429688 7.5 -5.796875 C 7.4375 -6.171875 7.332031 -6.472656 7.1875 -6.703125 C 7.050781 -6.929688 6.867188 -7.09375 6.640625 -7.1875 C 6.421875 -7.289062 6.140625 -7.34375 5.796875 -7.34375 C 5.453125 -7.34375 5.171875 -7.257812 4.953125 -7.09375 C 4.734375 -6.925781 4.550781 -6.703125 4.40625 -6.421875 C 4.269531 -6.179688 4.164062 -5.898438 4.09375 -5.578125 C 4.019531 -5.253906 3.984375 -4.925781 3.984375 -4.59375 Z M 3.984375 -2.546875 "/></g></g></g><g fill="#cf577e" fill-opacity="1"><g transform="translate(77.283381, 234.79311)"><g><path d="M 5.3125 -4.40625 C 4.445312 -4.007812 3.796875 -3.644531 3.359375 -3.3125 C 2.921875 -2.976562 2.703125 -2.628906 2.703125 -2.265625 C 2.703125 -1.972656 2.785156 -1.738281 2.953125 -1.5625 C 3.117188 -1.382812 3.320312 -1.296875 3.5625 -1.296875 C 3.8125 -1.296875 4.046875 -1.335938 4.265625 -1.421875 C 4.484375 -1.515625 4.664062 -1.632812 4.8125 -1.78125 C 4.96875 -1.925781 5.085938 -2.097656 5.171875 -2.296875 C 5.265625 -2.492188 5.3125 -2.707031 5.3125 -2.9375 Z M 5.3125 -5.21875 L 5.3125 -5.875 C 5.3125 -6.46875 5.207031 -6.898438 5 -7.171875 C 4.789062 -7.453125 4.460938 -7.59375 4.015625 -7.59375 C 3.710938 -7.59375 3.484375 -7.507812 3.328125 -7.34375 C 3.179688 -7.1875 3.039062 -6.921875 2.90625 -6.546875 C 2.8125 -6.296875 2.675781 -6.097656 2.5 -5.953125 C 2.332031 -5.804688 2.101562 -5.734375 1.8125 -5.734375 C 1.519531 -5.734375 1.296875 -5.820312 1.140625 -6 C 0.984375 -6.175781 0.90625 -6.421875 0.90625 -6.734375 C 0.90625 -7.234375 1.175781 -7.625 1.71875 -7.90625 C 2.257812 -8.195312 3.078125 -8.34375 4.171875 -8.34375 C 5.328125 -8.34375 6.148438 -8.132812 6.640625 -7.71875 C 7.140625 -7.300781 7.390625 -6.601562 7.390625 -5.625 L 7.390625 -2.234375 C 7.390625 -1.359375 7.5625 -0.921875 7.90625 -0.921875 C 8.101562 -0.921875 8.285156 -0.988281 8.453125 -1.125 L 8.6875 -0.6875 C 8.539062 -0.425781 8.316406 -0.21875 8.015625 -0.0625 C 7.710938 0.0820312 7.367188 0.15625 6.984375 0.15625 C 6.515625 0.15625 6.15625 0.015625 5.90625 -0.265625 C 5.65625 -0.554688 5.53125 -0.96875 5.53125 -1.5 L 5.453125 -1.5 C 5.148438 -0.96875 4.757812 -0.5625 4.28125 -0.28125 C 3.8125 0 3.273438 0.140625 2.671875 0.140625 C 2.023438 0.140625 1.503906 -0.0390625 1.109375 -0.40625 C 0.722656 -0.769531 0.53125 -1.25 0.53125 -1.84375 C 0.53125 -2.289062 0.726562 -2.710938 1.125 -3.109375 C 1.53125 -3.503906 2.203125 -3.894531 3.140625 -4.28125 Z M 5.3125 -5.21875 "/></g></g></g><g fill="#cf577e" fill-opacity="1"><g transform="translate(86.148947, 234.79311)"><g><path d="M 3.984375 -2.390625 C 3.984375 -1.992188 4 -1.675781 4.03125 -1.4375 C 4.070312 -1.207031 4.148438 -1.03125 4.265625 -0.90625 C 4.378906 -0.78125 4.539062 -0.703125 4.75 -0.671875 C 4.96875 -0.640625 5.257812 -0.625 5.625 -0.625 L 5.625 0 L 0.46875 0 L 0.46875 -0.625 C 0.769531 -0.644531 1.015625 -0.671875 1.203125 -0.703125 C 1.390625 -0.742188 1.53125 -0.828125 1.625 -0.953125 C 1.71875 -1.078125 1.773438 -1.253906 1.796875 -1.484375 C 1.828125 -1.722656 1.84375 -2.035156 1.84375 -2.421875 L 1.84375 -4.3125 C 1.84375 -4.945312 1.828125 -5.453125 1.796875 -5.828125 C 1.765625 -6.210938 1.695312 -6.507812 1.59375 -6.71875 C 1.488281 -6.925781 1.335938 -7.0625 1.140625 -7.125 C 0.953125 -7.195312 0.707031 -7.234375 0.40625 -7.234375 L 0.40625 -7.765625 L 3.5 -8.34375 L 3.734375 -6.5625 L 3.796875 -6.5625 C 4.078125 -7.113281 4.441406 -7.546875 4.890625 -7.859375 C 5.347656 -8.179688 5.828125 -8.34375 6.328125 -8.34375 C 6.722656 -8.34375 7.046875 -8.242188 7.296875 -8.046875 C 7.546875 -7.847656 7.671875 -7.601562 7.671875 -7.3125 C 7.671875 -6.976562 7.570312 -6.695312 7.375 -6.46875 C 7.1875 -6.25 6.925781 -6.140625 6.59375 -6.140625 C 6.4375 -6.140625 6.296875 -6.171875 6.171875 -6.234375 C 6.054688 -6.296875 5.945312 -6.363281 5.84375 -6.4375 C 5.75 -6.507812 5.648438 -6.578125 5.546875 -6.640625 C 5.453125 -6.710938 5.351562 -6.75 5.25 -6.75 C 5.050781 -6.75 4.863281 -6.617188 4.6875 -6.359375 C 4.519531 -6.109375 4.378906 -5.765625 4.265625 -5.328125 C 4.179688 -5.023438 4.113281 -4.675781 4.0625 -4.28125 C 4.007812 -3.894531 3.984375 -3.515625 3.984375 -3.140625 Z M 3.984375 -2.390625 "/></g></g></g><g fill="#cf577e" fill-opacity="1"><g transform="translate(93.840669, 234.79311)"><g><path d="M 0.390625 -7.34375 L 0.390625 -8.03125 C 1.003906 -8.207031 1.519531 -8.472656 1.9375 -8.828125 C 2.351562 -9.179688 2.664062 -9.59375 2.875 -10.0625 L 3.65625 -10.0625 L 3.65625 -8.1875 L 5.4375 -8.1875 L 5.4375 -7.34375 L 3.65625 -7.34375 L 3.65625 -2.59375 C 3.65625 -1.957031 3.722656 -1.503906 3.859375 -1.234375 C 4.003906 -0.960938 4.242188 -0.828125 4.578125 -0.828125 C 4.972656 -0.828125 5.273438 -1.015625 5.484375 -1.390625 L 5.8125 -0.9375 C 5.519531 -0.207031 4.835938 0.15625 3.765625 0.15625 C 3.054688 0.15625 2.503906 -0.00390625 2.109375 -0.328125 C 1.710938 -0.660156 1.515625 -1.128906 1.515625 -1.734375 L 1.515625 -7.34375 Z M 0.390625 -7.34375 "/></g></g></g><g fill="#cf577e" fill-opacity="1"><g transform="translate(99.74075, 234.79311)"><g/></g></g><g fill="#cf577e" fill-opacity="1"><g transform="translate(103.849179, 234.79311)"><g><path d="M 8.984375 -2.890625 L 12.546875 -11.90625 L 17.0625 -11.90625 L 17.0625 -11.28125 C 16.71875 -11.28125 16.441406 -11.242188 16.234375 -11.171875 C 16.023438 -11.109375 15.863281 -10.988281 15.75 -10.8125 C 15.632812 -10.632812 15.554688 -10.394531 15.515625 -10.09375 C 15.484375 -9.789062 15.46875 -9.410156 15.46875 -8.953125 L 15.46875 -2.953125 C 15.46875 -2.429688 15.488281 -2.019531 15.53125 -1.71875 C 15.570312 -1.425781 15.65625 -1.195312 15.78125 -1.03125 C 15.90625 -0.863281 16.082031 -0.753906 16.3125 -0.703125 C 16.539062 -0.660156 16.847656 -0.632812 17.234375 -0.625 L 17.234375 0 L 11.421875 0 L 11.421875 -0.625 C 11.796875 -0.632812 12.097656 -0.664062 12.328125 -0.71875 C 12.566406 -0.769531 12.75 -0.875 12.875 -1.03125 C 13.007812 -1.1875 13.097656 -1.40625 13.140625 -1.6875 C 13.179688 -1.96875 13.203125 -2.351562 13.203125 -2.84375 L 13.203125 -10.078125 L 13.125 -10.078125 L 8.96875 0.15625 L 7.8125 0.15625 L 3.515625 -10.078125 L 3.46875 -10.078125 L 3.46875 -2.953125 C 3.46875 -2.429688 3.484375 -2.019531 3.515625 -1.71875 C 3.554688 -1.425781 3.640625 -1.195312 3.765625 -1.03125 C 3.890625 -0.863281 4.066406 -0.753906 4.296875 -0.703125 C 4.535156 -0.660156 4.84375 -0.632812 5.21875 -0.625 L 5.21875 0 L 0.46875 0 L 0.46875 -0.625 C 0.84375 -0.632812 1.148438 -0.664062 1.390625 -0.71875 C 1.628906 -0.769531 1.8125 -0.875 1.9375 -1.03125 C 2.0625 -1.1875 2.144531 -1.40625 2.1875 -1.6875 C 2.226562 -1.96875 2.25 -2.351562 2.25 -2.84375 L 2.25 -9.0625 C 2.25 -9.488281 2.226562 -9.84375 2.1875 -10.125 C 2.144531 -10.414062 2.066406 -10.644531 1.953125 -10.8125 C 1.847656 -10.988281 1.6875 -11.109375 1.46875 -11.171875 C 1.257812 -11.242188 0.984375 -11.28125 0.640625 -11.28125 L 0.640625 -11.90625 L 5.3125 -11.90625 L 8.921875 -2.890625 Z M 8.984375 -2.890625 "/></g></g></g><g fill="#cf577e" fill-opacity="1"><g transform="translate(121.533973, 234.79311)"><g><path d="M 5.3125 -4.40625 C 4.445312 -4.007812 3.796875 -3.644531 3.359375 -3.3125 C 2.921875 -2.976562 2.703125 -2.628906 2.703125 -2.265625 C 2.703125 -1.972656 2.785156 -1.738281 2.953125 -1.5625 C 3.117188 -1.382812 3.320312 -1.296875 3.5625 -1.296875 C 3.8125 -1.296875 4.046875 -1.335938 4.265625 -1.421875 C 4.484375 -1.515625 4.664062 -1.632812 4.8125 -1.78125 C 4.96875 -1.925781 5.085938 -2.097656 5.171875 -2.296875 C 5.265625 -2.492188 5.3125 -2.707031 5.3125 -2.9375 Z M 5.3125 -5.21875 L 5.3125 -5.875 C 5.3125 -6.46875 5.207031 -6.898438 5 -7.171875 C 4.789062 -7.453125 4.460938 -7.59375 4.015625 -7.59375 C 3.710938 -7.59375 3.484375 -7.507812 3.328125 -7.34375 C 3.179688 -7.1875 3.039062 -6.921875 2.90625 -6.546875 C 2.8125 -6.296875 2.675781 -6.097656 2.5 -5.953125 C 2.332031 -5.804688 2.101562 -5.734375 1.8125 -5.734375 C 1.519531 -5.734375 1.296875 -5.820312 1.140625 -6 C 0.984375 -6.175781 0.90625 -6.421875 0.90625 -6.734375 C 0.90625 -7.234375 1.175781 -7.625 1.71875 -7.90625 C 2.257812 -8.195312 3.078125 -8.34375 4.171875 -8.34375 C 5.328125 -8.34375 6.148438 -8.132812 6.640625 -7.71875 C 7.140625 -7.300781 7.390625 -6.601562 7.390625 -5.625 L 7.390625 -2.234375 C 7.390625 -1.359375 7.5625 -0.921875 7.90625 -0.921875 C 8.101562 -0.921875 8.285156 -0.988281 8.453125 -1.125 L 8.6875 -0.6875 C 8.539062 -0.425781 8.316406 -0.21875 8.015625 -0.0625 C 7.710938 0.0820312 7.367188 0.15625 6.984375 0.15625 C 6.515625 0.15625 6.15625 0.015625 5.90625 -0.265625 C 5.65625 -0.554688 5.53125 -0.96875 5.53125 -1.5 L 5.453125 -1.5 C 5.148438 -0.96875 4.757812 -0.5625 4.28125 -0.28125 C 3.8125 0 3.273438 0.140625 2.671875 0.140625 C 2.023438 0.140625 1.503906 -0.0390625 1.109375 -0.40625 C 0.722656 -0.769531 0.53125 -1.25 0.53125 -1.84375 C 0.53125 -2.289062 0.726562 -2.710938 1.125 -3.109375 C 1.53125 -3.503906 2.203125 -3.894531 3.140625 -4.28125 Z M 5.3125 -5.21875 "/></g></g></g><g fill="#cf577e" fill-opacity="1"><g transform="translate(130.399539, 234.79311)"><g><path d="M 0.390625 -7.34375 L 0.390625 -8.03125 C 1.003906 -8.207031 1.519531 -8.472656 1.9375 -8.828125 C 2.351562 -9.179688 2.664062 -9.59375 2.875 -10.0625 L 3.65625 -10.0625 L 3.65625 -8.1875 L 5.4375 -8.1875 L 5.4375 -7.34375 L 3.65625 -7.34375 L 3.65625 -2.59375 C 3.65625 -1.957031 3.722656 -1.503906 3.859375 -1.234375 C 4.003906 -0.960938 4.242188 -0.828125 4.578125 -0.828125 C 4.972656 -0.828125 5.273438 -1.015625 5.484375 -1.390625 L 5.8125 -0.9375 C 5.519531 -0.207031 4.835938 0.15625 3.765625 0.15625 C 3.054688 0.15625 2.503906 -0.00390625 2.109375 -0.328125 C 1.710938 -0.660156 1.515625 -1.128906 1.515625 -1.734375 L 1.515625 -7.34375 Z M 0.390625 -7.34375 "/></g></g></g><g fill="#cf577e" fill-opacity="1"><g transform="translate(136.29962, 234.79311)"><g><path d="M 8.15625 -1.28125 C 7.769531 -0.851562 7.285156 -0.519531 6.703125 -0.28125 C 6.117188 -0.0390625 5.488281 0.078125 4.8125 0.078125 C 4.175781 0.078125 3.597656 -0.0195312 3.078125 -0.21875 C 2.566406 -0.425781 2.125 -0.707031 1.75 -1.0625 C 1.382812 -1.425781 1.101562 -1.863281 0.90625 -2.375 C 0.707031 -2.882812 0.609375 -3.445312 0.609375 -4.0625 C 0.609375 -4.695312 0.710938 -5.273438 0.921875 -5.796875 C 1.140625 -6.328125 1.441406 -6.78125 1.828125 -7.15625 C 2.222656 -7.53125 2.691406 -7.820312 3.234375 -8.03125 C 3.785156 -8.238281 4.390625 -8.34375 5.046875 -8.34375 C 5.515625 -8.34375 5.945312 -8.296875 6.34375 -8.203125 C 6.738281 -8.109375 7.078125 -7.976562 7.359375 -7.8125 C 7.640625 -7.65625 7.863281 -7.460938 8.03125 -7.234375 C 8.195312 -7.015625 8.28125 -6.773438 8.28125 -6.515625 C 8.28125 -6.222656 8.191406 -5.988281 8.015625 -5.8125 C 7.847656 -5.632812 7.625 -5.546875 7.34375 -5.546875 C 7.101562 -5.546875 6.890625 -5.609375 6.703125 -5.734375 C 6.523438 -5.859375 6.351562 -6.054688 6.1875 -6.328125 C 6.03125 -6.578125 5.894531 -6.773438 5.78125 -6.921875 C 5.675781 -7.066406 5.578125 -7.175781 5.484375 -7.25 C 5.390625 -7.332031 5.296875 -7.382812 5.203125 -7.40625 C 5.109375 -7.4375 5 -7.453125 4.875 -7.453125 C 4.269531 -7.453125 3.800781 -7.171875 3.46875 -6.609375 C 3.144531 -6.054688 2.984375 -5.28125 2.984375 -4.28125 C 2.984375 -3.207031 3.179688 -2.378906 3.578125 -1.796875 C 3.972656 -1.222656 4.539062 -0.9375 5.28125 -0.9375 C 5.707031 -0.9375 6.128906 -1.015625 6.546875 -1.171875 C 6.972656 -1.335938 7.375 -1.570312 7.75 -1.875 Z M 8.15625 -1.28125 "/></g></g></g><g fill="#cf577e" fill-opacity="1"><g transform="translate(145.010736, 234.79311)"><g><path d="M 3.765625 -2.53125 C 3.765625 -2.113281 3.773438 -1.78125 3.796875 -1.53125 C 3.828125 -1.289062 3.882812 -1.101562 3.96875 -0.96875 C 4.0625 -0.832031 4.195312 -0.742188 4.375 -0.703125 C 4.5625 -0.671875 4.804688 -0.644531 5.109375 -0.625 L 5.109375 0 L 0.25 0 L 0.25 -0.625 C 0.550781 -0.644531 0.796875 -0.671875 0.984375 -0.703125 C 1.171875 -0.742188 1.3125 -0.828125 1.40625 -0.953125 C 1.5 -1.078125 1.554688 -1.253906 1.578125 -1.484375 C 1.609375 -1.722656 1.625 -2.035156 1.625 -2.421875 L 1.625 -8.78125 C 1.625 -9.394531 1.613281 -9.878906 1.59375 -10.234375 C 1.582031 -10.585938 1.554688 -10.859375 1.515625 -11.046875 C 1.484375 -11.179688 1.445312 -11.285156 1.40625 -11.359375 C 1.363281 -11.441406 1.296875 -11.503906 1.203125 -11.546875 C 1.117188 -11.597656 1.003906 -11.628906 0.859375 -11.640625 C 0.710938 -11.660156 0.523438 -11.671875 0.296875 -11.671875 L 0.296875 -12.234375 L 3.734375 -12.828125 L 3.734375 -7.125 L 3.796875 -7.125 C 4.117188 -7.539062 4.476562 -7.847656 4.875 -8.046875 C 5.269531 -8.242188 5.75 -8.34375 6.3125 -8.34375 C 7.3125 -8.34375 8.09375 -8.035156 8.65625 -7.421875 C 8.925781 -7.109375 9.132812 -6.734375 9.28125 -6.296875 C 9.4375 -5.859375 9.515625 -5.398438 9.515625 -4.921875 L 9.515625 -2.53125 C 9.515625 -2.101562 9.523438 -1.765625 9.546875 -1.515625 C 9.566406 -1.273438 9.617188 -1.085938 9.703125 -0.953125 C 9.796875 -0.828125 9.929688 -0.742188 10.109375 -0.703125 C 10.285156 -0.671875 10.523438 -0.644531 10.828125 -0.625 L 10.828125 0 L 6 0 L 6 -0.625 C 6.300781 -0.632812 6.539062 -0.660156 6.71875 -0.703125 C 6.90625 -0.742188 7.046875 -0.828125 7.140625 -0.953125 C 7.242188 -1.078125 7.304688 -1.253906 7.328125 -1.484375 C 7.359375 -1.722656 7.375 -2.035156 7.375 -2.421875 L 7.375 -4.328125 C 7.375 -5.421875 7.253906 -6.191406 7.015625 -6.640625 C 6.773438 -7.097656 6.367188 -7.328125 5.796875 -7.328125 C 5.179688 -7.328125 4.691406 -7.097656 4.328125 -6.640625 C 4.148438 -6.410156 4.007812 -6.117188 3.90625 -5.765625 C 3.8125 -5.410156 3.765625 -5.019531 3.765625 -4.59375 Z M 3.765625 -2.53125 "/></g></g></g><g fill="#cf577e" fill-opacity="1"><g transform="translate(156.038629, 234.79311)"><g><path d="M 3.984375 -2.546875 C 3.984375 -2.117188 3.992188 -1.78125 4.015625 -1.53125 C 4.035156 -1.28125 4.09375 -1.085938 4.1875 -0.953125 C 4.28125 -0.828125 4.414062 -0.742188 4.59375 -0.703125 C 4.769531 -0.671875 5.007812 -0.644531 5.3125 -0.625 L 5.3125 0 L 0.4375 0 L 0.4375 -0.625 C 0.738281 -0.644531 0.984375 -0.671875 1.171875 -0.703125 C 1.359375 -0.742188 1.5 -0.828125 1.59375 -0.953125 C 1.6875 -1.078125 1.75 -1.253906 1.78125 -1.484375 C 1.8125 -1.722656 1.828125 -2.035156 1.828125 -2.421875 L 1.828125 -4.34375 C 1.828125 -4.925781 1.816406 -5.410156 1.796875 -5.796875 C 1.785156 -6.191406 1.757812 -6.460938 1.71875 -6.609375 C 1.6875 -6.742188 1.644531 -6.847656 1.59375 -6.921875 C 1.550781 -7.003906 1.476562 -7.066406 1.375 -7.109375 C 1.28125 -7.160156 1.15625 -7.191406 1 -7.203125 C 0.84375 -7.222656 0.644531 -7.234375 0.40625 -7.234375 L 0.40625 -7.75 L 3.390625 -8.34375 L 3.5625 -7 L 3.65625 -7 C 4.09375 -7.476562 4.53125 -7.820312 4.96875 -8.03125 C 5.40625 -8.238281 5.910156 -8.34375 6.484375 -8.34375 C 7.171875 -8.34375 7.734375 -8.222656 8.171875 -7.984375 C 8.617188 -7.753906 8.953125 -7.414062 9.171875 -6.96875 L 9.234375 -6.96875 C 9.609375 -7.40625 10.050781 -7.742188 10.5625 -7.984375 C 11.082031 -8.222656 11.632812 -8.34375 12.21875 -8.34375 C 12.84375 -8.34375 13.382812 -8.265625 13.84375 -8.109375 C 14.300781 -7.953125 14.65625 -7.734375 14.90625 -7.453125 C 15.113281 -7.210938 15.265625 -6.898438 15.359375 -6.515625 C 15.460938 -6.140625 15.515625 -5.609375 15.515625 -4.921875 L 15.515625 -2.546875 C 15.515625 -2.128906 15.523438 -1.796875 15.546875 -1.546875 C 15.578125 -1.296875 15.640625 -1.101562 15.734375 -0.96875 C 15.828125 -0.832031 15.957031 -0.742188 16.125 -0.703125 C 16.300781 -0.671875 16.546875 -0.644531 16.859375 -0.625 L 16.859375 0 L 11.96875 0 L 11.96875 -0.625 C 12.28125 -0.632812 12.523438 -0.660156 12.703125 -0.703125 C 12.890625 -0.742188 13.03125 -0.828125 13.125 -0.953125 C 13.226562 -1.085938 13.289062 -1.269531 13.3125 -1.5 C 13.332031 -1.726562 13.34375 -2.035156 13.34375 -2.421875 L 13.34375 -4.453125 C 13.34375 -4.984375 13.3125 -5.429688 13.25 -5.796875 C 13.195312 -6.171875 13.101562 -6.472656 12.96875 -6.703125 C 12.832031 -6.929688 12.648438 -7.09375 12.421875 -7.1875 C 12.203125 -7.289062 11.9375 -7.34375 11.625 -7.34375 C 11.257812 -7.34375 10.960938 -7.253906 10.734375 -7.078125 C 10.503906 -6.898438 10.3125 -6.671875 10.15625 -6.390625 C 9.882812 -5.910156 9.75 -5.3125 9.75 -4.59375 L 9.75 -2.546875 C 9.75 -2.128906 9.757812 -1.796875 9.78125 -1.546875 C 9.800781 -1.296875 9.859375 -1.101562 9.953125 -0.96875 C 10.046875 -0.832031 10.179688 -0.742188 10.359375 -0.703125 C 10.535156 -0.671875 10.785156 -0.644531 11.109375 -0.625 L 11.109375 0 L 6.21875 0 L 6.21875 -0.625 C 6.519531 -0.644531 6.757812 -0.671875 6.9375 -0.703125 C 7.125 -0.742188 7.265625 -0.828125 7.359375 -0.953125 C 7.460938 -1.078125 7.523438 -1.253906 7.546875 -1.484375 C 7.578125 -1.722656 7.59375 -2.035156 7.59375 -2.421875 L 7.59375 -4.453125 C 7.59375 -4.984375 7.5625 -5.429688 7.5 -5.796875 C 7.4375 -6.171875 7.332031 -6.472656 7.1875 -6.703125 C 7.050781 -6.929688 6.867188 -7.09375 6.640625 -7.1875 C 6.421875 -7.289062 6.140625 -7.34375 5.796875 -7.34375 C 5.453125 -7.34375 5.171875 -7.257812 4.953125 -7.09375 C 4.734375 -6.925781 4.550781 -6.703125 4.40625 -6.421875 C 4.269531 -6.179688 4.164062 -5.898438 4.09375 -5.578125 C 4.019531 -5.253906 3.984375 -4.925781 3.984375 -4.59375 Z M 3.984375 -2.546875 "/></g></g></g><g fill="#cf577e" fill-opacity="1"><g transform="translate(173.121052, 234.79311)"><g><path d="M 5.3125 -4.40625 C 4.445312 -4.007812 3.796875 -3.644531 3.359375 -3.3125 C 2.921875 -2.976562 2.703125 -2.628906 2.703125 -2.265625 C 2.703125 -1.972656 2.785156 -1.738281 2.953125 -1.5625 C 3.117188 -1.382812 3.320312 -1.296875 3.5625 -1.296875 C 3.8125 -1.296875 4.046875 -1.335938 4.265625 -1.421875 C 4.484375 -1.515625 4.664062 -1.632812 4.8125 -1.78125 C 4.96875 -1.925781 5.085938 -2.097656 5.171875 -2.296875 C 5.265625 -2.492188 5.3125 -2.707031 5.3125 -2.9375 Z M 5.3125 -5.21875 L 5.3125 -5.875 C 5.3125 -6.46875 5.207031 -6.898438 5 -7.171875 C 4.789062 -7.453125 4.460938 -7.59375 4.015625 -7.59375 C 3.710938 -7.59375 3.484375 -7.507812 3.328125 -7.34375 C 3.179688 -7.1875 3.039062 -6.921875 2.90625 -6.546875 C 2.8125 -6.296875 2.675781 -6.097656 2.5 -5.953125 C 2.332031 -5.804688 2.101562 -5.734375 1.8125 -5.734375 C 1.519531 -5.734375 1.296875 -5.820312 1.140625 -6 C 0.984375 -6.175781 0.90625 -6.421875 0.90625 -6.734375 C 0.90625 -7.234375 1.175781 -7.625 1.71875 -7.90625 C 2.257812 -8.195312 3.078125 -8.34375 4.171875 -8.34375 C 5.328125 -8.34375 6.148438 -8.132812 6.640625 -7.71875 C 7.140625 -7.300781 7.390625 -6.601562 7.390625 -5.625 L 7.390625 -2.234375 C 7.390625 -1.359375 7.5625 -0.921875 7.90625 -0.921875 C 8.101562 -0.921875 8.285156 -0.988281 8.453125 -1.125 L 8.6875 -0.6875 C 8.539062 -0.425781 8.316406 -0.21875 8.015625 -0.0625 C 7.710938 0.0820312 7.367188 0.15625 6.984375 0.15625 C 6.515625 0.15625 6.15625 0.015625 5.90625 -0.265625 C 5.65625 -0.554688 5.53125 -0.96875 5.53125 -1.5 L 5.453125 -1.5 C 5.148438 -0.96875 4.757812 -0.5625 4.28125 -0.28125 C 3.8125 0 3.273438 0.140625 2.671875 0.140625 C 2.023438 0.140625 1.503906 -0.0390625 1.109375 -0.40625 C 0.722656 -0.769531 0.53125 -1.25 0.53125 -1.84375 C 0.53125 -2.289062 0.726562 -2.710938 1.125 -3.109375 C 1.53125 -3.503906 2.203125 -3.894531 3.140625 -4.28125 Z M 5.3125 -5.21875 "/></g></g></g><g fill="#cf577e" fill-opacity="1"><g transform="translate(181.986618, 234.79311)"><g><path d="M 5.53125 -0.625 C 5.863281 -0.625 6.09375 -0.632812 6.21875 -0.65625 C 6.351562 -0.6875 6.421875 -0.738281 6.421875 -0.8125 C 6.421875 -0.875 6.351562 -1.023438 6.21875 -1.265625 C 6.082031 -1.515625 5.90625 -1.796875 5.6875 -2.109375 L 4.515625 -3.875 L 3.734375 -3.140625 L 3.734375 -2.53125 C 3.734375 -2.132812 3.75 -1.8125 3.78125 -1.5625 C 3.8125 -1.3125 3.863281 -1.113281 3.9375 -0.96875 C 4.019531 -0.832031 4.128906 -0.738281 4.265625 -0.6875 C 4.410156 -0.644531 4.59375 -0.625 4.8125 -0.625 L 4.8125 0 L 0.25 0 L 0.25 -0.625 C 0.539062 -0.632812 0.769531 -0.660156 0.9375 -0.703125 C 1.113281 -0.753906 1.253906 -0.84375 1.359375 -0.96875 C 1.460938 -1.101562 1.53125 -1.285156 1.5625 -1.515625 C 1.601562 -1.753906 1.625 -2.054688 1.625 -2.421875 L 1.625 -8.984375 C 1.625 -9.609375 1.613281 -10.097656 1.59375 -10.453125 C 1.570312 -10.816406 1.515625 -11.085938 1.421875 -11.265625 C 1.335938 -11.453125 1.203125 -11.566406 1.015625 -11.609375 C 0.835938 -11.648438 0.597656 -11.671875 0.296875 -11.671875 L 0.296875 -12.234375 L 3.734375 -12.828125 L 3.734375 -4.234375 L 5.21875 -5.640625 C 5.757812 -6.140625 6.140625 -6.515625 6.359375 -6.765625 C 6.585938 -7.023438 6.703125 -7.210938 6.703125 -7.328125 C 6.703125 -7.421875 6.609375 -7.484375 6.421875 -7.515625 C 6.234375 -7.554688 5.878906 -7.578125 5.359375 -7.578125 L 5.359375 -8.1875 L 9.578125 -8.1875 L 9.578125 -7.578125 C 9.191406 -7.578125 8.847656 -7.507812 8.546875 -7.375 C 8.242188 -7.238281 7.921875 -7.003906 7.578125 -6.671875 L 6.078125 -5.265625 L 8.75 -1.484375 C 8.988281 -1.148438 9.21875 -0.921875 9.4375 -0.796875 C 9.664062 -0.679688 9.96875 -0.625 10.34375 -0.625 L 10.34375 0 L 5.53125 0 Z M 5.53125 -0.625 "/></g></g></g><g fill="#cf577e" fill-opacity="1"><g transform="translate(192.242251, 234.79311)"><g><path d="M 3.96875 -2.53125 C 3.96875 -2.125 3.984375 -1.796875 4.015625 -1.546875 C 4.046875 -1.296875 4.109375 -1.101562 4.203125 -0.96875 C 4.296875 -0.832031 4.429688 -0.742188 4.609375 -0.703125 C 4.785156 -0.660156 5.019531 -0.632812 5.3125 -0.625 L 5.3125 0 L 0.453125 0 L 0.453125 -0.625 C 0.734375 -0.632812 0.960938 -0.664062 1.140625 -0.71875 C 1.328125 -0.769531 1.46875 -0.859375 1.5625 -0.984375 C 1.664062 -1.117188 1.734375 -1.300781 1.765625 -1.53125 C 1.804688 -1.769531 1.828125 -2.066406 1.828125 -2.421875 L 1.828125 -4.328125 C 1.828125 -4.921875 1.816406 -5.410156 1.796875 -5.796875 C 1.773438 -6.179688 1.75 -6.445312 1.71875 -6.59375 C 1.664062 -6.851562 1.546875 -7.023438 1.359375 -7.109375 C 1.179688 -7.191406 0.859375 -7.234375 0.390625 -7.234375 L 0.390625 -7.75 L 3.96875 -8.34375 Z M 1.703125 -11.625 C 1.703125 -11.957031 1.816406 -12.238281 2.046875 -12.46875 C 2.273438 -12.707031 2.554688 -12.828125 2.890625 -12.828125 C 3.234375 -12.828125 3.519531 -12.707031 3.75 -12.46875 C 3.976562 -12.238281 4.09375 -11.957031 4.09375 -11.625 C 4.09375 -11.289062 3.976562 -11.007812 3.75 -10.78125 C 3.519531 -10.550781 3.234375 -10.4375 2.890625 -10.4375 C 2.554688 -10.4375 2.273438 -10.550781 2.046875 -10.78125 C 1.816406 -11.007812 1.703125 -11.289062 1.703125 -11.625 Z M 1.703125 -11.625 "/></g></g></g><g fill="#cf577e" fill-opacity="1"><g transform="translate(197.817984, 234.79311)"><g><path d="M 3.96875 -2.515625 C 3.96875 -2.097656 3.976562 -1.765625 4 -1.515625 C 4.03125 -1.273438 4.085938 -1.085938 4.171875 -0.953125 C 4.265625 -0.828125 4.398438 -0.742188 4.578125 -0.703125 C 4.765625 -0.671875 5.007812 -0.644531 5.3125 -0.625 L 5.3125 0 L 0.453125 0 L 0.453125 -0.625 C 0.742188 -0.644531 0.976562 -0.671875 1.15625 -0.703125 C 1.34375 -0.742188 1.484375 -0.828125 1.578125 -0.953125 C 1.679688 -1.078125 1.75 -1.253906 1.78125 -1.484375 C 1.8125 -1.710938 1.828125 -2.019531 1.828125 -2.40625 L 1.828125 -4.34375 C 1.828125 -4.945312 1.816406 -5.4375 1.796875 -5.8125 C 1.773438 -6.1875 1.75 -6.441406 1.71875 -6.578125 C 1.6875 -6.710938 1.644531 -6.820312 1.59375 -6.90625 C 1.539062 -7 1.460938 -7.066406 1.359375 -7.109375 C 1.253906 -7.160156 1.125 -7.191406 0.96875 -7.203125 C 0.8125 -7.222656 0.617188 -7.234375 0.390625 -7.234375 L 0.390625 -7.75 L 3.375 -8.34375 L 3.5625 -6.984375 L 3.625 -6.984375 C 3.96875 -7.421875 4.367188 -7.753906 4.828125 -7.984375 C 5.296875 -8.222656 5.804688 -8.34375 6.359375 -8.34375 C 7.023438 -8.34375 7.5625 -8.25 7.96875 -8.0625 C 8.375 -7.882812 8.738281 -7.585938 9.0625 -7.171875 C 9.226562 -6.929688 9.378906 -6.625 9.515625 -6.25 C 9.648438 -5.875 9.71875 -5.359375 9.71875 -4.703125 L 9.71875 -2.515625 C 9.71875 -2.097656 9.726562 -1.765625 9.75 -1.515625 C 9.78125 -1.273438 9.835938 -1.085938 9.921875 -0.953125 C 10.015625 -0.828125 10.144531 -0.742188 10.3125 -0.703125 C 10.488281 -0.671875 10.726562 -0.644531 11.03125 -0.625 L 11.03125 0 L 6.203125 0 L 6.203125 -0.625 C 6.503906 -0.632812 6.742188 -0.660156 6.921875 -0.703125 C 7.109375 -0.742188 7.25 -0.828125 7.34375 -0.953125 C 7.4375 -1.078125 7.5 -1.253906 7.53125 -1.484375 C 7.5625 -1.722656 7.578125 -2.03125 7.578125 -2.40625 L 7.578125 -4.515625 C 7.578125 -5.035156 7.546875 -5.472656 7.484375 -5.828125 C 7.421875 -6.191406 7.316406 -6.484375 7.171875 -6.703125 C 7.035156 -6.929688 6.851562 -7.09375 6.625 -7.1875 C 6.40625 -7.289062 6.125 -7.34375 5.78125 -7.34375 C 5.445312 -7.34375 5.160156 -7.25 4.921875 -7.0625 C 4.691406 -6.875 4.488281 -6.617188 4.3125 -6.296875 C 4.21875 -6.109375 4.132812 -5.863281 4.0625 -5.5625 C 4 -5.269531 3.96875 -4.96875 3.96875 -4.65625 Z M 3.96875 -2.515625 "/></g></g></g><g fill="#cf577e" fill-opacity="1"><g transform="translate(209.046663, 234.79311)"><g><path d="M 3.515625 -1.671875 C 3.796875 -1.648438 4.039062 -1.628906 4.25 -1.609375 C 4.46875 -1.585938 4.671875 -1.5625 4.859375 -1.53125 C 5.046875 -1.507812 5.234375 -1.484375 5.421875 -1.453125 C 5.617188 -1.429688 5.828125 -1.40625 6.046875 -1.375 C 6.847656 -1.257812 7.476562 -0.957031 7.9375 -0.46875 C 8.394531 0.0195312 8.625 0.625 8.625 1.34375 C 8.625 2.21875 8.257812 2.878906 7.53125 3.328125 C 6.8125 3.785156 5.753906 4.015625 4.359375 4.015625 C 3.066406 4.015625 2.070312 3.828125 1.375 3.453125 C 0.6875 3.078125 0.34375 2.546875 0.34375 1.859375 C 0.34375 1.316406 0.476562 0.910156 0.75 0.640625 C 1.03125 0.367188 1.382812 0.234375 1.8125 0.234375 C 2.070312 0.234375 2.328125 0.285156 2.578125 0.390625 C 2.835938 0.503906 3.054688 0.660156 3.234375 0.859375 C 2.960938 0.910156 2.738281 1.03125 2.5625 1.21875 C 2.394531 1.414062 2.3125 1.644531 2.3125 1.90625 C 2.3125 2.3125 2.492188 2.625 2.859375 2.84375 C 3.234375 3.070312 3.773438 3.1875 4.484375 3.1875 C 6.023438 3.1875 6.796875 2.695312 6.796875 1.71875 C 6.796875 1.363281 6.679688 1.0625 6.453125 0.8125 C 6.222656 0.5625 5.890625 0.410156 5.453125 0.359375 L 2.75 -0.015625 C 1.601562 -0.171875 1.03125 -0.679688 1.03125 -1.546875 C 1.03125 -1.960938 1.164062 -2.304688 1.4375 -2.578125 C 1.71875 -2.847656 2.109375 -3.035156 2.609375 -3.140625 L 2.609375 -3.203125 C 2.367188 -3.296875 2.15625 -3.421875 1.96875 -3.578125 C 1.78125 -3.742188 1.613281 -3.9375 1.46875 -4.15625 C 1.320312 -4.375 1.207031 -4.609375 1.125 -4.859375 C 1.050781 -5.109375 1.015625 -5.367188 1.015625 -5.640625 C 1.015625 -6.023438 1.09375 -6.382812 1.25 -6.71875 C 1.414062 -7.050781 1.640625 -7.332031 1.921875 -7.5625 C 2.203125 -7.800781 2.535156 -7.988281 2.921875 -8.125 C 3.316406 -8.269531 3.738281 -8.34375 4.1875 -8.34375 C 4.632812 -8.34375 5.066406 -8.273438 5.484375 -8.140625 C 5.910156 -8.003906 6.269531 -7.820312 6.5625 -7.59375 C 6.800781 -7.726562 7.007812 -7.84375 7.1875 -7.9375 C 7.363281 -8.039062 7.523438 -8.117188 7.671875 -8.171875 C 7.816406 -8.234375 7.953125 -8.273438 8.078125 -8.296875 C 8.203125 -8.328125 8.328125 -8.34375 8.453125 -8.34375 C 8.847656 -8.34375 9.164062 -8.253906 9.40625 -8.078125 C 9.644531 -7.898438 9.765625 -7.671875 9.765625 -7.390625 C 9.765625 -7.171875 9.695312 -6.988281 9.5625 -6.84375 C 9.425781 -6.707031 9.253906 -6.640625 9.046875 -6.640625 C 8.890625 -6.640625 8.765625 -6.671875 8.671875 -6.734375 C 8.578125 -6.804688 8.484375 -6.882812 8.390625 -6.96875 C 8.304688 -7.0625 8.21875 -7.140625 8.125 -7.203125 C 8.03125 -7.273438 7.90625 -7.3125 7.75 -7.3125 C 7.539062 -7.3125 7.335938 -7.171875 7.140625 -6.890625 C 7.242188 -6.710938 7.316406 -6.523438 7.359375 -6.328125 C 7.398438 -6.128906 7.421875 -5.894531 7.421875 -5.625 C 7.421875 -5.226562 7.359375 -4.863281 7.234375 -4.53125 C 7.109375 -4.207031 6.914062 -3.921875 6.65625 -3.671875 C 6.394531 -3.421875 6.054688 -3.207031 5.640625 -3.03125 C 5.222656 -2.851562 4.722656 -2.734375 4.140625 -2.671875 C 3.648438 -2.617188 3.304688 -2.550781 3.109375 -2.46875 C 2.921875 -2.382812 2.828125 -2.265625 2.828125 -2.109375 C 2.828125 -1.859375 3.054688 -1.710938 3.515625 -1.671875 Z M 4.265625 -3.546875 C 4.597656 -3.546875 4.851562 -3.722656 5.03125 -4.078125 C 5.21875 -4.429688 5.3125 -4.921875 5.3125 -5.546875 C 5.3125 -6.179688 5.21875 -6.671875 5.03125 -7.015625 C 4.851562 -7.367188 4.59375 -7.546875 4.25 -7.546875 C 3.894531 -7.546875 3.613281 -7.367188 3.40625 -7.015625 C 3.207031 -6.660156 3.109375 -6.179688 3.109375 -5.578125 C 3.109375 -4.960938 3.210938 -4.46875 3.421875 -4.09375 C 3.628906 -3.726562 3.910156 -3.546875 4.265625 -3.546875 Z M 4.265625 -3.546875 "/></g></g></g><g fill="#cf577e" fill-opacity="1"><g transform="translate(218.329206, 234.79311)"><g><path d="M 0.828125 -0.984375 C 0.828125 -1.316406 0.9375 -1.597656 1.15625 -1.828125 C 1.382812 -2.054688 1.664062 -2.171875 2 -2.171875 C 2.332031 -2.171875 2.613281 -2.054688 2.84375 -1.828125 C 3.070312 -1.597656 3.1875 -1.316406 3.1875 -0.984375 C 3.1875 -0.671875 3.070312 -0.398438 2.84375 -0.171875 C 2.613281 0.046875 2.332031 0.15625 2 0.15625 C 1.664062 0.15625 1.382812 0.046875 1.15625 -0.171875 C 0.9375 -0.398438 0.828125 -0.671875 0.828125 -0.984375 Z M 0.828125 -0.984375 "/></g></g></g><g fill="#cf577e" fill-opacity="1"><g transform="translate(222.344972, 234.79311)"><g/></g></g><g fill="#cf577e" fill-opacity="1"><g transform="translate(226.4534, 234.79311)"><g><path d="M 10.359375 0.15625 L 3.515625 -9.59375 L 3.453125 -9.59375 L 3.453125 -2.953125 C 3.453125 -2.429688 3.46875 -2.019531 3.5 -1.71875 C 3.53125 -1.425781 3.601562 -1.195312 3.71875 -1.03125 C 3.84375 -0.863281 4.007812 -0.753906 4.21875 -0.703125 C 4.4375 -0.660156 4.710938 -0.632812 5.046875 -0.625 L 5.046875 0 L 0.46875 0 L 0.46875 -0.625 C 0.84375 -0.632812 1.144531 -0.664062 1.375 -0.71875 C 1.613281 -0.769531 1.796875 -0.875 1.921875 -1.03125 C 2.046875 -1.1875 2.128906 -1.40625 2.171875 -1.6875 C 2.210938 -1.96875 2.234375 -2.351562 2.234375 -2.84375 L 2.234375 -9.0625 C 2.234375 -9.488281 2.210938 -9.84375 2.171875 -10.125 C 2.128906 -10.40625 2.050781 -10.628906 1.9375 -10.796875 C 1.832031 -10.960938 1.671875 -11.078125 1.453125 -11.140625 C 1.242188 -11.210938 0.96875 -11.257812 0.625 -11.28125 L 0.625 -11.90625 L 4.921875 -11.90625 L 11.15625 -2.96875 L 11.21875 -2.96875 L 11.21875 -8.953125 C 11.21875 -9.453125 11.195312 -9.851562 11.15625 -10.15625 C 11.125 -10.457031 11.046875 -10.691406 10.921875 -10.859375 C 10.804688 -11.023438 10.644531 -11.132812 10.4375 -11.1875 C 10.226562 -11.238281 9.953125 -11.269531 9.609375 -11.28125 L 9.609375 -11.90625 L 14.203125 -11.90625 L 14.203125 -11.28125 C 13.816406 -11.269531 13.507812 -11.234375 13.28125 -11.171875 C 13.050781 -11.117188 12.867188 -11.015625 12.734375 -10.859375 C 12.609375 -10.703125 12.523438 -10.476562 12.484375 -10.1875 C 12.441406 -9.90625 12.421875 -9.53125 12.421875 -9.0625 L 12.421875 0.15625 Z M 10.359375 0.15625 "/></g></g></g><g fill="#cf577e" fill-opacity="1"><g transform="translate(240.554775, 234.79311)"><g><path d="M 5.0625 -8.34375 C 5.6875 -8.34375 6.273438 -8.238281 6.828125 -8.03125 C 7.378906 -7.820312 7.863281 -7.53125 8.28125 -7.15625 C 8.695312 -6.78125 9.023438 -6.335938 9.265625 -5.828125 C 9.503906 -5.316406 9.625 -4.757812 9.625 -4.15625 C 9.625 -3.53125 9.503906 -2.953125 9.265625 -2.421875 C 9.023438 -1.898438 8.695312 -1.445312 8.28125 -1.0625 C 7.863281 -0.6875 7.378906 -0.390625 6.828125 -0.171875 C 6.273438 0.046875 5.6875 0.15625 5.0625 0.15625 C 4.457031 0.15625 3.878906 0.0507812 3.328125 -0.15625 C 2.785156 -0.375 2.304688 -0.671875 1.890625 -1.046875 C 1.484375 -1.429688 1.160156 -1.890625 0.921875 -2.421875 C 0.691406 -2.953125 0.578125 -3.53125 0.578125 -4.15625 C 0.578125 -4.757812 0.691406 -5.316406 0.921875 -5.828125 C 1.160156 -6.347656 1.484375 -6.789062 1.890625 -7.15625 C 2.304688 -7.53125 2.785156 -7.820312 3.328125 -8.03125 C 3.878906 -8.238281 4.457031 -8.34375 5.0625 -8.34375 Z M 5.0625 -7.453125 C 4.757812 -7.453125 4.476562 -7.367188 4.21875 -7.203125 C 3.957031 -7.046875 3.738281 -6.820312 3.5625 -6.53125 C 3.382812 -6.25 3.242188 -5.90625 3.140625 -5.5 C 3.046875 -5.09375 3 -4.640625 3 -4.140625 C 3 -3.628906 3.046875 -3.164062 3.140625 -2.75 C 3.242188 -2.332031 3.382812 -1.976562 3.5625 -1.6875 C 3.738281 -1.40625 3.953125 -1.179688 4.203125 -1.015625 C 4.460938 -0.859375 4.75 -0.78125 5.0625 -0.78125 C 5.382812 -0.78125 5.675781 -0.859375 5.9375 -1.015625 C 6.195312 -1.179688 6.421875 -1.410156 6.609375 -1.703125 C 6.796875 -1.992188 6.941406 -2.347656 7.046875 -2.765625 C 7.148438 -3.179688 7.203125 -3.640625 7.203125 -4.140625 C 7.203125 -4.640625 7.148438 -5.085938 7.046875 -5.484375 C 6.941406 -5.890625 6.796875 -6.238281 6.609375 -6.53125 C 6.421875 -6.820312 6.195312 -7.046875 5.9375 -7.203125 C 5.675781 -7.367188 5.382812 -7.453125 5.0625 -7.453125 Z M 5.0625 -7.453125 "/></g></g></g><g fill="#cf577e" fill-opacity="1"><g transform="translate(250.748633, 234.79311)"><g/></g></g><g fill="#cf577e" fill-opacity="1"><g transform="translate(254.857062, 234.79311)"><g><path d="M 0.828125 -3.9375 L 1.4375 -3.9375 C 1.582031 -2.957031 1.972656 -2.1875 2.609375 -1.625 C 3.242188 -1.0625 4.03125 -0.78125 4.96875 -0.78125 C 5.351562 -0.78125 5.703125 -0.828125 6.015625 -0.921875 C 6.335938 -1.015625 6.613281 -1.144531 6.84375 -1.3125 C 7.070312 -1.488281 7.25 -1.691406 7.375 -1.921875 C 7.5 -2.148438 7.5625 -2.410156 7.5625 -2.703125 C 7.5625 -2.953125 7.519531 -3.164062 7.4375 -3.34375 C 7.363281 -3.519531 7.21875 -3.691406 7 -3.859375 C 6.78125 -4.035156 6.484375 -4.210938 6.109375 -4.390625 C 5.734375 -4.566406 5.25 -4.765625 4.65625 -4.984375 C 3.445312 -5.453125 2.550781 -5.992188 1.96875 -6.609375 C 1.394531 -7.222656 1.109375 -7.945312 1.109375 -8.78125 C 1.109375 -9.257812 1.203125 -9.695312 1.390625 -10.09375 C 1.578125 -10.5 1.835938 -10.847656 2.171875 -11.140625 C 2.503906 -11.429688 2.90625 -11.65625 3.375 -11.8125 C 3.84375 -11.96875 4.359375 -12.046875 4.921875 -12.046875 C 5.453125 -12.046875 5.945312 -11.960938 6.40625 -11.796875 C 6.875 -11.640625 7.332031 -11.394531 7.78125 -11.0625 L 8.0625 -11.84375 L 8.4375 -11.84375 L 8.609375 -8.5 L 8 -8.5 C 7.757812 -9.34375 7.375 -9.988281 6.84375 -10.4375 C 6.320312 -10.882812 5.710938 -11.109375 5.015625 -11.109375 C 4.378906 -11.109375 3.863281 -10.953125 3.46875 -10.640625 C 3.070312 -10.328125 2.875 -9.921875 2.875 -9.421875 C 2.875 -9.210938 2.910156 -9.019531 2.984375 -8.84375 C 3.054688 -8.675781 3.1875 -8.515625 3.375 -8.359375 C 3.570312 -8.203125 3.84375 -8.046875 4.1875 -7.890625 C 4.53125 -7.734375 4.96875 -7.554688 5.5 -7.359375 C 6.21875 -7.078125 6.832031 -6.796875 7.34375 -6.515625 C 7.851562 -6.234375 8.269531 -5.925781 8.59375 -5.59375 C 8.925781 -5.269531 9.164062 -4.925781 9.3125 -4.5625 C 9.46875 -4.207031 9.546875 -3.816406 9.546875 -3.390625 C 9.546875 -2.859375 9.429688 -2.375 9.203125 -1.9375 C 8.984375 -1.507812 8.671875 -1.140625 8.265625 -0.828125 C 7.859375 -0.523438 7.375 -0.285156 6.8125 -0.109375 C 6.25 0.0664062 5.625 0.15625 4.9375 0.15625 C 4.320312 0.15625 3.765625 0.0703125 3.265625 -0.09375 C 2.773438 -0.269531 2.269531 -0.546875 1.75 -0.921875 L 1.4375 0 L 1.0625 0 Z M 0.828125 -3.9375 "/></g></g></g><g fill="#cf577e" fill-opacity="1"><g transform="translate(264.819143, 234.79311)"><g><path d="M 4.84375 0.15625 L 3.671875 0.15625 L 1.5625 -6.203125 C 1.394531 -6.691406 1.203125 -7.035156 0.984375 -7.234375 C 0.773438 -7.441406 0.488281 -7.554688 0.125 -7.578125 L 0.125 -8.1875 L 4.546875 -8.1875 L 4.546875 -7.578125 C 4.171875 -7.566406 3.910156 -7.507812 3.765625 -7.40625 C 3.617188 -7.3125 3.546875 -7.144531 3.546875 -6.90625 C 3.546875 -6.789062 3.5625 -6.664062 3.59375 -6.53125 C 3.625 -6.394531 3.664062 -6.242188 3.71875 -6.078125 L 4.703125 -2.453125 L 4.765625 -2.453125 L 6.921875 -8.1875 L 8.1875 -8.1875 L 9.8125 -2.453125 L 9.890625 -2.453125 L 11.125 -5.65625 C 11.226562 -5.914062 11.300781 -6.140625 11.34375 -6.328125 C 11.382812 -6.515625 11.40625 -6.679688 11.40625 -6.828125 C 11.40625 -7.097656 11.316406 -7.289062 11.140625 -7.40625 C 10.960938 -7.519531 10.726562 -7.578125 10.4375 -7.578125 L 10.4375 -8.1875 L 13.75 -8.1875 L 13.75 -7.578125 C 13.5625 -7.578125 13.40625 -7.554688 13.28125 -7.515625 C 13.164062 -7.472656 13.046875 -7.375 12.921875 -7.21875 C 12.796875 -7.0625 12.660156 -6.820312 12.515625 -6.5 C 12.367188 -6.1875 12.1875 -5.75 11.96875 -5.1875 L 9.84375 0.15625 L 8.625 0.15625 L 6.984375 -5.328125 L 6.921875 -5.328125 Z M 4.84375 0.15625 "/></g></g></g><g fill="#cf577e" fill-opacity="1"><g transform="translate(278.580846, 234.79311)"><g><path d="M 3.96875 -2.53125 C 3.96875 -2.125 3.984375 -1.796875 4.015625 -1.546875 C 4.046875 -1.296875 4.109375 -1.101562 4.203125 -0.96875 C 4.296875 -0.832031 4.429688 -0.742188 4.609375 -0.703125 C 4.785156 -0.660156 5.019531 -0.632812 5.3125 -0.625 L 5.3125 0 L 0.453125 0 L 0.453125 -0.625 C 0.734375 -0.632812 0.960938 -0.664062 1.140625 -0.71875 C 1.328125 -0.769531 1.46875 -0.859375 1.5625 -0.984375 C 1.664062 -1.117188 1.734375 -1.300781 1.765625 -1.53125 C 1.804688 -1.769531 1.828125 -2.066406 1.828125 -2.421875 L 1.828125 -4.328125 C 1.828125 -4.921875 1.816406 -5.410156 1.796875 -5.796875 C 1.773438 -6.179688 1.75 -6.445312 1.71875 -6.59375 C 1.664062 -6.851562 1.546875 -7.023438 1.359375 -7.109375 C 1.179688 -7.191406 0.859375 -7.234375 0.390625 -7.234375 L 0.390625 -7.75 L 3.96875 -8.34375 Z M 1.703125 -11.625 C 1.703125 -11.957031 1.816406 -12.238281 2.046875 -12.46875 C 2.273438 -12.707031 2.554688 -12.828125 2.890625 -12.828125 C 3.234375 -12.828125 3.519531 -12.707031 3.75 -12.46875 C 3.976562 -12.238281 4.09375 -11.957031 4.09375 -11.625 C 4.09375 -11.289062 3.976562 -11.007812 3.75 -10.78125 C 3.519531 -10.550781 3.234375 -10.4375 2.890625 -10.4375 C 2.554688 -10.4375 2.273438 -10.550781 2.046875 -10.78125 C 1.816406 -11.007812 1.703125 -11.289062 1.703125 -11.625 Z M 1.703125 -11.625 "/></g></g></g><g fill="#cf577e" fill-opacity="1"><g transform="translate(284.15659, 234.79311)"><g><path d="M 3.375 -7.1875 L 3.4375 -7.1875 C 4.113281 -7.957031 5 -8.34375 6.09375 -8.34375 C 6.6875 -8.34375 7.234375 -8.238281 7.734375 -8.03125 C 8.234375 -7.820312 8.664062 -7.523438 9.03125 -7.140625 C 9.394531 -6.765625 9.675781 -6.316406 9.875 -5.796875 C 10.082031 -5.273438 10.1875 -4.707031 10.1875 -4.09375 C 10.1875 -3.476562 10.082031 -2.910156 9.875 -2.390625 C 9.675781 -1.878906 9.394531 -1.429688 9.03125 -1.046875 C 8.675781 -0.671875 8.25 -0.375 7.75 -0.15625 C 7.25 0.0507812 6.707031 0.15625 6.125 0.15625 C 5.125 0.15625 4.359375 -0.179688 3.828125 -0.859375 L 3.765625 -0.859375 L 3.765625 1.28125 C 3.765625 1.695312 3.785156 2.023438 3.828125 2.265625 C 3.867188 2.515625 3.957031 2.707031 4.09375 2.84375 C 4.226562 2.976562 4.414062 3.070312 4.65625 3.125 C 4.894531 3.175781 5.21875 3.207031 5.625 3.21875 L 5.625 3.859375 L 0.296875 3.859375 L 0.296875 3.21875 C 0.566406 3.207031 0.789062 3.175781 0.96875 3.125 C 1.144531 3.070312 1.28125 2.976562 1.375 2.84375 C 1.476562 2.707031 1.546875 2.523438 1.578125 2.296875 C 1.617188 2.066406 1.640625 1.765625 1.640625 1.390625 L 1.640625 -4.359375 C 1.640625 -4.828125 1.628906 -5.273438 1.609375 -5.703125 C 1.585938 -6.128906 1.5625 -6.429688 1.53125 -6.609375 C 1.476562 -6.847656 1.359375 -7.015625 1.171875 -7.109375 C 0.992188 -7.203125 0.691406 -7.25 0.265625 -7.25 L 0.265625 -7.84375 L 3.375 -8.28125 Z M 6 -7.46875 C 5.664062 -7.46875 5.347656 -7.394531 5.046875 -7.25 C 4.753906 -7.101562 4.519531 -6.910156 4.34375 -6.671875 C 4.164062 -6.441406 4.03125 -6.144531 3.9375 -5.78125 C 3.84375 -5.425781 3.796875 -5.046875 3.796875 -4.640625 L 3.796875 -3.578125 C 3.796875 -2.847656 3.976562 -2.226562 4.34375 -1.71875 C 4.726562 -1.144531 5.28125 -0.859375 6 -0.859375 C 6.625 -0.859375 7.085938 -1.117188 7.390625 -1.640625 C 7.691406 -2.160156 7.84375 -2.96875 7.84375 -4.0625 C 7.84375 -6.332031 7.226562 -7.46875 6 -7.46875 Z M 6 -7.46875 "/></g></g></g><g fill="#cf577e" fill-opacity="1"><g transform="translate(294.921909, 234.79311)"><g><path d="M 3.96875 -2.53125 C 3.96875 -2.125 3.984375 -1.796875 4.015625 -1.546875 C 4.046875 -1.296875 4.109375 -1.101562 4.203125 -0.96875 C 4.296875 -0.832031 4.429688 -0.742188 4.609375 -0.703125 C 4.785156 -0.660156 5.019531 -0.632812 5.3125 -0.625 L 5.3125 0 L 0.453125 0 L 0.453125 -0.625 C 0.734375 -0.632812 0.960938 -0.664062 1.140625 -0.71875 C 1.328125 -0.769531 1.46875 -0.859375 1.5625 -0.984375 C 1.664062 -1.117188 1.734375 -1.300781 1.765625 -1.53125 C 1.804688 -1.769531 1.828125 -2.066406 1.828125 -2.421875 L 1.828125 -4.328125 C 1.828125 -4.921875 1.816406 -5.410156 1.796875 -5.796875 C 1.773438 -6.179688 1.75 -6.445312 1.71875 -6.59375 C 1.664062 -6.851562 1.546875 -7.023438 1.359375 -7.109375 C 1.179688 -7.191406 0.859375 -7.234375 0.390625 -7.234375 L 0.390625 -7.75 L 3.96875 -8.34375 Z M 1.703125 -11.625 C 1.703125 -11.957031 1.816406 -12.238281 2.046875 -12.46875 C 2.273438 -12.707031 2.554688 -12.828125 2.890625 -12.828125 C 3.234375 -12.828125 3.519531 -12.707031 3.75 -12.46875 C 3.976562 -12.238281 4.09375 -11.957031 4.09375 -11.625 C 4.09375 -11.289062 3.976562 -11.007812 3.75 -10.78125 C 3.519531 -10.550781 3.234375 -10.4375 2.890625 -10.4375 C 2.554688 -10.4375 2.273438 -10.550781 2.046875 -10.78125 C 1.816406 -11.007812 1.703125 -11.289062 1.703125 -11.625 Z M 1.703125 -11.625 "/></g></g></g><g fill="#cf577e" fill-opacity="1"><g transform="translate(300.497654, 234.79311)"><g><path d="M 3.96875 -2.515625 C 3.96875 -2.097656 3.976562 -1.765625 4 -1.515625 C 4.03125 -1.273438 4.085938 -1.085938 4.171875 -0.953125 C 4.265625 -0.828125 4.398438 -0.742188 4.578125 -0.703125 C 4.765625 -0.671875 5.007812 -0.644531 5.3125 -0.625 L 5.3125 0 L 0.453125 0 L 0.453125 -0.625 C 0.742188 -0.644531 0.976562 -0.671875 1.15625 -0.703125 C 1.34375 -0.742188 1.484375 -0.828125 1.578125 -0.953125 C 1.679688 -1.078125 1.75 -1.253906 1.78125 -1.484375 C 1.8125 -1.710938 1.828125 -2.019531 1.828125 -2.40625 L 1.828125 -4.34375 C 1.828125 -4.945312 1.816406 -5.4375 1.796875 -5.8125 C 1.773438 -6.1875 1.75 -6.441406 1.71875 -6.578125 C 1.6875 -6.710938 1.644531 -6.820312 1.59375 -6.90625 C 1.539062 -7 1.460938 -7.066406 1.359375 -7.109375 C 1.253906 -7.160156 1.125 -7.191406 0.96875 -7.203125 C 0.8125 -7.222656 0.617188 -7.234375 0.390625 -7.234375 L 0.390625 -7.75 L 3.375 -8.34375 L 3.5625 -6.984375 L 3.625 -6.984375 C 3.96875 -7.421875 4.367188 -7.753906 4.828125 -7.984375 C 5.296875 -8.222656 5.804688 -8.34375 6.359375 -8.34375 C 7.023438 -8.34375 7.5625 -8.25 7.96875 -8.0625 C 8.375 -7.882812 8.738281 -7.585938 9.0625 -7.171875 C 9.226562 -6.929688 9.378906 -6.625 9.515625 -6.25 C 9.648438 -5.875 9.71875 -5.359375 9.71875 -4.703125 L 9.71875 -2.515625 C 9.71875 -2.097656 9.726562 -1.765625 9.75 -1.515625 C 9.78125 -1.273438 9.835938 -1.085938 9.921875 -0.953125 C 10.015625 -0.828125 10.144531 -0.742188 10.3125 -0.703125 C 10.488281 -0.671875 10.726562 -0.644531 11.03125 -0.625 L 11.03125 0 L 6.203125 0 L 6.203125 -0.625 C 6.503906 -0.632812 6.742188 -0.660156 6.921875 -0.703125 C 7.109375 -0.742188 7.25 -0.828125 7.34375 -0.953125 C 7.4375 -1.078125 7.5 -1.253906 7.53125 -1.484375 C 7.5625 -1.722656 7.578125 -2.03125 7.578125 -2.40625 L 7.578125 -4.515625 C 7.578125 -5.035156 7.546875 -5.472656 7.484375 -5.828125 C 7.421875 -6.191406 7.316406 -6.484375 7.171875 -6.703125 C 7.035156 -6.929688 6.851562 -7.09375 6.625 -7.1875 C 6.40625 -7.289062 6.125 -7.34375 5.78125 -7.34375 C 5.445312 -7.34375 5.160156 -7.25 4.921875 -7.0625 C 4.691406 -6.875 4.488281 -6.617188 4.3125 -6.296875 C 4.21875 -6.109375 4.132812 -5.863281 4.0625 -5.5625 C 4 -5.269531 3.96875 -4.96875 3.96875 -4.65625 Z M 3.96875 -2.515625 "/></g></g></g><g fill="#cf577e" fill-opacity="1"><g transform="translate(311.726321, 234.79311)"><g><path d="M 3.515625 -1.671875 C 3.796875 -1.648438 4.039062 -1.628906 4.25 -1.609375 C 4.46875 -1.585938 4.671875 -1.5625 4.859375 -1.53125 C 5.046875 -1.507812 5.234375 -1.484375 5.421875 -1.453125 C 5.617188 -1.429688 5.828125 -1.40625 6.046875 -1.375 C 6.847656 -1.257812 7.476562 -0.957031 7.9375 -0.46875 C 8.394531 0.0195312 8.625 0.625 8.625 1.34375 C 8.625 2.21875 8.257812 2.878906 7.53125 3.328125 C 6.8125 3.785156 5.753906 4.015625 4.359375 4.015625 C 3.066406 4.015625 2.070312 3.828125 1.375 3.453125 C 0.6875 3.078125 0.34375 2.546875 0.34375 1.859375 C 0.34375 1.316406 0.476562 0.910156 0.75 0.640625 C 1.03125 0.367188 1.382812 0.234375 1.8125 0.234375 C 2.070312 0.234375 2.328125 0.285156 2.578125 0.390625 C 2.835938 0.503906 3.054688 0.660156 3.234375 0.859375 C 2.960938 0.910156 2.738281 1.03125 2.5625 1.21875 C 2.394531 1.414062 2.3125 1.644531 2.3125 1.90625 C 2.3125 2.3125 2.492188 2.625 2.859375 2.84375 C 3.234375 3.070312 3.773438 3.1875 4.484375 3.1875 C 6.023438 3.1875 6.796875 2.695312 6.796875 1.71875 C 6.796875 1.363281 6.679688 1.0625 6.453125 0.8125 C 6.222656 0.5625 5.890625 0.410156 5.453125 0.359375 L 2.75 -0.015625 C 1.601562 -0.171875 1.03125 -0.679688 1.03125 -1.546875 C 1.03125 -1.960938 1.164062 -2.304688 1.4375 -2.578125 C 1.71875 -2.847656 2.109375 -3.035156 2.609375 -3.140625 L 2.609375 -3.203125 C 2.367188 -3.296875 2.15625 -3.421875 1.96875 -3.578125 C 1.78125 -3.742188 1.613281 -3.9375 1.46875 -4.15625 C 1.320312 -4.375 1.207031 -4.609375 1.125 -4.859375 C 1.050781 -5.109375 1.015625 -5.367188 1.015625 -5.640625 C 1.015625 -6.023438 1.09375 -6.382812 1.25 -6.71875 C 1.414062 -7.050781 1.640625 -7.332031 1.921875 -7.5625 C 2.203125 -7.800781 2.535156 -7.988281 2.921875 -8.125 C 3.316406 -8.269531 3.738281 -8.34375 4.1875 -8.34375 C 4.632812 -8.34375 5.066406 -8.273438 5.484375 -8.140625 C 5.910156 -8.003906 6.269531 -7.820312 6.5625 -7.59375 C 6.800781 -7.726562 7.007812 -7.84375 7.1875 -7.9375 C 7.363281 -8.039062 7.523438 -8.117188 7.671875 -8.171875 C 7.816406 -8.234375 7.953125 -8.273438 8.078125 -8.296875 C 8.203125 -8.328125 8.328125 -8.34375 8.453125 -8.34375 C 8.847656 -8.34375 9.164062 -8.253906 9.40625 -8.078125 C 9.644531 -7.898438 9.765625 -7.671875 9.765625 -7.390625 C 9.765625 -7.171875 9.695312 -6.988281 9.5625 -6.84375 C 9.425781 -6.707031 9.253906 -6.640625 9.046875 -6.640625 C 8.890625 -6.640625 8.765625 -6.671875 8.671875 -6.734375 C 8.578125 -6.804688 8.484375 -6.882812 8.390625 -6.96875 C 8.304688 -7.0625 8.21875 -7.140625 8.125 -7.203125 C 8.03125 -7.273438 7.90625 -7.3125 7.75 -7.3125 C 7.539062 -7.3125 7.335938 -7.171875 7.140625 -6.890625 C 7.242188 -6.710938 7.316406 -6.523438 7.359375 -6.328125 C 7.398438 -6.128906 7.421875 -5.894531 7.421875 -5.625 C 7.421875 -5.226562 7.359375 -4.863281 7.234375 -4.53125 C 7.109375 -4.207031 6.914062 -3.921875 6.65625 -3.671875 C 6.394531 -3.421875 6.054688 -3.207031 5.640625 -3.03125 C 5.222656 -2.851562 4.722656 -2.734375 4.140625 -2.671875 C 3.648438 -2.617188 3.304688 -2.550781 3.109375 -2.46875 C 2.921875 -2.382812 2.828125 -2.265625 2.828125 -2.109375 C 2.828125 -1.859375 3.054688 -1.710938 3.515625 -1.671875 Z M 4.265625 -3.546875 C 4.597656 -3.546875 4.851562 -3.722656 5.03125 -4.078125 C 5.21875 -4.429688 5.3125 -4.921875 5.3125 -5.546875 C 5.3125 -6.179688 5.21875 -6.671875 5.03125 -7.015625 C 4.851562 -7.367188 4.59375 -7.546875 4.25 -7.546875 C 3.894531 -7.546875 3.613281 -7.367188 3.40625 -7.015625 C 3.207031 -6.660156 3.109375 -6.179688 3.109375 -5.578125 C 3.109375 -4.960938 3.210938 -4.46875 3.421875 -4.09375 C 3.628906 -3.726562 3.910156 -3.546875 4.265625 -3.546875 Z M 4.265625 -3.546875 "/></g></g></g><g fill="#cf577e" fill-opacity="1"><g transform="translate(321.008852, 234.79311)"><g><path d="M 0.828125 -0.984375 C 0.828125 -1.316406 0.9375 -1.597656 1.15625 -1.828125 C 1.382812 -2.054688 1.664062 -2.171875 2 -2.171875 C 2.332031 -2.171875 2.613281 -2.054688 2.84375 -1.828125 C 3.070312 -1.597656 3.1875 -1.316406 3.1875 -0.984375 C 3.1875 -0.671875 3.070312 -0.398438 2.84375 -0.171875 C 2.613281 0.046875 2.332031 0.15625 2 0.15625 C 1.664062 0.15625 1.382812 0.046875 1.15625 -0.171875 C 0.9375 -0.398438 0.828125 -0.671875 0.828125 -0.984375 Z M 0.828125 -0.984375 "/></g></g></g><path stroke-linecap="round" transform="matrix(0.75, 0, 0, 0.75, 215.346259, 134.766524)" fill="none" stroke-linejoin="miter" d="M 2.001863 1.998802 L 14.51228 1.998802 " stroke="#efa73a" stroke-width="4" stroke-opacity="1" stroke-miterlimit="4"/><g fill="#1e3151" fill-opacity="1"><g transform="translate(198.611243, 172.9178)"><g><path d="M 29.46875 -0.71875 C 29.582031 -0.71875 29.640625 -0.597656 29.640625 -0.359375 C 29.640625 -0.117188 29.582031 0 29.46875 0 C 28.4375 0 27.628906 -0.0195312 27.046875 -0.0625 L 23.484375 -0.125 L 18.921875 -0.0625 C 18.242188 -0.0195312 17.332031 0 16.1875 0 C 16.070312 0 16.015625 -0.117188 16.015625 -0.359375 C 16.015625 -0.597656 16.070312 -0.71875 16.1875 -0.71875 C 17.613281 -0.71875 18.328125 -1.128906 18.328125 -1.953125 C 18.328125 -2.390625 18.164062 -2.785156 17.84375 -3.140625 L 11.09375 -11.796875 L 9.96875 -10.796875 L 9.96875 -4.796875 C 9.96875 -3.222656 10.191406 -2.148438 10.640625 -1.578125 C 11.097656 -1.003906 11.9375 -0.71875 13.15625 -0.71875 C 13.320312 -0.71875 13.40625 -0.597656 13.40625 -0.359375 C 13.40625 -0.117188 13.320312 0 13.15625 0 C 12.132812 0 11.304688 -0.0195312 10.671875 -0.0625 L 7.234375 -0.125 L 3.671875 -0.0625 C 3.078125 -0.0195312 2.269531 0 1.25 0 C 1.164062 0 1.125 -0.117188 1.125 -0.359375 C 1.125 -0.597656 1.164062 -0.71875 1.25 -0.71875 C 2.46875 -0.71875 3.304688 -1.003906 3.765625 -1.578125 C 4.222656 -2.148438 4.453125 -3.222656 4.453125 -4.796875 L 4.453125 -34.921875 C 4.453125 -36.304688 4.320312 -37.296875 4.0625 -37.890625 C 3.800781 -38.484375 3.359375 -38.78125 2.734375 -38.78125 C 2.171875 -38.78125 1.414062 -38.5625 0.46875 -38.125 L 0.421875 -38.125 C 0.296875 -38.125 0.179688 -38.234375 0.078125 -38.453125 C -0.015625 -38.671875 -0.0195312 -38.800781 0.0625 -38.84375 L 8.71875 -42.9375 L 9.015625 -42.984375 C 9.210938 -42.984375 9.421875 -42.894531 9.640625 -42.71875 C 9.859375 -42.539062 9.96875 -42.375 9.96875 -42.21875 L 9.96875 -12.15625 L 15.46875 -17.5 C 16.5 -18.445312 17.015625 -19.410156 17.015625 -20.390625 C 17.015625 -20.910156 16.816406 -21.335938 16.421875 -21.671875 C 16.023438 -22.003906 15.472656 -22.171875 14.765625 -22.171875 C 14.679688 -22.171875 14.640625 -22.289062 14.640625 -22.53125 C 14.640625 -22.769531 14.679688 -22.890625 14.765625 -22.890625 C 15.910156 -22.890625 16.800781 -22.867188 17.4375 -22.828125 L 22.125 -22.765625 L 26.453125 -22.828125 C 27.003906 -22.867188 27.773438 -22.890625 28.765625 -22.890625 C 28.878906 -22.890625 28.9375 -22.769531 28.9375 -22.53125 C 28.9375 -22.289062 28.878906 -22.171875 28.765625 -22.171875 C 27.054688 -22.171875 25.101562 -21.742188 22.90625 -20.890625 C 20.71875 -20.046875 18.753906 -18.816406 17.015625 -17.203125 L 14.890625 -15.234375 L 23 -4.796875 C 24.15625 -3.378906 25.253906 -2.34375 26.296875 -1.6875 C 27.347656 -1.039062 28.40625 -0.71875 29.46875 -0.71875 Z M 29.46875 -0.71875 "/></g></g></g><path stroke-linecap="round" transform="matrix(-0.634336, 0.400147, -0.400147, -0.634336, 226.35021, 121.704455)" fill="none" stroke-linejoin="miter" d="M 1.998783 2.001915 L 15.947266 2.000985 " stroke="#efa73a" stroke-width="4" stroke-opacity="1" stroke-miterlimit="4"/></svg>