<svg xmlns="http://www.w3.org/2000/svg" xmlns:xlink="http://www.w3.org/1999/xlink" width="76" zoomAndPan="magnify" viewBox="0 0 56.879997 31.5" height="42" preserveAspectRatio="xMidYMid meet" version="1.0"><defs><g/><clipPath id="e9bcd2b064"><path d="M 0.0859375 2 L 5 2 L 5 8 L 0.0859375 8 Z M 0.0859375 2 " clip-rule="nonzero"/></clipPath><clipPath id="7831e66c2f"><path d="M 4 3 L 10 3 L 10 9.484375 L 4 9.484375 Z M 4 3 " clip-rule="nonzero"/></clipPath><clipPath id="80c56f899a"><path d="M 24 2 L 28.910156 2 L 28.910156 8 L 24 8 Z M 24 2 " clip-rule="nonzero"/></clipPath><clipPath id="08be85bf37"><rect x="0" width="29" y="0" height="10"/></clipPath><clipPath id="ea10acf7f1"><path d="M 36 3 L 41.582031 3 L 41.582031 8 L 36 8 Z M 36 3 " clip-rule="nonzero"/></clipPath><clipPath id="9a0f4b6901"><rect x="0" width="42" y="0" height="10"/></clipPath><clipPath id="d9f516d060"><path d="M 17 0.199219 L 27 0.199219 L 27 8 L 17 8 Z M 17 0.199219 " clip-rule="nonzero"/></clipPath><clipPath id="12a8419153"><path d="M 23 0.199219 L 25 0.199219 L 25 4 L 23 4 Z M 23 0.199219 " clip-rule="nonzero"/></clipPath><clipPath id="d90b4d414b"><path d="M 0 17 L 42.761719 17 L 42.761719 20.75 L 0 20.75 Z M 0 17 " clip-rule="nonzero"/></clipPath><clipPath id="d2ee4f9a6b"><path d="M 0.238281 1 L 2 1 L 2 3.75 L 0.238281 3.75 Z M 0.238281 1 " clip-rule="nonzero"/></clipPath><clipPath id="4774bd4343"><path d="M 2 1 L 5 1 L 5 3.75 L 2 3.75 Z M 2 1 " clip-rule="nonzero"/></clipPath><clipPath id="8563c6aed3"><path d="M 4 1 L 6 1 L 6 3.75 L 4 3.75 Z M 4 1 " clip-rule="nonzero"/></clipPath><clipPath id="e95df69363"><path d="M 5 1 L 8 1 L 8 3.75 L 5 3.75 Z M 5 1 " clip-rule="nonzero"/></clipPath><clipPath id="5d4b69118e"><path d="M 7 1 L 8 1 L 8 3.75 L 7 3.75 Z M 7 1 " clip-rule="nonzero"/></clipPath><clipPath id="71d4354078"><path d="M 8 3 L 9 3 L 9 3.75 L 8 3.75 Z M 8 3 " clip-rule="nonzero"/></clipPath><clipPath id="1039126c6c"><path d="M 8 1 L 12 1 L 12 3.75 L 8 3.75 Z M 8 1 " clip-rule="nonzero"/></clipPath><clipPath id="58532255e2"><path d="M 11 1 L 13 1 L 13 3.75 L 11 3.75 Z M 11 1 " clip-rule="nonzero"/></clipPath><clipPath id="f41d0a660b"><path d="M 12 1 L 14 1 L 14 3.75 L 12 3.75 Z M 12 1 " clip-rule="nonzero"/></clipPath><clipPath id="71f88cda0a"><path d="M 13 1 L 15 1 L 15 3.75 L 13 3.75 Z M 13 1 " clip-rule="nonzero"/></clipPath><clipPath id="2b76143685"><path d="M 14 1 L 17 1 L 17 3.75 L 14 3.75 Z M 14 1 " clip-rule="nonzero"/></clipPath><clipPath id="82850b47ec"><path d="M 16 1 L 20 1 L 20 3.75 L 16 3.75 Z M 16 1 " clip-rule="nonzero"/></clipPath><clipPath id="59a29c418d"><path d="M 19 1 L 21 1 L 21 3.75 L 19 3.75 Z M 19 1 " clip-rule="nonzero"/></clipPath><clipPath id="665d0d0686"><path d="M 20 1 L 23 1 L 23 3.75 L 20 3.75 Z M 20 1 " clip-rule="nonzero"/></clipPath><clipPath id="568f0967ab"><path d="M 22 1 L 23 1 L 23 3.75 L 22 3.75 Z M 22 1 " clip-rule="nonzero"/></clipPath><clipPath id="4b1138f369"><path d="M 23 1 L 25 1 L 25 3.75 L 23 3.75 Z M 23 1 " clip-rule="nonzero"/></clipPath><clipPath id="e1f292b1c0"><path d="M 24 1 L 27 1 L 27 3.75 L 24 3.75 Z M 24 1 " clip-rule="nonzero"/></clipPath><clipPath id="2ebae9cfd2"><path d="M 26 2 L 27 2 L 27 3.75 L 26 3.75 Z M 26 2 " clip-rule="nonzero"/></clipPath><clipPath id="b31a8623d8"><path d="M 26 3 L 27 3 L 27 3.75 L 26 3.75 Z M 26 3 " clip-rule="nonzero"/></clipPath><clipPath id="637ad88cdb"><path d="M 27 1 L 30 1 L 30 3.75 L 27 3.75 Z M 27 1 " clip-rule="nonzero"/></clipPath><clipPath id="05916dbbad"><path d="M 29 1 L 32 1 L 32 3.75 L 29 3.75 Z M 29 1 " clip-rule="nonzero"/></clipPath><clipPath id="fe670bdf35"><path d="M 31 3 L 32 3 L 32 3.75 L 31 3.75 Z M 31 3 " clip-rule="nonzero"/></clipPath><clipPath id="81044a2606"><path d="M 31 1 L 34 1 L 34 3.75 L 31 3.75 Z M 31 1 " clip-rule="nonzero"/></clipPath><clipPath id="65579fd18c"><path d="M 33 1 L 36 1 L 36 3.75 L 33 3.75 Z M 33 1 " clip-rule="nonzero"/></clipPath><clipPath id="6da64be281"><path d="M 35 1 L 37 1 L 37 3.75 L 35 3.75 Z M 35 1 " clip-rule="nonzero"/></clipPath><clipPath id="fd319ce07f"><path d="M 36 1 L 38 1 L 38 3.75 L 36 3.75 Z M 36 1 " clip-rule="nonzero"/></clipPath><clipPath id="d5e9b491c7"><path d="M 37 1 L 39 1 L 39 3.75 L 37 3.75 Z M 37 1 " clip-rule="nonzero"/></clipPath><clipPath id="0577a44e3c"><path d="M 38 1 L 41 1 L 41 3.75 L 38 3.75 Z M 38 1 " clip-rule="nonzero"/></clipPath><clipPath id="a8b8ce1c07"><path d="M 40 1 L 42 1 L 42 3.75 L 40 3.75 Z M 40 1 " clip-rule="nonzero"/></clipPath><clipPath id="f9887cc5af"><path d="M 42 2 L 42.761719 2 L 42.761719 3.75 L 42 3.75 Z M 42 2 " clip-rule="nonzero"/></clipPath><clipPath id="d58114f572"><rect x="0" width="43" y="0" height="4"/></clipPath><clipPath id="220809f3fc"><path d="M 1 1 L 5.878906 1 L 5.878906 9 L 1 9 Z M 1 1 " clip-rule="nonzero"/></clipPath><clipPath id="3d78e60d94"><rect x="0" width="6" y="0" height="12"/></clipPath><clipPath id="0013ae55bb"><path d="M 21 0.199219 L 32 0.199219 L 32 8 L 21 8 Z M 21 0.199219 " clip-rule="nonzero"/></clipPath><clipPath id="e15d832822"><rect x="0" width="43" y="0" height="21"/></clipPath></defs><g transform="matrix(1, 0, 0, 1, 7, 5)"><g clip-path="url(#e15d832822)"><g transform="matrix(1, 0, 0, 1, 7, 3)"><g clip-path="url(#08be85bf37)"><g clip-path="url(#e9bcd2b064)"><g fill="#1e3151" fill-opacity="1"><g transform="translate(0.226738, 7.561063)"><g><path d="M 0.359375 -1.6875 L 0.609375 -1.6875 C 0.671875 -1.269531 0.835938 -0.941406 1.109375 -0.703125 C 1.390625 -0.460938 1.734375 -0.34375 2.140625 -0.34375 C 2.296875 -0.34375 2.441406 -0.359375 2.578125 -0.390625 C 2.722656 -0.429688 2.84375 -0.488281 2.9375 -0.5625 C 3.03125 -0.632812 3.101562 -0.71875 3.15625 -0.8125 C 3.207031 -0.914062 3.234375 -1.03125 3.234375 -1.15625 C 3.234375 -1.257812 3.21875 -1.347656 3.1875 -1.421875 C 3.15625 -1.503906 3.09375 -1.582031 3 -1.65625 C 2.90625 -1.726562 2.773438 -1.800781 2.609375 -1.875 C 2.453125 -1.957031 2.25 -2.046875 2 -2.140625 C 1.476562 -2.335938 1.09375 -2.566406 0.84375 -2.828125 C 0.601562 -3.085938 0.484375 -3.398438 0.484375 -3.765625 C 0.484375 -3.972656 0.519531 -4.160156 0.59375 -4.328125 C 0.675781 -4.503906 0.785156 -4.65625 0.921875 -4.78125 C 1.066406 -4.90625 1.238281 -5 1.4375 -5.0625 C 1.644531 -5.132812 1.867188 -5.171875 2.109375 -5.171875 C 2.335938 -5.171875 2.550781 -5.132812 2.75 -5.0625 C 2.945312 -4.988281 3.144531 -4.882812 3.34375 -4.75 L 3.453125 -5.078125 L 3.625 -5.078125 L 3.6875 -3.640625 L 3.4375 -3.640625 C 3.320312 -4.003906 3.148438 -4.28125 2.921875 -4.46875 C 2.703125 -4.664062 2.445312 -4.765625 2.15625 -4.765625 C 1.882812 -4.765625 1.660156 -4.695312 1.484375 -4.5625 C 1.316406 -4.425781 1.234375 -4.253906 1.234375 -4.046875 C 1.234375 -3.953125 1.25 -3.867188 1.28125 -3.796875 C 1.3125 -3.722656 1.367188 -3.648438 1.453125 -3.578125 C 1.535156 -3.515625 1.648438 -3.445312 1.796875 -3.375 C 1.941406 -3.3125 2.128906 -3.238281 2.359375 -3.15625 C 2.671875 -3.03125 2.9375 -2.90625 3.15625 -2.78125 C 3.375 -2.664062 3.550781 -2.535156 3.6875 -2.390625 C 3.820312 -2.253906 3.921875 -2.109375 3.984375 -1.953125 C 4.054688 -1.804688 4.09375 -1.640625 4.09375 -1.453125 C 4.09375 -1.222656 4.039062 -1.015625 3.9375 -0.828125 C 3.84375 -0.648438 3.707031 -0.492188 3.53125 -0.359375 C 3.363281 -0.222656 3.160156 -0.117188 2.921875 -0.046875 C 2.679688 0.0234375 2.414062 0.0625 2.125 0.0625 C 1.851562 0.0625 1.613281 0.0234375 1.40625 -0.046875 C 1.195312 -0.117188 0.976562 -0.234375 0.75 -0.390625 L 0.609375 0 L 0.453125 0 Z M 0.359375 -1.6875 "/></g></g></g></g><g clip-path="url(#7831e66c2f)"><g fill="#1e3151" fill-opacity="1"><g transform="translate(4.640747, 7.561063)"><g><path d="M 1.4375 -3.078125 L 1.46875 -3.078125 C 1.757812 -3.410156 2.140625 -3.578125 2.609375 -3.578125 C 2.867188 -3.578125 3.101562 -3.53125 3.3125 -3.4375 C 3.53125 -3.351562 3.71875 -3.226562 3.875 -3.0625 C 4.03125 -2.90625 4.148438 -2.710938 4.234375 -2.484375 C 4.316406 -2.265625 4.359375 -2.019531 4.359375 -1.75 C 4.359375 -1.488281 4.316406 -1.25 4.234375 -1.03125 C 4.148438 -0.8125 4.03125 -0.617188 3.875 -0.453125 C 3.71875 -0.285156 3.53125 -0.15625 3.3125 -0.0625 C 3.101562 0.0195312 2.875 0.0625 2.625 0.0625 C 2.195312 0.0625 1.867188 -0.0820312 1.640625 -0.375 L 1.609375 -0.375 L 1.609375 0.546875 C 1.609375 0.722656 1.617188 0.863281 1.640625 0.96875 C 1.660156 1.082031 1.695312 1.164062 1.75 1.21875 C 1.8125 1.28125 1.894531 1.320312 2 1.34375 C 2.101562 1.363281 2.238281 1.375 2.40625 1.375 L 2.40625 1.65625 L 0.125 1.65625 L 0.125 1.375 C 0.25 1.375 0.347656 1.363281 0.421875 1.34375 C 0.492188 1.320312 0.550781 1.28125 0.59375 1.21875 C 0.632812 1.164062 0.660156 1.085938 0.671875 0.984375 C 0.691406 0.878906 0.703125 0.75 0.703125 0.59375 L 0.703125 -1.875 C 0.703125 -2.070312 0.695312 -2.257812 0.6875 -2.4375 C 0.675781 -2.625 0.664062 -2.753906 0.65625 -2.828125 C 0.632812 -2.929688 0.582031 -3.003906 0.5 -3.046875 C 0.425781 -3.085938 0.296875 -3.109375 0.109375 -3.109375 L 0.109375 -3.359375 L 1.4375 -3.546875 Z M 2.578125 -3.203125 C 2.429688 -3.203125 2.289062 -3.171875 2.15625 -3.109375 C 2.03125 -3.046875 1.929688 -2.960938 1.859375 -2.859375 C 1.785156 -2.753906 1.726562 -2.625 1.6875 -2.46875 C 1.644531 -2.320312 1.625 -2.160156 1.625 -1.984375 L 1.625 -1.53125 C 1.625 -1.21875 1.703125 -0.953125 1.859375 -0.734375 C 2.023438 -0.492188 2.265625 -0.375 2.578125 -0.375 C 2.835938 -0.375 3.03125 -0.484375 3.15625 -0.703125 C 3.289062 -0.929688 3.359375 -1.28125 3.359375 -1.75 C 3.359375 -2.71875 3.097656 -3.203125 2.578125 -3.203125 Z M 2.578125 -3.203125 "/></g></g></g></g><g fill="#1e3151" fill-opacity="1"><g transform="translate(9.326497, 7.561063)"><g><path d="M 2.28125 -1.890625 C 1.90625 -1.722656 1.625 -1.566406 1.4375 -1.421875 C 1.25 -1.273438 1.15625 -1.125 1.15625 -0.96875 C 1.15625 -0.84375 1.191406 -0.742188 1.265625 -0.671875 C 1.335938 -0.597656 1.425781 -0.5625 1.53125 -0.5625 C 1.632812 -0.5625 1.734375 -0.578125 1.828125 -0.609375 C 1.921875 -0.648438 2 -0.703125 2.0625 -0.765625 C 2.132812 -0.828125 2.1875 -0.898438 2.21875 -0.984375 C 2.257812 -1.066406 2.28125 -1.160156 2.28125 -1.265625 Z M 2.28125 -2.234375 L 2.28125 -2.515625 C 2.28125 -2.773438 2.234375 -2.960938 2.140625 -3.078125 C 2.046875 -3.191406 1.90625 -3.25 1.71875 -3.25 C 1.59375 -3.25 1.492188 -3.210938 1.421875 -3.140625 C 1.359375 -3.078125 1.300781 -2.96875 1.25 -2.8125 C 1.207031 -2.695312 1.148438 -2.609375 1.078125 -2.546875 C 1.003906 -2.484375 0.90625 -2.453125 0.78125 -2.453125 C 0.65625 -2.453125 0.554688 -2.488281 0.484375 -2.5625 C 0.421875 -2.644531 0.390625 -2.753906 0.390625 -2.890625 C 0.390625 -3.097656 0.503906 -3.265625 0.734375 -3.390625 C 0.972656 -3.515625 1.320312 -3.578125 1.78125 -3.578125 C 2.28125 -3.578125 2.632812 -3.488281 2.84375 -3.3125 C 3.0625 -3.132812 3.171875 -2.832031 3.171875 -2.40625 L 3.171875 -0.953125 C 3.171875 -0.578125 3.242188 -0.390625 3.390625 -0.390625 C 3.472656 -0.390625 3.550781 -0.421875 3.625 -0.484375 L 3.71875 -0.296875 C 3.65625 -0.179688 3.554688 -0.09375 3.421875 -0.03125 C 3.296875 0.03125 3.15625 0.0625 3 0.0625 C 2.789062 0.0625 2.632812 0 2.53125 -0.125 C 2.425781 -0.25 2.375 -0.421875 2.375 -0.640625 L 2.34375 -0.640625 C 2.207031 -0.410156 2.035156 -0.234375 1.828125 -0.109375 C 1.628906 0.00390625 1.398438 0.0625 1.140625 0.0625 C 0.867188 0.0625 0.644531 -0.015625 0.46875 -0.171875 C 0.300781 -0.328125 0.21875 -0.53125 0.21875 -0.78125 C 0.21875 -0.976562 0.300781 -1.160156 0.46875 -1.328125 C 0.644531 -1.503906 0.9375 -1.671875 1.34375 -1.828125 Z M 2.28125 -2.234375 "/></g></g></g><g fill="#1e3151" fill-opacity="1"><g transform="translate(13.197051, 7.561063)"><g><path d="M 1.703125 -1.03125 C 1.703125 -0.851562 1.707031 -0.710938 1.71875 -0.609375 C 1.738281 -0.515625 1.773438 -0.441406 1.828125 -0.390625 C 1.878906 -0.335938 1.945312 -0.300781 2.03125 -0.28125 C 2.125 -0.269531 2.25 -0.265625 2.40625 -0.265625 L 2.40625 0 L 0.203125 0 L 0.203125 -0.265625 C 0.328125 -0.273438 0.429688 -0.285156 0.515625 -0.296875 C 0.597656 -0.316406 0.65625 -0.351562 0.6875 -0.40625 C 0.726562 -0.457031 0.753906 -0.53125 0.765625 -0.625 C 0.773438 -0.726562 0.78125 -0.867188 0.78125 -1.046875 L 0.78125 -1.84375 C 0.78125 -2.125 0.773438 -2.34375 0.765625 -2.5 C 0.753906 -2.664062 0.722656 -2.789062 0.671875 -2.875 C 0.628906 -2.96875 0.566406 -3.023438 0.484375 -3.046875 C 0.410156 -3.078125 0.304688 -3.09375 0.171875 -3.09375 L 0.171875 -3.328125 L 1.5 -3.578125 L 1.609375 -2.8125 L 1.625 -2.8125 C 1.75 -3.050781 1.90625 -3.238281 2.09375 -3.375 C 2.289062 -3.507812 2.5 -3.578125 2.71875 -3.578125 C 2.882812 -3.578125 3.019531 -3.535156 3.125 -3.453125 C 3.226562 -3.367188 3.28125 -3.265625 3.28125 -3.140625 C 3.28125 -2.992188 3.238281 -2.867188 3.15625 -2.765625 C 3.082031 -2.671875 2.972656 -2.625 2.828125 -2.625 C 2.765625 -2.625 2.707031 -2.632812 2.65625 -2.65625 C 2.601562 -2.6875 2.550781 -2.71875 2.5 -2.75 C 2.457031 -2.789062 2.414062 -2.820312 2.375 -2.84375 C 2.332031 -2.875 2.289062 -2.890625 2.25 -2.890625 C 2.164062 -2.890625 2.085938 -2.832031 2.015625 -2.71875 C 1.941406 -2.613281 1.878906 -2.46875 1.828125 -2.28125 C 1.796875 -2.15625 1.765625 -2.007812 1.734375 -1.84375 C 1.710938 -1.675781 1.703125 -1.507812 1.703125 -1.34375 Z M 1.703125 -1.03125 "/></g></g></g><g fill="#1e3151" fill-opacity="1"><g transform="translate(16.445933, 7.561063)"><g/></g></g><g fill="#1e3151" fill-opacity="1"><g transform="translate(18.27518, 7.561063)"><g/></g></g><g fill="#1e3151" fill-opacity="1"><g transform="translate(20.106017, 7.561063)"><g><path d="M 3.578125 -0.609375 C 3.171875 -0.160156 2.671875 0.0625 2.078125 0.0625 C 1.796875 0.0625 1.546875 0.0195312 1.328125 -0.0625 C 1.109375 -0.144531 0.914062 -0.265625 0.75 -0.421875 C 0.59375 -0.578125 0.46875 -0.765625 0.375 -0.984375 C 0.289062 -1.203125 0.25 -1.441406 0.25 -1.703125 C 0.25 -1.984375 0.296875 -2.234375 0.390625 -2.453125 C 0.484375 -2.679688 0.613281 -2.878906 0.78125 -3.046875 C 0.957031 -3.210938 1.160156 -3.34375 1.390625 -3.4375 C 1.617188 -3.53125 1.875 -3.578125 2.15625 -3.578125 C 2.625 -3.578125 2.988281 -3.453125 3.25 -3.203125 C 3.507812 -2.953125 3.640625 -2.597656 3.640625 -2.140625 C 3.640625 -2.066406 3.628906 -2.019531 3.609375 -2 C 3.585938 -1.988281 3.523438 -1.984375 3.421875 -1.984375 L 1.28125 -1.984375 C 1.269531 -1.941406 1.265625 -1.867188 1.265625 -1.765625 C 1.265625 -1.335938 1.359375 -0.992188 1.546875 -0.734375 C 1.734375 -0.484375 1.988281 -0.359375 2.3125 -0.359375 C 2.488281 -0.359375 2.671875 -0.398438 2.859375 -0.484375 C 3.046875 -0.566406 3.222656 -0.6875 3.390625 -0.84375 Z M 2.296875 -2.359375 C 2.472656 -2.359375 2.582031 -2.367188 2.625 -2.390625 C 2.675781 -2.410156 2.703125 -2.457031 2.703125 -2.53125 C 2.703125 -2.726562 2.644531 -2.882812 2.53125 -3 C 2.425781 -3.125 2.289062 -3.1875 2.125 -3.1875 C 1.9375 -3.1875 1.765625 -3.109375 1.609375 -2.953125 C 1.460938 -2.796875 1.367188 -2.597656 1.328125 -2.359375 Z M 2.296875 -2.359375 "/></g></g></g><g clip-path="url(#80c56f899a)"><g fill="#1e3151" fill-opacity="1"><g transform="translate(24.049474, 7.561063)"><g><path d="M 3.1875 -0.421875 L 3.15625 -0.421875 C 2.851562 -0.0976562 2.457031 0.0625 1.96875 0.0625 C 1.71875 0.0625 1.488281 0.0195312 1.28125 -0.0625 C 1.070312 -0.15625 0.890625 -0.28125 0.734375 -0.4375 C 0.585938 -0.59375 0.472656 -0.78125 0.390625 -1 C 0.304688 -1.21875 0.265625 -1.460938 0.265625 -1.734375 C 0.265625 -1.992188 0.304688 -2.234375 0.390625 -2.453125 C 0.472656 -2.679688 0.585938 -2.878906 0.734375 -3.046875 C 0.878906 -3.210938 1.054688 -3.34375 1.265625 -3.4375 C 1.472656 -3.53125 1.695312 -3.578125 1.9375 -3.578125 C 2.15625 -3.578125 2.347656 -3.539062 2.515625 -3.46875 C 2.691406 -3.40625 2.84375 -3.296875 2.96875 -3.140625 L 3 -3.140625 L 3 -3.703125 C 3 -3.960938 2.992188 -4.1875 2.984375 -4.375 C 2.972656 -4.5625 2.960938 -4.6875 2.953125 -4.75 C 2.929688 -4.832031 2.863281 -4.894531 2.75 -4.9375 C 2.632812 -4.988281 2.460938 -5.015625 2.234375 -5.015625 L 2.234375 -5.234375 L 3.90625 -5.5 L 3.90625 -1.703125 C 3.90625 -1.378906 3.90625 -1.125 3.90625 -0.9375 C 3.914062 -0.757812 3.929688 -0.625 3.953125 -0.53125 C 3.960938 -0.476562 3.972656 -0.429688 3.984375 -0.390625 C 4.003906 -0.359375 4.03125 -0.332031 4.0625 -0.3125 C 4.101562 -0.289062 4.15625 -0.273438 4.21875 -0.265625 C 4.28125 -0.265625 4.359375 -0.265625 4.453125 -0.265625 L 4.453125 0 L 3.1875 0.0625 Z M 2.984375 -1.90625 C 2.984375 -2.070312 2.960938 -2.222656 2.921875 -2.359375 C 2.890625 -2.503906 2.835938 -2.632812 2.765625 -2.75 C 2.691406 -2.875 2.59375 -2.96875 2.46875 -3.03125 C 2.34375 -3.101562 2.207031 -3.140625 2.0625 -3.140625 C 1.800781 -3.140625 1.601562 -3.019531 1.46875 -2.78125 C 1.332031 -2.539062 1.265625 -2.195312 1.265625 -1.75 C 1.265625 -1.28125 1.332031 -0.921875 1.46875 -0.671875 C 1.601562 -0.429688 1.800781 -0.3125 2.0625 -0.3125 C 2.207031 -0.3125 2.34375 -0.347656 2.46875 -0.421875 C 2.601562 -0.492188 2.710938 -0.597656 2.796875 -0.734375 C 2.859375 -0.828125 2.90625 -0.945312 2.9375 -1.09375 C 2.96875 -1.238281 2.984375 -1.421875 2.984375 -1.640625 Z M 2.984375 -1.90625 "/></g></g></g></g></g></g><g transform="matrix(1, 0, 0, 1, -0.000000000000001776, 9)"><g clip-path="url(#9a0f4b6901)"><g fill="#1e3151" fill-opacity="1"><g transform="translate(0.202163, 7.241591)"><g><path d="M 4.6875 -5.09375 L 5.015625 -5.09375 L 4.875 -3.421875 L 4.609375 -3.421875 C 4.515625 -3.828125 4.332031 -4.144531 4.0625 -4.375 C 3.800781 -4.613281 3.476562 -4.734375 3.09375 -4.734375 C 2.832031 -4.734375 2.597656 -4.679688 2.390625 -4.578125 C 2.191406 -4.472656 2.023438 -4.320312 1.890625 -4.125 C 1.753906 -3.9375 1.648438 -3.703125 1.578125 -3.421875 C 1.503906 -3.148438 1.46875 -2.84375 1.46875 -2.5 C 1.46875 -1.820312 1.609375 -1.296875 1.890625 -0.921875 C 2.171875 -0.554688 2.582031 -0.375 3.125 -0.375 C 3.570312 -0.375 3.9375 -0.492188 4.21875 -0.734375 C 4.507812 -0.972656 4.71875 -1.328125 4.84375 -1.796875 L 5.140625 -1.796875 L 5.140625 0 L 4.828125 0 L 4.734375 -0.515625 C 4.242188 -0.128906 3.65625 0.0625 2.96875 0.0625 C 2.5625 0.0625 2.191406 0.00390625 1.859375 -0.109375 C 1.535156 -0.234375 1.257812 -0.40625 1.03125 -0.625 C 0.800781 -0.84375 0.625 -1.109375 0.5 -1.421875 C 0.375 -1.734375 0.3125 -2.082031 0.3125 -2.46875 C 0.3125 -2.863281 0.375 -3.226562 0.5 -3.5625 C 0.632812 -3.894531 0.820312 -4.179688 1.0625 -4.421875 C 1.3125 -4.660156 1.601562 -4.84375 1.9375 -4.96875 C 2.269531 -5.101562 2.640625 -5.171875 3.046875 -5.171875 C 3.304688 -5.171875 3.550781 -5.128906 3.78125 -5.046875 C 4.019531 -4.972656 4.28125 -4.851562 4.5625 -4.6875 Z M 4.6875 -5.09375 "/></g></g></g><g fill="#1e3151" fill-opacity="1"><g transform="translate(5.656696, 7.241591)"><g><path d="M 2.171875 -3.578125 C 2.441406 -3.578125 2.691406 -3.53125 2.921875 -3.4375 C 3.160156 -3.351562 3.367188 -3.226562 3.546875 -3.0625 C 3.722656 -2.90625 3.863281 -2.71875 3.96875 -2.5 C 4.070312 -2.28125 4.125 -2.039062 4.125 -1.78125 C 4.125 -1.507812 4.070312 -1.257812 3.96875 -1.03125 C 3.863281 -0.8125 3.722656 -0.617188 3.546875 -0.453125 C 3.367188 -0.296875 3.160156 -0.171875 2.921875 -0.078125 C 2.691406 0.015625 2.441406 0.0625 2.171875 0.0625 C 1.910156 0.0625 1.660156 0.0195312 1.421875 -0.0625 C 1.191406 -0.15625 0.988281 -0.285156 0.8125 -0.453125 C 0.632812 -0.617188 0.492188 -0.8125 0.390625 -1.03125 C 0.296875 -1.257812 0.25 -1.507812 0.25 -1.78125 C 0.25 -2.039062 0.296875 -2.28125 0.390625 -2.5 C 0.492188 -2.71875 0.632812 -2.90625 0.8125 -3.0625 C 0.988281 -3.226562 1.191406 -3.351562 1.421875 -3.4375 C 1.660156 -3.53125 1.910156 -3.578125 2.171875 -3.578125 Z M 2.171875 -3.1875 C 2.035156 -3.1875 1.910156 -3.148438 1.796875 -3.078125 C 1.691406 -3.015625 1.597656 -2.921875 1.515625 -2.796875 C 1.441406 -2.671875 1.382812 -2.519531 1.34375 -2.34375 C 1.300781 -2.175781 1.28125 -1.988281 1.28125 -1.78125 C 1.28125 -1.550781 1.300781 -1.347656 1.34375 -1.171875 C 1.382812 -1.003906 1.441406 -0.859375 1.515625 -0.734375 C 1.597656 -0.609375 1.691406 -0.507812 1.796875 -0.4375 C 1.910156 -0.375 2.035156 -0.34375 2.171875 -0.34375 C 2.304688 -0.34375 2.429688 -0.375 2.546875 -0.4375 C 2.660156 -0.507812 2.753906 -0.609375 2.828125 -0.734375 C 2.910156 -0.859375 2.972656 -1.007812 3.015625 -1.1875 C 3.066406 -1.363281 3.09375 -1.5625 3.09375 -1.78125 C 3.09375 -1.988281 3.066406 -2.175781 3.015625 -2.34375 C 2.972656 -2.519531 2.910156 -2.671875 2.828125 -2.796875 C 2.753906 -2.921875 2.660156 -3.015625 2.546875 -3.078125 C 2.429688 -3.148438 2.304688 -3.1875 2.171875 -3.1875 Z M 2.171875 -3.1875 "/></g></g></g><g fill="#1e3151" fill-opacity="1"><g transform="translate(10.030927, 7.241591)"><g><path d="M 1.703125 -1.078125 C 1.703125 -0.898438 1.707031 -0.757812 1.71875 -0.65625 C 1.726562 -0.550781 1.75 -0.46875 1.78125 -0.40625 C 1.820312 -0.351562 1.878906 -0.316406 1.953125 -0.296875 C 2.035156 -0.285156 2.144531 -0.273438 2.28125 -0.265625 L 2.28125 0 L 0.1875 0 L 0.1875 -0.265625 C 0.320312 -0.273438 0.425781 -0.285156 0.5 -0.296875 C 0.570312 -0.316406 0.628906 -0.351562 0.671875 -0.40625 C 0.710938 -0.457031 0.738281 -0.53125 0.75 -0.625 C 0.769531 -0.726562 0.78125 -0.863281 0.78125 -1.03125 L 0.78125 -1.859375 C 0.78125 -2.117188 0.773438 -2.328125 0.765625 -2.484375 C 0.753906 -2.648438 0.742188 -2.765625 0.734375 -2.828125 C 0.722656 -2.878906 0.707031 -2.921875 0.6875 -2.953125 C 0.664062 -2.992188 0.628906 -3.023438 0.578125 -3.046875 C 0.535156 -3.066406 0.476562 -3.078125 0.40625 -3.078125 C 0.34375 -3.085938 0.265625 -3.09375 0.171875 -3.09375 L 0.171875 -3.328125 L 1.4375 -3.578125 L 1.53125 -3 L 1.5625 -3 C 1.707031 -3.175781 1.878906 -3.316406 2.078125 -3.421875 C 2.273438 -3.523438 2.492188 -3.578125 2.734375 -3.578125 C 3.015625 -3.578125 3.238281 -3.535156 3.40625 -3.453125 C 3.582031 -3.378906 3.738281 -3.253906 3.875 -3.078125 C 3.957031 -2.972656 4.023438 -2.835938 4.078125 -2.671875 C 4.140625 -2.515625 4.171875 -2.296875 4.171875 -2.015625 L 4.171875 -1.078125 C 4.171875 -0.898438 4.175781 -0.757812 4.1875 -0.65625 C 4.195312 -0.550781 4.21875 -0.46875 4.25 -0.40625 C 4.289062 -0.351562 4.347656 -0.316406 4.421875 -0.296875 C 4.492188 -0.285156 4.597656 -0.273438 4.734375 -0.265625 L 4.734375 0 L 2.65625 0 L 2.65625 -0.265625 C 2.789062 -0.265625 2.894531 -0.273438 2.96875 -0.296875 C 3.050781 -0.316406 3.109375 -0.351562 3.140625 -0.40625 C 3.179688 -0.457031 3.207031 -0.53125 3.21875 -0.625 C 3.238281 -0.726562 3.25 -0.863281 3.25 -1.03125 L 3.25 -1.9375 C 3.25 -2.15625 3.234375 -2.34375 3.203125 -2.5 C 3.179688 -2.65625 3.140625 -2.78125 3.078125 -2.875 C 3.015625 -2.96875 2.9375 -3.035156 2.84375 -3.078125 C 2.75 -3.117188 2.628906 -3.140625 2.484375 -3.140625 C 2.335938 -3.140625 2.210938 -3.097656 2.109375 -3.015625 C 2.015625 -2.941406 1.925781 -2.835938 1.84375 -2.703125 C 1.800781 -2.617188 1.765625 -2.515625 1.734375 -2.390625 C 1.710938 -2.265625 1.703125 -2.132812 1.703125 -2 Z M 1.703125 -1.078125 "/></g></g></g><g fill="#1e3151" fill-opacity="1"><g transform="translate(14.849208, 7.241591)"><g><path d="M 1.703125 -1.078125 C 1.703125 -0.898438 1.707031 -0.757812 1.71875 -0.65625 C 1.726562 -0.550781 1.75 -0.46875 1.78125 -0.40625 C 1.820312 -0.351562 1.878906 -0.316406 1.953125 -0.296875 C 2.035156 -0.285156 2.144531 -0.273438 2.28125 -0.265625 L 2.28125 0 L 0.1875 0 L 0.1875 -0.265625 C 0.320312 -0.273438 0.425781 -0.285156 0.5 -0.296875 C 0.570312 -0.316406 0.628906 -0.351562 0.671875 -0.40625 C 0.710938 -0.457031 0.738281 -0.53125 0.75 -0.625 C 0.769531 -0.726562 0.78125 -0.863281 0.78125 -1.03125 L 0.78125 -1.859375 C 0.78125 -2.117188 0.773438 -2.328125 0.765625 -2.484375 C 0.753906 -2.648438 0.742188 -2.765625 0.734375 -2.828125 C 0.722656 -2.878906 0.707031 -2.921875 0.6875 -2.953125 C 0.664062 -2.992188 0.628906 -3.023438 0.578125 -3.046875 C 0.535156 -3.066406 0.476562 -3.078125 0.40625 -3.078125 C 0.34375 -3.085938 0.265625 -3.09375 0.171875 -3.09375 L 0.171875 -3.328125 L 1.4375 -3.578125 L 1.53125 -3 L 1.5625 -3 C 1.707031 -3.175781 1.878906 -3.316406 2.078125 -3.421875 C 2.273438 -3.523438 2.492188 -3.578125 2.734375 -3.578125 C 3.015625 -3.578125 3.238281 -3.535156 3.40625 -3.453125 C 3.582031 -3.378906 3.738281 -3.253906 3.875 -3.078125 C 3.957031 -2.972656 4.023438 -2.835938 4.078125 -2.671875 C 4.140625 -2.515625 4.171875 -2.296875 4.171875 -2.015625 L 4.171875 -1.078125 C 4.171875 -0.898438 4.175781 -0.757812 4.1875 -0.65625 C 4.195312 -0.550781 4.21875 -0.46875 4.25 -0.40625 C 4.289062 -0.351562 4.347656 -0.316406 4.421875 -0.296875 C 4.492188 -0.285156 4.597656 -0.273438 4.734375 -0.265625 L 4.734375 0 L 2.65625 0 L 2.65625 -0.265625 C 2.789062 -0.265625 2.894531 -0.273438 2.96875 -0.296875 C 3.050781 -0.316406 3.109375 -0.351562 3.140625 -0.40625 C 3.179688 -0.457031 3.207031 -0.53125 3.21875 -0.625 C 3.238281 -0.726562 3.25 -0.863281 3.25 -1.03125 L 3.25 -1.9375 C 3.25 -2.15625 3.234375 -2.34375 3.203125 -2.5 C 3.179688 -2.65625 3.140625 -2.78125 3.078125 -2.875 C 3.015625 -2.96875 2.9375 -3.035156 2.84375 -3.078125 C 2.75 -3.117188 2.628906 -3.140625 2.484375 -3.140625 C 2.335938 -3.140625 2.210938 -3.097656 2.109375 -3.015625 C 2.015625 -2.941406 1.925781 -2.835938 1.84375 -2.703125 C 1.800781 -2.617188 1.765625 -2.515625 1.734375 -2.390625 C 1.710938 -2.265625 1.703125 -2.132812 1.703125 -2 Z M 1.703125 -1.078125 "/></g></g></g><g fill="#1e3151" fill-opacity="1"><g transform="translate(19.66749, 7.241591)"><g><path d="M 3.578125 -0.609375 C 3.171875 -0.160156 2.671875 0.0625 2.078125 0.0625 C 1.796875 0.0625 1.546875 0.0195312 1.328125 -0.0625 C 1.109375 -0.144531 0.914062 -0.265625 0.75 -0.421875 C 0.59375 -0.578125 0.46875 -0.765625 0.375 -0.984375 C 0.289062 -1.203125 0.25 -1.441406 0.25 -1.703125 C 0.25 -1.984375 0.296875 -2.234375 0.390625 -2.453125 C 0.484375 -2.679688 0.613281 -2.878906 0.78125 -3.046875 C 0.957031 -3.210938 1.160156 -3.34375 1.390625 -3.4375 C 1.617188 -3.53125 1.875 -3.578125 2.15625 -3.578125 C 2.625 -3.578125 2.988281 -3.453125 3.25 -3.203125 C 3.507812 -2.953125 3.640625 -2.597656 3.640625 -2.140625 C 3.640625 -2.066406 3.628906 -2.019531 3.609375 -2 C 3.585938 -1.988281 3.523438 -1.984375 3.421875 -1.984375 L 1.28125 -1.984375 C 1.269531 -1.941406 1.265625 -1.867188 1.265625 -1.765625 C 1.265625 -1.335938 1.359375 -0.992188 1.546875 -0.734375 C 1.734375 -0.484375 1.988281 -0.359375 2.3125 -0.359375 C 2.488281 -0.359375 2.671875 -0.398438 2.859375 -0.484375 C 3.046875 -0.566406 3.222656 -0.6875 3.390625 -0.84375 Z M 2.296875 -2.359375 C 2.472656 -2.359375 2.582031 -2.367188 2.625 -2.390625 C 2.675781 -2.410156 2.703125 -2.457031 2.703125 -2.53125 C 2.703125 -2.726562 2.644531 -2.882812 2.53125 -3 C 2.425781 -3.125 2.289062 -3.1875 2.125 -3.1875 C 1.9375 -3.1875 1.765625 -3.109375 1.609375 -2.953125 C 1.460938 -2.796875 1.367188 -2.597656 1.328125 -2.359375 Z M 2.296875 -2.359375 "/></g></g></g><g fill="#1e3151" fill-opacity="1"><g transform="translate(23.544649, 7.241591)"><g><path d="M 3.5 -0.546875 C 3.332031 -0.359375 3.125 -0.210938 2.875 -0.109375 C 2.625 -0.015625 2.351562 0.03125 2.0625 0.03125 C 1.789062 0.03125 1.546875 -0.0078125 1.328125 -0.09375 C 1.109375 -0.175781 0.914062 -0.296875 0.75 -0.453125 C 0.59375 -0.609375 0.472656 -0.796875 0.390625 -1.015625 C 0.304688 -1.234375 0.265625 -1.476562 0.265625 -1.75 C 0.265625 -2.019531 0.304688 -2.265625 0.390625 -2.484375 C 0.484375 -2.710938 0.613281 -2.90625 0.78125 -3.0625 C 0.957031 -3.226562 1.160156 -3.351562 1.390625 -3.4375 C 1.628906 -3.53125 1.890625 -3.578125 2.171875 -3.578125 C 2.367188 -3.578125 2.550781 -3.554688 2.71875 -3.515625 C 2.882812 -3.472656 3.03125 -3.414062 3.15625 -3.34375 C 3.28125 -3.28125 3.375 -3.203125 3.4375 -3.109375 C 3.507812 -3.015625 3.546875 -2.910156 3.546875 -2.796875 C 3.546875 -2.671875 3.507812 -2.566406 3.4375 -2.484375 C 3.363281 -2.410156 3.265625 -2.375 3.140625 -2.375 C 3.046875 -2.375 2.957031 -2.398438 2.875 -2.453125 C 2.800781 -2.503906 2.726562 -2.59375 2.65625 -2.71875 C 2.582031 -2.820312 2.519531 -2.90625 2.46875 -2.96875 C 2.425781 -3.03125 2.382812 -3.078125 2.34375 -3.109375 C 2.3125 -3.140625 2.273438 -3.160156 2.234375 -3.171875 C 2.191406 -3.179688 2.144531 -3.1875 2.09375 -3.1875 C 1.832031 -3.1875 1.628906 -3.066406 1.484375 -2.828125 C 1.347656 -2.597656 1.28125 -2.265625 1.28125 -1.828125 C 1.28125 -1.367188 1.363281 -1.015625 1.53125 -0.765625 C 1.695312 -0.523438 1.941406 -0.40625 2.265625 -0.40625 C 2.441406 -0.40625 2.617188 -0.4375 2.796875 -0.5 C 2.984375 -0.570312 3.160156 -0.671875 3.328125 -0.796875 Z M 3.5 -0.546875 "/></g></g></g><g fill="#1e3151" fill-opacity="1"><g transform="translate(27.282628, 7.241591)"><g><path d="M 0.171875 -3.140625 L 0.171875 -3.4375 C 0.429688 -3.519531 0.648438 -3.632812 0.828125 -3.78125 C 1.003906 -3.9375 1.140625 -4.113281 1.234375 -4.3125 L 1.5625 -4.3125 L 1.5625 -3.515625 L 2.328125 -3.515625 L 2.328125 -3.140625 L 1.5625 -3.140625 L 1.5625 -1.109375 C 1.5625 -0.835938 1.59375 -0.644531 1.65625 -0.53125 C 1.71875 -0.414062 1.820312 -0.359375 1.96875 -0.359375 C 2.132812 -0.359375 2.265625 -0.4375 2.359375 -0.59375 L 2.484375 -0.40625 C 2.367188 -0.09375 2.078125 0.0625 1.609375 0.0625 C 1.304688 0.0625 1.070312 -0.00390625 0.90625 -0.140625 C 0.738281 -0.285156 0.65625 -0.484375 0.65625 -0.734375 L 0.65625 -3.140625 Z M 0.171875 -3.140625 "/></g></g></g><g fill="#1e3151" fill-opacity="1"><g transform="translate(29.81438, 7.241591)"><g><path d="M 1.703125 -1.09375 C 1.703125 -0.914062 1.707031 -0.769531 1.71875 -0.65625 C 1.738281 -0.550781 1.765625 -0.46875 1.796875 -0.40625 C 1.835938 -0.351562 1.894531 -0.316406 1.96875 -0.296875 C 2.050781 -0.273438 2.15625 -0.265625 2.28125 -0.265625 L 2.28125 0 L 0.1875 0 L 0.1875 -0.265625 C 0.3125 -0.265625 0.410156 -0.273438 0.484375 -0.296875 C 0.566406 -0.328125 0.628906 -0.367188 0.671875 -0.421875 C 0.710938 -0.484375 0.738281 -0.5625 0.75 -0.65625 C 0.769531 -0.757812 0.78125 -0.890625 0.78125 -1.046875 L 0.78125 -1.859375 C 0.78125 -2.109375 0.773438 -2.316406 0.765625 -2.484375 C 0.753906 -2.648438 0.742188 -2.765625 0.734375 -2.828125 C 0.710938 -2.941406 0.660156 -3.015625 0.578125 -3.046875 C 0.503906 -3.078125 0.367188 -3.09375 0.171875 -3.09375 L 0.171875 -3.328125 L 1.703125 -3.578125 Z M 0.734375 -4.984375 C 0.734375 -5.128906 0.78125 -5.25 0.875 -5.34375 C 0.976562 -5.445312 1.097656 -5.5 1.234375 -5.5 C 1.378906 -5.5 1.5 -5.445312 1.59375 -5.34375 C 1.695312 -5.25 1.75 -5.128906 1.75 -4.984375 C 1.75 -4.835938 1.695312 -4.710938 1.59375 -4.609375 C 1.5 -4.515625 1.378906 -4.46875 1.234375 -4.46875 C 1.097656 -4.46875 0.976562 -4.515625 0.875 -4.609375 C 0.78125 -4.710938 0.734375 -4.835938 0.734375 -4.984375 Z M 0.734375 -4.984375 "/></g></g></g><g fill="#1e3151" fill-opacity="1"><g transform="translate(32.206954, 7.241591)"><g><path d="M 2.171875 -3.578125 C 2.441406 -3.578125 2.691406 -3.53125 2.921875 -3.4375 C 3.160156 -3.351562 3.367188 -3.226562 3.546875 -3.0625 C 3.722656 -2.90625 3.863281 -2.71875 3.96875 -2.5 C 4.070312 -2.28125 4.125 -2.039062 4.125 -1.78125 C 4.125 -1.507812 4.070312 -1.257812 3.96875 -1.03125 C 3.863281 -0.8125 3.722656 -0.617188 3.546875 -0.453125 C 3.367188 -0.296875 3.160156 -0.171875 2.921875 -0.078125 C 2.691406 0.015625 2.441406 0.0625 2.171875 0.0625 C 1.910156 0.0625 1.660156 0.0195312 1.421875 -0.0625 C 1.191406 -0.15625 0.988281 -0.285156 0.8125 -0.453125 C 0.632812 -0.617188 0.492188 -0.8125 0.390625 -1.03125 C 0.296875 -1.257812 0.25 -1.507812 0.25 -1.78125 C 0.25 -2.039062 0.296875 -2.28125 0.390625 -2.5 C 0.492188 -2.71875 0.632812 -2.90625 0.8125 -3.0625 C 0.988281 -3.226562 1.191406 -3.351562 1.421875 -3.4375 C 1.660156 -3.53125 1.910156 -3.578125 2.171875 -3.578125 Z M 2.171875 -3.1875 C 2.035156 -3.1875 1.910156 -3.148438 1.796875 -3.078125 C 1.691406 -3.015625 1.597656 -2.921875 1.515625 -2.796875 C 1.441406 -2.671875 1.382812 -2.519531 1.34375 -2.34375 C 1.300781 -2.175781 1.28125 -1.988281 1.28125 -1.78125 C 1.28125 -1.550781 1.300781 -1.347656 1.34375 -1.171875 C 1.382812 -1.003906 1.441406 -0.859375 1.515625 -0.734375 C 1.597656 -0.609375 1.691406 -0.507812 1.796875 -0.4375 C 1.910156 -0.375 2.035156 -0.34375 2.171875 -0.34375 C 2.304688 -0.34375 2.429688 -0.375 2.546875 -0.4375 C 2.660156 -0.507812 2.753906 -0.609375 2.828125 -0.734375 C 2.910156 -0.859375 2.972656 -1.007812 3.015625 -1.1875 C 3.066406 -1.363281 3.09375 -1.5625 3.09375 -1.78125 C 3.09375 -1.988281 3.066406 -2.175781 3.015625 -2.34375 C 2.972656 -2.519531 2.910156 -2.671875 2.828125 -2.796875 C 2.753906 -2.921875 2.660156 -3.015625 2.546875 -3.078125 C 2.429688 -3.148438 2.304688 -3.1875 2.171875 -3.1875 Z M 2.171875 -3.1875 "/></g></g></g><g clip-path="url(#ea10acf7f1)"><g fill="#1e3151" fill-opacity="1"><g transform="translate(36.581183, 7.241591)"><g><path d="M 1.703125 -1.078125 C 1.703125 -0.898438 1.707031 -0.757812 1.71875 -0.65625 C 1.726562 -0.550781 1.75 -0.46875 1.78125 -0.40625 C 1.820312 -0.351562 1.878906 -0.316406 1.953125 -0.296875 C 2.035156 -0.285156 2.144531 -0.273438 2.28125 -0.265625 L 2.28125 0 L 0.1875 0 L 0.1875 -0.265625 C 0.320312 -0.273438 0.425781 -0.285156 0.5 -0.296875 C 0.570312 -0.316406 0.628906 -0.351562 0.671875 -0.40625 C 0.710938 -0.457031 0.738281 -0.53125 0.75 -0.625 C 0.769531 -0.726562 0.78125 -0.863281 0.78125 -1.03125 L 0.78125 -1.859375 C 0.78125 -2.117188 0.773438 -2.328125 0.765625 -2.484375 C 0.753906 -2.648438 0.742188 -2.765625 0.734375 -2.828125 C 0.722656 -2.878906 0.707031 -2.921875 0.6875 -2.953125 C 0.664062 -2.992188 0.628906 -3.023438 0.578125 -3.046875 C 0.535156 -3.066406 0.476562 -3.078125 0.40625 -3.078125 C 0.34375 -3.085938 0.265625 -3.09375 0.171875 -3.09375 L 0.171875 -3.328125 L 1.4375 -3.578125 L 1.53125 -3 L 1.5625 -3 C 1.707031 -3.175781 1.878906 -3.316406 2.078125 -3.421875 C 2.273438 -3.523438 2.492188 -3.578125 2.734375 -3.578125 C 3.015625 -3.578125 3.238281 -3.535156 3.40625 -3.453125 C 3.582031 -3.378906 3.738281 -3.253906 3.875 -3.078125 C 3.957031 -2.972656 4.023438 -2.835938 4.078125 -2.671875 C 4.140625 -2.515625 4.171875 -2.296875 4.171875 -2.015625 L 4.171875 -1.078125 C 4.171875 -0.898438 4.175781 -0.757812 4.1875 -0.65625 C 4.195312 -0.550781 4.21875 -0.46875 4.25 -0.40625 C 4.289062 -0.351562 4.347656 -0.316406 4.421875 -0.296875 C 4.492188 -0.285156 4.597656 -0.273438 4.734375 -0.265625 L 4.734375 0 L 2.65625 0 L 2.65625 -0.265625 C 2.789062 -0.265625 2.894531 -0.273438 2.96875 -0.296875 C 3.050781 -0.316406 3.109375 -0.351562 3.140625 -0.40625 C 3.179688 -0.457031 3.207031 -0.53125 3.21875 -0.625 C 3.238281 -0.726562 3.25 -0.863281 3.25 -1.03125 L 3.25 -1.9375 C 3.25 -2.15625 3.234375 -2.34375 3.203125 -2.5 C 3.179688 -2.65625 3.140625 -2.78125 3.078125 -2.875 C 3.015625 -2.96875 2.9375 -3.035156 2.84375 -3.078125 C 2.75 -3.117188 2.628906 -3.140625 2.484375 -3.140625 C 2.335938 -3.140625 2.210938 -3.097656 2.109375 -3.015625 C 2.015625 -2.941406 1.925781 -2.835938 1.84375 -2.703125 C 1.800781 -2.617188 1.765625 -2.515625 1.734375 -2.390625 C 1.710938 -2.265625 1.703125 -2.132812 1.703125 -2 Z M 1.703125 -1.078125 "/></g></g></g></g></g></g><path stroke-linecap="round" transform="matrix(0.74228, 0.00000000000000151, -0.00000000000000151, 0.74228, 19.804553, 4.594183)" fill="none" stroke-linejoin="miter" d="M 0.500119 0.499355 L 2.994544 0.499355 " stroke="#efa73a" stroke-width="1" stroke-opacity="1" stroke-miterlimit="4"/><g clip-path="url(#d9f516d060)"><path stroke-linecap="round" transform="matrix(0.607713, 0.426221, -0.426221, 0.607713, 21.670555, 2.040207)" fill="none" stroke-linejoin="miter" d="M 0.501558 0.501242 L 1.997978 0.499454 " stroke="#efa73a" stroke-width="1" stroke-opacity="1" stroke-miterlimit="4"/></g><g clip-path="url(#12a8419153)"><path stroke-linecap="round" transform="matrix(0, 0.74228, -0.74228, 0, 24.589643, 0.246776)" fill="none" stroke-linejoin="miter" d="M 0.499018 0.499667 L 3.382869 0.499667 " stroke="#efa73a" stroke-width="1" stroke-opacity="1" stroke-miterlimit="4"/></g><g clip-path="url(#d90b4d414b)"><g transform="matrix(1, 0, 0, 1, -0.000000000000002665, 17)"><g clip-path="url(#d58114f572)"><g clip-path="url(#d2ee4f9a6b)"><g fill="#cf577e" fill-opacity="1"><g transform="translate(0.38253, 3.049895)"><g><path d="M 0.125 -0.609375 L 0.21875 -0.609375 C 0.238281 -0.453125 0.296875 -0.332031 0.390625 -0.25 C 0.492188 -0.164062 0.617188 -0.125 0.765625 -0.125 C 0.816406 -0.125 0.867188 -0.128906 0.921875 -0.140625 C 0.972656 -0.148438 1.015625 -0.164062 1.046875 -0.1875 C 1.078125 -0.21875 1.101562 -0.25 1.125 -0.28125 C 1.144531 -0.320312 1.15625 -0.363281 1.15625 -0.40625 C 1.15625 -0.445312 1.148438 -0.476562 1.140625 -0.5 C 1.128906 -0.53125 1.101562 -0.554688 1.0625 -0.578125 C 1.03125 -0.609375 0.984375 -0.632812 0.921875 -0.65625 C 0.867188 -0.6875 0.796875 -0.722656 0.703125 -0.765625 C 0.523438 -0.835938 0.390625 -0.921875 0.296875 -1.015625 C 0.210938 -1.109375 0.171875 -1.21875 0.171875 -1.34375 C 0.171875 -1.414062 0.179688 -1.484375 0.203125 -1.546875 C 0.234375 -1.609375 0.273438 -1.660156 0.328125 -1.703125 C 0.378906 -1.742188 0.441406 -1.773438 0.515625 -1.796875 C 0.585938 -1.828125 0.664062 -1.84375 0.75 -1.84375 C 0.832031 -1.84375 0.90625 -1.828125 0.96875 -1.796875 C 1.039062 -1.773438 1.113281 -1.738281 1.1875 -1.6875 L 1.234375 -1.8125 L 1.28125 -1.8125 L 1.3125 -1.296875 L 1.21875 -1.296875 C 1.1875 -1.421875 1.128906 -1.519531 1.046875 -1.59375 C 0.960938 -1.664062 0.867188 -1.703125 0.765625 -1.703125 C 0.671875 -1.703125 0.59375 -1.675781 0.53125 -1.625 C 0.46875 -1.570312 0.4375 -1.507812 0.4375 -1.4375 C 0.4375 -1.40625 0.441406 -1.375 0.453125 -1.34375 C 0.460938 -1.320312 0.484375 -1.296875 0.515625 -1.265625 C 0.546875 -1.242188 0.585938 -1.222656 0.640625 -1.203125 C 0.691406 -1.179688 0.757812 -1.15625 0.84375 -1.125 C 0.945312 -1.082031 1.035156 -1.035156 1.109375 -0.984375 C 1.191406 -0.941406 1.257812 -0.894531 1.3125 -0.84375 C 1.363281 -0.800781 1.398438 -0.75 1.421875 -0.6875 C 1.441406 -0.632812 1.453125 -0.578125 1.453125 -0.515625 C 1.453125 -0.429688 1.4375 -0.359375 1.40625 -0.296875 C 1.375 -0.234375 1.328125 -0.175781 1.265625 -0.125 C 1.203125 -0.0820312 1.125 -0.046875 1.03125 -0.015625 C 0.945312 0.015625 0.851562 0.03125 0.75 0.03125 C 0.65625 0.03125 0.570312 0.0195312 0.5 0 C 0.425781 -0.03125 0.347656 -0.078125 0.265625 -0.140625 L 0.21875 0 L 0.15625 0 Z M 0.125 -0.609375 "/></g></g></g></g><g clip-path="url(#4774bd4343)"><g fill="#cf577e" fill-opacity="1"><g transform="translate(1.950318, 3.049895)"><g><path d="M 0.609375 -0.390625 C 0.609375 -0.328125 0.609375 -0.273438 0.609375 -0.234375 C 0.617188 -0.191406 0.628906 -0.160156 0.640625 -0.140625 C 0.648438 -0.128906 0.664062 -0.117188 0.6875 -0.109375 C 0.71875 -0.0976562 0.757812 -0.09375 0.8125 -0.09375 L 0.8125 0 L 0.0625 0 L 0.0625 -0.09375 C 0.113281 -0.09375 0.148438 -0.0976562 0.171875 -0.109375 C 0.203125 -0.117188 0.222656 -0.128906 0.234375 -0.140625 C 0.253906 -0.160156 0.265625 -0.1875 0.265625 -0.21875 C 0.273438 -0.257812 0.28125 -0.3125 0.28125 -0.375 L 0.28125 -0.65625 C 0.28125 -0.75 0.273438 -0.828125 0.265625 -0.890625 C 0.265625 -0.953125 0.265625 -0.992188 0.265625 -1.015625 C 0.253906 -1.035156 0.242188 -1.050781 0.234375 -1.0625 C 0.234375 -1.070312 0.222656 -1.078125 0.203125 -1.078125 C 0.191406 -1.085938 0.175781 -1.09375 0.15625 -1.09375 C 0.132812 -1.101562 0.101562 -1.109375 0.0625 -1.109375 L 0.0625 -1.1875 L 0.515625 -1.28125 L 0.546875 -1.0625 L 0.5625 -1.0625 C 0.625 -1.144531 0.6875 -1.203125 0.75 -1.234375 C 0.820312 -1.265625 0.898438 -1.28125 0.984375 -1.28125 C 1.085938 -1.28125 1.171875 -1.257812 1.234375 -1.21875 C 1.304688 -1.1875 1.363281 -1.132812 1.40625 -1.0625 C 1.46875 -1.125 1.535156 -1.175781 1.609375 -1.21875 C 1.691406 -1.257812 1.773438 -1.28125 1.859375 -1.28125 C 1.960938 -1.28125 2.046875 -1.265625 2.109375 -1.234375 C 2.179688 -1.210938 2.238281 -1.179688 2.28125 -1.140625 C 2.3125 -1.097656 2.332031 -1.046875 2.34375 -0.984375 C 2.363281 -0.929688 2.375 -0.851562 2.375 -0.75 L 2.375 -0.390625 C 2.375 -0.328125 2.375 -0.273438 2.375 -0.234375 C 2.375 -0.191406 2.378906 -0.160156 2.390625 -0.140625 C 2.410156 -0.128906 2.429688 -0.117188 2.453125 -0.109375 C 2.484375 -0.0976562 2.523438 -0.09375 2.578125 -0.09375 L 2.578125 0 L 1.828125 0 L 1.828125 -0.09375 C 1.878906 -0.09375 1.914062 -0.0976562 1.9375 -0.109375 C 1.96875 -0.117188 1.988281 -0.128906 2 -0.140625 C 2.019531 -0.160156 2.03125 -0.1875 2.03125 -0.21875 C 2.03125 -0.257812 2.03125 -0.3125 2.03125 -0.375 L 2.03125 -0.671875 C 2.03125 -0.753906 2.023438 -0.820312 2.015625 -0.875 C 2.015625 -0.9375 2.003906 -0.984375 1.984375 -1.015625 C 1.960938 -1.054688 1.929688 -1.082031 1.890625 -1.09375 C 1.859375 -1.113281 1.820312 -1.125 1.78125 -1.125 C 1.71875 -1.125 1.664062 -1.109375 1.625 -1.078125 C 1.59375 -1.054688 1.566406 -1.023438 1.546875 -0.984375 C 1.503906 -0.898438 1.484375 -0.804688 1.484375 -0.703125 L 1.484375 -0.390625 C 1.484375 -0.328125 1.484375 -0.273438 1.484375 -0.234375 C 1.492188 -0.191406 1.503906 -0.160156 1.515625 -0.140625 C 1.535156 -0.128906 1.554688 -0.117188 1.578125 -0.109375 C 1.609375 -0.0976562 1.648438 -0.09375 1.703125 -0.09375 L 1.703125 0 L 0.953125 0 L 0.953125 -0.09375 C 0.992188 -0.09375 1.03125 -0.0976562 1.0625 -0.109375 C 1.09375 -0.117188 1.113281 -0.128906 1.125 -0.140625 C 1.132812 -0.160156 1.140625 -0.1875 1.140625 -0.21875 C 1.148438 -0.257812 1.15625 -0.3125 1.15625 -0.375 L 1.15625 -0.671875 C 1.15625 -0.753906 1.148438 -0.820312 1.140625 -0.875 C 1.128906 -0.9375 1.113281 -0.984375 1.09375 -1.015625 C 1.070312 -1.054688 1.046875 -1.082031 1.015625 -1.09375 C 0.984375 -1.113281 0.941406 -1.125 0.890625 -1.125 C 0.835938 -1.125 0.789062 -1.109375 0.75 -1.078125 C 0.71875 -1.054688 0.691406 -1.023438 0.671875 -0.984375 C 0.648438 -0.941406 0.632812 -0.894531 0.625 -0.84375 C 0.613281 -0.800781 0.609375 -0.753906 0.609375 -0.703125 Z M 0.609375 -0.390625 "/></g></g></g></g><g clip-path="url(#8563c6aed3)"><g fill="#cf577e" fill-opacity="1"><g transform="translate(4.565663, 3.049895)"><g><path d="M 0.8125 -0.671875 C 0.675781 -0.609375 0.570312 -0.550781 0.5 -0.5 C 0.4375 -0.445312 0.40625 -0.394531 0.40625 -0.34375 C 0.40625 -0.300781 0.414062 -0.265625 0.4375 -0.234375 C 0.46875 -0.210938 0.503906 -0.203125 0.546875 -0.203125 C 0.585938 -0.203125 0.625 -0.207031 0.65625 -0.21875 C 0.6875 -0.226562 0.710938 -0.242188 0.734375 -0.265625 C 0.753906 -0.285156 0.769531 -0.3125 0.78125 -0.34375 C 0.800781 -0.375 0.8125 -0.410156 0.8125 -0.453125 Z M 0.8125 -0.796875 L 0.8125 -0.890625 C 0.8125 -0.984375 0.796875 -1.050781 0.765625 -1.09375 C 0.734375 -1.132812 0.679688 -1.15625 0.609375 -1.15625 C 0.566406 -1.15625 0.53125 -1.140625 0.5 -1.109375 C 0.476562 -1.085938 0.457031 -1.050781 0.4375 -1 C 0.425781 -0.957031 0.40625 -0.925781 0.375 -0.90625 C 0.351562 -0.882812 0.320312 -0.875 0.28125 -0.875 C 0.226562 -0.875 0.191406 -0.882812 0.171875 -0.90625 C 0.148438 -0.9375 0.140625 -0.976562 0.140625 -1.03125 C 0.140625 -1.101562 0.179688 -1.160156 0.265625 -1.203125 C 0.347656 -1.253906 0.472656 -1.28125 0.640625 -1.28125 C 0.816406 -1.28125 0.941406 -1.242188 1.015625 -1.171875 C 1.085938 -1.109375 1.125 -1.003906 1.125 -0.859375 L 1.125 -0.34375 C 1.125 -0.207031 1.148438 -0.140625 1.203125 -0.140625 C 1.234375 -0.140625 1.265625 -0.148438 1.296875 -0.171875 L 1.328125 -0.109375 C 1.304688 -0.0664062 1.269531 -0.03125 1.21875 0 C 1.175781 0.0195312 1.125 0.03125 1.0625 0.03125 C 0.988281 0.03125 0.929688 0.0078125 0.890625 -0.03125 C 0.859375 -0.0820312 0.84375 -0.148438 0.84375 -0.234375 L 0.828125 -0.234375 C 0.785156 -0.148438 0.726562 -0.0859375 0.65625 -0.046875 C 0.582031 -0.00390625 0.5 0.015625 0.40625 0.015625 C 0.3125 0.015625 0.234375 -0.0078125 0.171875 -0.0625 C 0.109375 -0.113281 0.078125 -0.1875 0.078125 -0.28125 C 0.078125 -0.351562 0.109375 -0.414062 0.171875 -0.46875 C 0.234375 -0.53125 0.335938 -0.59375 0.484375 -0.65625 Z M 0.8125 -0.796875 "/></g></g></g></g><g clip-path="url(#e95df69363)"><g fill="#cf577e" fill-opacity="1"><g transform="translate(5.922995, 3.049895)"><g><path d="M 0.609375 -0.359375 C 0.609375 -0.304688 0.609375 -0.257812 0.609375 -0.21875 C 0.617188 -0.1875 0.628906 -0.160156 0.640625 -0.140625 C 0.660156 -0.117188 0.6875 -0.101562 0.71875 -0.09375 C 0.757812 -0.09375 0.804688 -0.09375 0.859375 -0.09375 L 0.859375 0 L 0.078125 0 L 0.078125 -0.09375 C 0.117188 -0.09375 0.148438 -0.0976562 0.171875 -0.109375 C 0.203125 -0.117188 0.222656 -0.128906 0.234375 -0.140625 C 0.253906 -0.160156 0.265625 -0.1875 0.265625 -0.21875 C 0.273438 -0.257812 0.28125 -0.3125 0.28125 -0.375 L 0.28125 -0.65625 C 0.28125 -0.75 0.273438 -0.828125 0.265625 -0.890625 C 0.265625 -0.953125 0.253906 -1 0.234375 -1.03125 C 0.222656 -1.0625 0.203125 -1.082031 0.171875 -1.09375 C 0.140625 -1.101562 0.101562 -1.109375 0.0625 -1.109375 L 0.0625 -1.1875 L 0.53125 -1.28125 L 0.578125 -1 C 0.617188 -1.082031 0.675781 -1.148438 0.75 -1.203125 C 0.820312 -1.253906 0.894531 -1.28125 0.96875 -1.28125 C 1.03125 -1.28125 1.078125 -1.265625 1.109375 -1.234375 C 1.148438 -1.203125 1.171875 -1.160156 1.171875 -1.109375 C 1.171875 -1.066406 1.15625 -1.023438 1.125 -0.984375 C 1.09375 -0.953125 1.050781 -0.9375 1 -0.9375 C 0.976562 -0.9375 0.957031 -0.941406 0.9375 -0.953125 C 0.925781 -0.960938 0.910156 -0.972656 0.890625 -0.984375 C 0.878906 -0.992188 0.863281 -1.003906 0.84375 -1.015625 C 0.832031 -1.023438 0.816406 -1.03125 0.796875 -1.03125 C 0.765625 -1.03125 0.734375 -1.007812 0.703125 -0.96875 C 0.679688 -0.925781 0.664062 -0.875 0.65625 -0.8125 C 0.632812 -0.769531 0.617188 -0.71875 0.609375 -0.65625 C 0.609375 -0.59375 0.609375 -0.535156 0.609375 -0.484375 Z M 0.609375 -0.359375 "/></g></g></g></g><g clip-path="url(#5d4b69118e)"><g fill="#cf577e" fill-opacity="1"><g transform="translate(7.10061, 3.049895)"><g><path d="M 0.0625 -1.125 L 0.0625 -1.234375 C 0.15625 -1.253906 0.234375 -1.289062 0.296875 -1.34375 C 0.359375 -1.40625 0.40625 -1.46875 0.4375 -1.53125 L 0.5625 -1.53125 L 0.5625 -1.25 L 0.828125 -1.25 L 0.828125 -1.125 L 0.5625 -1.125 L 0.5625 -0.390625 C 0.5625 -0.296875 0.570312 -0.226562 0.59375 -0.1875 C 0.613281 -0.144531 0.648438 -0.125 0.703125 -0.125 C 0.765625 -0.125 0.8125 -0.15625 0.84375 -0.21875 L 0.890625 -0.140625 C 0.847656 -0.0234375 0.742188 0.03125 0.578125 0.03125 C 0.460938 0.03125 0.375 0.00390625 0.3125 -0.046875 C 0.257812 -0.0976562 0.234375 -0.171875 0.234375 -0.265625 L 0.234375 -1.125 Z M 0.0625 -1.125 "/></g></g></g></g><g clip-path="url(#71d4354078)"><g fill="#cf577e" fill-opacity="1"><g transform="translate(8.003922, 3.049895)"><g/></g></g></g><g clip-path="url(#1039126c6c)"><g fill="#cf577e" fill-opacity="1"><g transform="translate(8.632928, 3.049895)"><g><path d="M 1.375 -0.4375 L 1.921875 -1.8125 L 2.609375 -1.8125 L 2.609375 -1.71875 C 2.554688 -1.71875 2.515625 -1.710938 2.484375 -1.703125 C 2.453125 -1.691406 2.425781 -1.671875 2.40625 -1.640625 C 2.382812 -1.617188 2.367188 -1.582031 2.359375 -1.53125 C 2.359375 -1.488281 2.359375 -1.429688 2.359375 -1.359375 L 2.359375 -0.453125 C 2.359375 -0.367188 2.359375 -0.304688 2.359375 -0.265625 C 2.367188 -0.222656 2.382812 -0.1875 2.40625 -0.15625 C 2.425781 -0.132812 2.453125 -0.117188 2.484375 -0.109375 C 2.523438 -0.0976562 2.570312 -0.09375 2.625 -0.09375 L 2.625 0 L 1.75 0 L 1.75 -0.09375 C 1.800781 -0.09375 1.84375 -0.0976562 1.875 -0.109375 C 1.914062 -0.117188 1.945312 -0.132812 1.96875 -0.15625 C 1.988281 -0.175781 2 -0.207031 2 -0.25 C 2.007812 -0.300781 2.015625 -0.363281 2.015625 -0.4375 L 2.015625 -1.53125 L 2 -1.53125 L 1.375 0.03125 L 1.1875 0.03125 L 0.53125 -1.53125 L 0.53125 -0.453125 C 0.53125 -0.367188 0.53125 -0.304688 0.53125 -0.265625 C 0.539062 -0.222656 0.554688 -0.1875 0.578125 -0.15625 C 0.597656 -0.132812 0.625 -0.117188 0.65625 -0.109375 C 0.6875 -0.0976562 0.734375 -0.09375 0.796875 -0.09375 L 0.796875 0 L 0.078125 0 L 0.078125 -0.09375 C 0.128906 -0.09375 0.171875 -0.0976562 0.203125 -0.109375 C 0.242188 -0.117188 0.273438 -0.132812 0.296875 -0.15625 C 0.316406 -0.175781 0.328125 -0.207031 0.328125 -0.25 C 0.335938 -0.300781 0.34375 -0.363281 0.34375 -0.4375 L 0.34375 -1.375 C 0.34375 -1.445312 0.335938 -1.503906 0.328125 -1.546875 C 0.328125 -1.585938 0.316406 -1.617188 0.296875 -1.640625 C 0.285156 -1.671875 0.257812 -1.691406 0.21875 -1.703125 C 0.1875 -1.710938 0.144531 -1.71875 0.09375 -1.71875 L 0.09375 -1.8125 L 0.8125 -1.8125 L 1.359375 -0.4375 Z M 1.375 -0.4375 "/></g></g></g></g><g clip-path="url(#58532255e2)"><g fill="#cf577e" fill-opacity="1"><g transform="translate(11.340498, 3.049895)"><g><path d="M 0.8125 -0.671875 C 0.675781 -0.609375 0.570312 -0.550781 0.5 -0.5 C 0.4375 -0.445312 0.40625 -0.394531 0.40625 -0.34375 C 0.40625 -0.300781 0.414062 -0.265625 0.4375 -0.234375 C 0.46875 -0.210938 0.503906 -0.203125 0.546875 -0.203125 C 0.585938 -0.203125 0.625 -0.207031 0.65625 -0.21875 C 0.6875 -0.226562 0.710938 -0.242188 0.734375 -0.265625 C 0.753906 -0.285156 0.769531 -0.3125 0.78125 -0.34375 C 0.800781 -0.375 0.8125 -0.410156 0.8125 -0.453125 Z M 0.8125 -0.796875 L 0.8125 -0.890625 C 0.8125 -0.984375 0.796875 -1.050781 0.765625 -1.09375 C 0.734375 -1.132812 0.679688 -1.15625 0.609375 -1.15625 C 0.566406 -1.15625 0.53125 -1.140625 0.5 -1.109375 C 0.476562 -1.085938 0.457031 -1.050781 0.4375 -1 C 0.425781 -0.957031 0.40625 -0.925781 0.375 -0.90625 C 0.351562 -0.882812 0.320312 -0.875 0.28125 -0.875 C 0.226562 -0.875 0.191406 -0.882812 0.171875 -0.90625 C 0.148438 -0.9375 0.140625 -0.976562 0.140625 -1.03125 C 0.140625 -1.101562 0.179688 -1.160156 0.265625 -1.203125 C 0.347656 -1.253906 0.472656 -1.28125 0.640625 -1.28125 C 0.816406 -1.28125 0.941406 -1.242188 1.015625 -1.171875 C 1.085938 -1.109375 1.125 -1.003906 1.125 -0.859375 L 1.125 -0.34375 C 1.125 -0.207031 1.148438 -0.140625 1.203125 -0.140625 C 1.234375 -0.140625 1.265625 -0.148438 1.296875 -0.171875 L 1.328125 -0.109375 C 1.304688 -0.0664062 1.269531 -0.03125 1.21875 0 C 1.175781 0.0195312 1.125 0.03125 1.0625 0.03125 C 0.988281 0.03125 0.929688 0.0078125 0.890625 -0.03125 C 0.859375 -0.0820312 0.84375 -0.148438 0.84375 -0.234375 L 0.828125 -0.234375 C 0.785156 -0.148438 0.726562 -0.0859375 0.65625 -0.046875 C 0.582031 -0.00390625 0.5 0.015625 0.40625 0.015625 C 0.3125 0.015625 0.234375 -0.0078125 0.171875 -0.0625 C 0.109375 -0.113281 0.078125 -0.1875 0.078125 -0.28125 C 0.078125 -0.351562 0.109375 -0.414062 0.171875 -0.46875 C 0.234375 -0.53125 0.335938 -0.59375 0.484375 -0.65625 Z M 0.8125 -0.796875 "/></g></g></g></g><g clip-path="url(#f41d0a660b)"><g fill="#cf577e" fill-opacity="1"><g transform="translate(12.69783, 3.049895)"><g><path d="M 0.0625 -1.125 L 0.0625 -1.234375 C 0.15625 -1.253906 0.234375 -1.289062 0.296875 -1.34375 C 0.359375 -1.40625 0.40625 -1.46875 0.4375 -1.53125 L 0.5625 -1.53125 L 0.5625 -1.25 L 0.828125 -1.25 L 0.828125 -1.125 L 0.5625 -1.125 L 0.5625 -0.390625 C 0.5625 -0.296875 0.570312 -0.226562 0.59375 -0.1875 C 0.613281 -0.144531 0.648438 -0.125 0.703125 -0.125 C 0.765625 -0.125 0.8125 -0.15625 0.84375 -0.21875 L 0.890625 -0.140625 C 0.847656 -0.0234375 0.742188 0.03125 0.578125 0.03125 C 0.460938 0.03125 0.375 0.00390625 0.3125 -0.046875 C 0.257812 -0.0976562 0.234375 -0.171875 0.234375 -0.265625 L 0.234375 -1.125 Z M 0.0625 -1.125 "/></g></g></g></g><g clip-path="url(#71f88cda0a)"><g fill="#cf577e" fill-opacity="1"><g transform="translate(13.601141, 3.049895)"><g><path d="M 1.25 -0.203125 C 1.1875 -0.128906 1.109375 -0.0703125 1.015625 -0.03125 C 0.929688 0 0.835938 0.015625 0.734375 0.015625 C 0.640625 0.015625 0.550781 0 0.46875 -0.03125 C 0.394531 -0.0625 0.328125 -0.101562 0.265625 -0.15625 C 0.210938 -0.21875 0.171875 -0.285156 0.140625 -0.359375 C 0.109375 -0.441406 0.09375 -0.53125 0.09375 -0.625 C 0.09375 -0.71875 0.109375 -0.800781 0.140625 -0.875 C 0.171875 -0.957031 0.21875 -1.03125 0.28125 -1.09375 C 0.34375 -1.15625 0.414062 -1.203125 0.5 -1.234375 C 0.582031 -1.265625 0.671875 -1.28125 0.765625 -1.28125 C 0.835938 -1.28125 0.90625 -1.269531 0.96875 -1.25 C 1.03125 -1.238281 1.082031 -1.21875 1.125 -1.1875 C 1.164062 -1.164062 1.195312 -1.132812 1.21875 -1.09375 C 1.25 -1.0625 1.265625 -1.03125 1.265625 -1 C 1.265625 -0.945312 1.25 -0.90625 1.21875 -0.875 C 1.195312 -0.851562 1.164062 -0.84375 1.125 -0.84375 C 1.082031 -0.84375 1.046875 -0.851562 1.015625 -0.875 C 0.992188 -0.894531 0.96875 -0.925781 0.9375 -0.96875 C 0.914062 -1.007812 0.894531 -1.039062 0.875 -1.0625 C 0.863281 -1.082031 0.847656 -1.097656 0.828125 -1.109375 C 0.816406 -1.117188 0.804688 -1.125 0.796875 -1.125 C 0.785156 -1.132812 0.769531 -1.140625 0.75 -1.140625 C 0.65625 -1.140625 0.582031 -1.09375 0.53125 -1 C 0.476562 -0.914062 0.453125 -0.800781 0.453125 -0.65625 C 0.453125 -0.488281 0.484375 -0.359375 0.546875 -0.265625 C 0.609375 -0.179688 0.695312 -0.140625 0.8125 -0.140625 C 0.875 -0.140625 0.9375 -0.148438 1 -0.171875 C 1.0625 -0.203125 1.125 -0.238281 1.1875 -0.28125 Z M 1.25 -0.203125 "/></g></g></g></g><g clip-path="url(#2b76143685)"><g fill="#cf577e" fill-opacity="1"><g transform="translate(14.934827, 3.049895)"><g><path d="M 0.578125 -0.390625 C 0.578125 -0.328125 0.578125 -0.273438 0.578125 -0.234375 C 0.585938 -0.191406 0.597656 -0.160156 0.609375 -0.140625 C 0.617188 -0.128906 0.632812 -0.117188 0.65625 -0.109375 C 0.6875 -0.0976562 0.726562 -0.09375 0.78125 -0.09375 L 0.78125 0 L 0.03125 0 L 0.03125 -0.09375 C 0.0820312 -0.09375 0.117188 -0.0976562 0.140625 -0.109375 C 0.171875 -0.117188 0.191406 -0.128906 0.203125 -0.140625 C 0.222656 -0.160156 0.234375 -0.1875 0.234375 -0.21875 C 0.242188 -0.257812 0.25 -0.3125 0.25 -0.375 L 0.25 -1.34375 C 0.25 -1.4375 0.242188 -1.507812 0.234375 -1.5625 C 0.234375 -1.613281 0.234375 -1.65625 0.234375 -1.6875 C 0.222656 -1.707031 0.210938 -1.722656 0.203125 -1.734375 C 0.203125 -1.742188 0.195312 -1.753906 0.1875 -1.765625 C 0.175781 -1.773438 0.15625 -1.78125 0.125 -1.78125 C 0.101562 -1.78125 0.078125 -1.78125 0.046875 -1.78125 L 0.046875 -1.875 L 0.578125 -1.953125 L 0.578125 -1.09375 C 0.628906 -1.15625 0.679688 -1.203125 0.734375 -1.234375 C 0.796875 -1.265625 0.875 -1.28125 0.96875 -1.28125 C 1.113281 -1.28125 1.234375 -1.226562 1.328125 -1.125 C 1.359375 -1.082031 1.382812 -1.023438 1.40625 -0.953125 C 1.4375 -0.890625 1.453125 -0.820312 1.453125 -0.75 L 1.453125 -0.390625 C 1.453125 -0.316406 1.453125 -0.257812 1.453125 -0.21875 C 1.460938 -0.1875 1.472656 -0.160156 1.484375 -0.140625 C 1.492188 -0.128906 1.507812 -0.117188 1.53125 -0.109375 C 1.5625 -0.0976562 1.601562 -0.09375 1.65625 -0.09375 L 1.65625 0 L 0.921875 0 L 0.921875 -0.09375 C 0.960938 -0.09375 0.992188 -0.0976562 1.015625 -0.109375 C 1.046875 -0.117188 1.066406 -0.128906 1.078125 -0.140625 C 1.097656 -0.160156 1.109375 -0.1875 1.109375 -0.21875 C 1.117188 -0.257812 1.125 -0.3125 1.125 -0.375 L 1.125 -0.65625 C 1.125 -0.820312 1.101562 -0.941406 1.0625 -1.015625 C 1.03125 -1.085938 0.972656 -1.125 0.890625 -1.125 C 0.796875 -1.125 0.71875 -1.085938 0.65625 -1.015625 C 0.632812 -0.972656 0.613281 -0.925781 0.59375 -0.875 C 0.582031 -0.820312 0.578125 -0.765625 0.578125 -0.703125 Z M 0.578125 -0.390625 "/></g></g></g></g><g clip-path="url(#82850b47ec)"><g fill="#cf577e" fill-opacity="1"><g transform="translate(16.623214, 3.049895)"><g><path d="M 0.609375 -0.390625 C 0.609375 -0.328125 0.609375 -0.273438 0.609375 -0.234375 C 0.617188 -0.191406 0.628906 -0.160156 0.640625 -0.140625 C 0.648438 -0.128906 0.664062 -0.117188 0.6875 -0.109375 C 0.71875 -0.0976562 0.757812 -0.09375 0.8125 -0.09375 L 0.8125 0 L 0.0625 0 L 0.0625 -0.09375 C 0.113281 -0.09375 0.148438 -0.0976562 0.171875 -0.109375 C 0.203125 -0.117188 0.222656 -0.128906 0.234375 -0.140625 C 0.253906 -0.160156 0.265625 -0.1875 0.265625 -0.21875 C 0.273438 -0.257812 0.28125 -0.3125 0.28125 -0.375 L 0.28125 -0.65625 C 0.28125 -0.75 0.273438 -0.828125 0.265625 -0.890625 C 0.265625 -0.953125 0.265625 -0.992188 0.265625 -1.015625 C 0.253906 -1.035156 0.242188 -1.050781 0.234375 -1.0625 C 0.234375 -1.070312 0.222656 -1.078125 0.203125 -1.078125 C 0.191406 -1.085938 0.175781 -1.09375 0.15625 -1.09375 C 0.132812 -1.101562 0.101562 -1.109375 0.0625 -1.109375 L 0.0625 -1.1875 L 0.515625 -1.28125 L 0.546875 -1.0625 L 0.5625 -1.0625 C 0.625 -1.144531 0.6875 -1.203125 0.75 -1.234375 C 0.820312 -1.265625 0.898438 -1.28125 0.984375 -1.28125 C 1.085938 -1.28125 1.171875 -1.257812 1.234375 -1.21875 C 1.304688 -1.1875 1.363281 -1.132812 1.40625 -1.0625 C 1.46875 -1.125 1.535156 -1.175781 1.609375 -1.21875 C 1.691406 -1.257812 1.773438 -1.28125 1.859375 -1.28125 C 1.960938 -1.28125 2.046875 -1.265625 2.109375 -1.234375 C 2.179688 -1.210938 2.238281 -1.179688 2.28125 -1.140625 C 2.3125 -1.097656 2.332031 -1.046875 2.34375 -0.984375 C 2.363281 -0.929688 2.375 -0.851562 2.375 -0.75 L 2.375 -0.390625 C 2.375 -0.328125 2.375 -0.273438 2.375 -0.234375 C 2.375 -0.191406 2.378906 -0.160156 2.390625 -0.140625 C 2.410156 -0.128906 2.429688 -0.117188 2.453125 -0.109375 C 2.484375 -0.0976562 2.523438 -0.09375 2.578125 -0.09375 L 2.578125 0 L 1.828125 0 L 1.828125 -0.09375 C 1.878906 -0.09375 1.914062 -0.0976562 1.9375 -0.109375 C 1.96875 -0.117188 1.988281 -0.128906 2 -0.140625 C 2.019531 -0.160156 2.03125 -0.1875 2.03125 -0.21875 C 2.03125 -0.257812 2.03125 -0.3125 2.03125 -0.375 L 2.03125 -0.671875 C 2.03125 -0.753906 2.023438 -0.820312 2.015625 -0.875 C 2.015625 -0.9375 2.003906 -0.984375 1.984375 -1.015625 C 1.960938 -1.054688 1.929688 -1.082031 1.890625 -1.09375 C 1.859375 -1.113281 1.820312 -1.125 1.78125 -1.125 C 1.71875 -1.125 1.664062 -1.109375 1.625 -1.078125 C 1.59375 -1.054688 1.566406 -1.023438 1.546875 -0.984375 C 1.503906 -0.898438 1.484375 -0.804688 1.484375 -0.703125 L 1.484375 -0.390625 C 1.484375 -0.328125 1.484375 -0.273438 1.484375 -0.234375 C 1.492188 -0.191406 1.503906 -0.160156 1.515625 -0.140625 C 1.535156 -0.128906 1.554688 -0.117188 1.578125 -0.109375 C 1.609375 -0.0976562 1.648438 -0.09375 1.703125 -0.09375 L 1.703125 0 L 0.953125 0 L 0.953125 -0.09375 C 0.992188 -0.09375 1.03125 -0.0976562 1.0625 -0.109375 C 1.09375 -0.117188 1.113281 -0.128906 1.125 -0.140625 C 1.132812 -0.160156 1.140625 -0.1875 1.140625 -0.21875 C 1.148438 -0.257812 1.15625 -0.3125 1.15625 -0.375 L 1.15625 -0.671875 C 1.15625 -0.753906 1.148438 -0.820312 1.140625 -0.875 C 1.128906 -0.9375 1.113281 -0.984375 1.09375 -1.015625 C 1.070312 -1.054688 1.046875 -1.082031 1.015625 -1.09375 C 0.984375 -1.113281 0.941406 -1.125 0.890625 -1.125 C 0.835938 -1.125 0.789062 -1.109375 0.75 -1.078125 C 0.71875 -1.054688 0.691406 -1.023438 0.671875 -0.984375 C 0.648438 -0.941406 0.632812 -0.894531 0.625 -0.84375 C 0.613281 -0.800781 0.609375 -0.753906 0.609375 -0.703125 Z M 0.609375 -0.390625 "/></g></g></g></g><g clip-path="url(#59a29c418d)"><g fill="#cf577e" fill-opacity="1"><g transform="translate(19.23856, 3.049895)"><g><path d="M 0.8125 -0.671875 C 0.675781 -0.609375 0.570312 -0.550781 0.5 -0.5 C 0.4375 -0.445312 0.40625 -0.394531 0.40625 -0.34375 C 0.40625 -0.300781 0.414062 -0.265625 0.4375 -0.234375 C 0.46875 -0.210938 0.503906 -0.203125 0.546875 -0.203125 C 0.585938 -0.203125 0.625 -0.207031 0.65625 -0.21875 C 0.6875 -0.226562 0.710938 -0.242188 0.734375 -0.265625 C 0.753906 -0.285156 0.769531 -0.3125 0.78125 -0.34375 C 0.800781 -0.375 0.8125 -0.410156 0.8125 -0.453125 Z M 0.8125 -0.796875 L 0.8125 -0.890625 C 0.8125 -0.984375 0.796875 -1.050781 0.765625 -1.09375 C 0.734375 -1.132812 0.679688 -1.15625 0.609375 -1.15625 C 0.566406 -1.15625 0.53125 -1.140625 0.5 -1.109375 C 0.476562 -1.085938 0.457031 -1.050781 0.4375 -1 C 0.425781 -0.957031 0.40625 -0.925781 0.375 -0.90625 C 0.351562 -0.882812 0.320312 -0.875 0.28125 -0.875 C 0.226562 -0.875 0.191406 -0.882812 0.171875 -0.90625 C 0.148438 -0.9375 0.140625 -0.976562 0.140625 -1.03125 C 0.140625 -1.101562 0.179688 -1.160156 0.265625 -1.203125 C 0.347656 -1.253906 0.472656 -1.28125 0.640625 -1.28125 C 0.816406 -1.28125 0.941406 -1.242188 1.015625 -1.171875 C 1.085938 -1.109375 1.125 -1.003906 1.125 -0.859375 L 1.125 -0.34375 C 1.125 -0.207031 1.148438 -0.140625 1.203125 -0.140625 C 1.234375 -0.140625 1.265625 -0.148438 1.296875 -0.171875 L 1.328125 -0.109375 C 1.304688 -0.0664062 1.269531 -0.03125 1.21875 0 C 1.175781 0.0195312 1.125 0.03125 1.0625 0.03125 C 0.988281 0.03125 0.929688 0.0078125 0.890625 -0.03125 C 0.859375 -0.0820312 0.84375 -0.148438 0.84375 -0.234375 L 0.828125 -0.234375 C 0.785156 -0.148438 0.726562 -0.0859375 0.65625 -0.046875 C 0.582031 -0.00390625 0.5 0.015625 0.40625 0.015625 C 0.3125 0.015625 0.234375 -0.0078125 0.171875 -0.0625 C 0.109375 -0.113281 0.078125 -0.1875 0.078125 -0.28125 C 0.078125 -0.351562 0.109375 -0.414062 0.171875 -0.46875 C 0.234375 -0.53125 0.335938 -0.59375 0.484375 -0.65625 Z M 0.8125 -0.796875 "/></g></g></g></g><g clip-path="url(#665d0d0686)"><g fill="#cf577e" fill-opacity="1"><g transform="translate(20.595891, 3.049895)"><g><path d="M 0.84375 -0.09375 C 0.894531 -0.09375 0.929688 -0.09375 0.953125 -0.09375 C 0.972656 -0.101562 0.984375 -0.113281 0.984375 -0.125 C 0.984375 -0.132812 0.972656 -0.15625 0.953125 -0.1875 C 0.929688 -0.226562 0.90625 -0.273438 0.875 -0.328125 L 0.6875 -0.59375 L 0.578125 -0.484375 L 0.578125 -0.390625 C 0.578125 -0.328125 0.578125 -0.273438 0.578125 -0.234375 C 0.578125 -0.203125 0.582031 -0.175781 0.59375 -0.15625 C 0.613281 -0.132812 0.632812 -0.117188 0.65625 -0.109375 C 0.675781 -0.0976562 0.703125 -0.09375 0.734375 -0.09375 L 0.734375 0 L 0.03125 0 L 0.03125 -0.09375 C 0.0820312 -0.09375 0.117188 -0.0976562 0.140625 -0.109375 C 0.171875 -0.117188 0.191406 -0.128906 0.203125 -0.140625 C 0.222656 -0.160156 0.234375 -0.1875 0.234375 -0.21875 C 0.242188 -0.257812 0.25 -0.3125 0.25 -0.375 L 0.25 -1.375 C 0.25 -1.46875 0.242188 -1.539062 0.234375 -1.59375 C 0.234375 -1.65625 0.226562 -1.695312 0.21875 -1.71875 C 0.207031 -1.75 0.1875 -1.765625 0.15625 -1.765625 C 0.125 -1.773438 0.0859375 -1.78125 0.046875 -1.78125 L 0.046875 -1.875 L 0.578125 -1.953125 L 0.578125 -0.640625 L 0.796875 -0.859375 C 0.878906 -0.941406 0.9375 -1 0.96875 -1.03125 C 1.007812 -1.070312 1.03125 -1.101562 1.03125 -1.125 C 1.03125 -1.132812 1.015625 -1.140625 0.984375 -1.140625 C 0.953125 -1.148438 0.894531 -1.15625 0.8125 -1.15625 L 0.8125 -1.25 L 1.46875 -1.25 L 1.46875 -1.15625 C 1.40625 -1.15625 1.347656 -1.144531 1.296875 -1.125 C 1.253906 -1.101562 1.207031 -1.066406 1.15625 -1.015625 L 0.921875 -0.796875 L 1.328125 -0.21875 C 1.367188 -0.175781 1.40625 -0.144531 1.4375 -0.125 C 1.476562 -0.101562 1.523438 -0.09375 1.578125 -0.09375 L 1.578125 0 L 0.84375 0 Z M 0.84375 -0.09375 "/></g></g></g></g><g clip-path="url(#568f0967ab)"><g fill="#cf577e" fill-opacity="1"><g transform="translate(22.166045, 3.049895)"><g><path d="M 0.609375 -0.390625 C 0.609375 -0.328125 0.609375 -0.273438 0.609375 -0.234375 C 0.617188 -0.191406 0.628906 -0.160156 0.640625 -0.140625 C 0.648438 -0.128906 0.671875 -0.117188 0.703125 -0.109375 C 0.734375 -0.0976562 0.769531 -0.09375 0.8125 -0.09375 L 0.8125 0 L 0.0625 0 L 0.0625 -0.09375 C 0.113281 -0.09375 0.148438 -0.0976562 0.171875 -0.109375 C 0.203125 -0.117188 0.222656 -0.132812 0.234375 -0.15625 C 0.253906 -0.175781 0.265625 -0.203125 0.265625 -0.234375 C 0.273438 -0.265625 0.28125 -0.3125 0.28125 -0.375 L 0.28125 -0.65625 C 0.28125 -0.75 0.273438 -0.820312 0.265625 -0.875 C 0.265625 -0.9375 0.265625 -0.976562 0.265625 -1 C 0.253906 -1.039062 0.234375 -1.066406 0.203125 -1.078125 C 0.179688 -1.097656 0.132812 -1.109375 0.0625 -1.109375 L 0.0625 -1.1875 L 0.609375 -1.28125 Z M 0.265625 -1.78125 C 0.265625 -1.832031 0.28125 -1.875 0.3125 -1.90625 C 0.34375 -1.9375 0.382812 -1.953125 0.4375 -1.953125 C 0.488281 -1.953125 0.53125 -1.9375 0.5625 -1.90625 C 0.601562 -1.875 0.625 -1.832031 0.625 -1.78125 C 0.625 -1.726562 0.601562 -1.679688 0.5625 -1.640625 C 0.53125 -1.609375 0.488281 -1.59375 0.4375 -1.59375 C 0.382812 -1.59375 0.34375 -1.609375 0.3125 -1.640625 C 0.28125 -1.679688 0.265625 -1.726562 0.265625 -1.78125 Z M 0.265625 -1.78125 "/></g></g></g></g><g clip-path="url(#4b1138f369)"><g fill="#cf577e" fill-opacity="1"><g transform="translate(23.019698, 3.049895)"><g><path d="M 0.609375 -0.390625 C 0.609375 -0.316406 0.609375 -0.257812 0.609375 -0.21875 C 0.617188 -0.1875 0.628906 -0.160156 0.640625 -0.140625 C 0.648438 -0.128906 0.664062 -0.117188 0.6875 -0.109375 C 0.71875 -0.0976562 0.757812 -0.09375 0.8125 -0.09375 L 0.8125 0 L 0.0625 0 L 0.0625 -0.09375 C 0.113281 -0.09375 0.148438 -0.0976562 0.171875 -0.109375 C 0.203125 -0.117188 0.222656 -0.128906 0.234375 -0.140625 C 0.253906 -0.160156 0.265625 -0.1875 0.265625 -0.21875 C 0.273438 -0.257812 0.28125 -0.3125 0.28125 -0.375 L 0.28125 -0.65625 C 0.28125 -0.75 0.273438 -0.820312 0.265625 -0.875 C 0.265625 -0.9375 0.265625 -0.976562 0.265625 -1 C 0.253906 -1.019531 0.242188 -1.035156 0.234375 -1.046875 C 0.234375 -1.066406 0.222656 -1.078125 0.203125 -1.078125 C 0.191406 -1.085938 0.171875 -1.09375 0.140625 -1.09375 C 0.117188 -1.101562 0.09375 -1.109375 0.0625 -1.109375 L 0.0625 -1.1875 L 0.515625 -1.28125 L 0.546875 -1.0625 C 0.597656 -1.132812 0.660156 -1.1875 0.734375 -1.21875 C 0.804688 -1.257812 0.882812 -1.28125 0.96875 -1.28125 C 1.070312 -1.28125 1.15625 -1.265625 1.21875 -1.234375 C 1.28125 -1.203125 1.332031 -1.15625 1.375 -1.09375 C 1.40625 -1.0625 1.429688 -1.015625 1.453125 -0.953125 C 1.472656 -0.898438 1.484375 -0.820312 1.484375 -0.71875 L 1.484375 -0.390625 C 1.484375 -0.316406 1.484375 -0.257812 1.484375 -0.21875 C 1.492188 -0.1875 1.503906 -0.160156 1.515625 -0.140625 C 1.523438 -0.128906 1.539062 -0.117188 1.5625 -0.109375 C 1.59375 -0.0976562 1.632812 -0.09375 1.6875 -0.09375 L 1.6875 0 L 0.953125 0 L 0.953125 -0.09375 C 0.992188 -0.09375 1.023438 -0.0976562 1.046875 -0.109375 C 1.078125 -0.117188 1.097656 -0.128906 1.109375 -0.140625 C 1.128906 -0.160156 1.140625 -0.1875 1.140625 -0.21875 C 1.148438 -0.257812 1.15625 -0.3125 1.15625 -0.375 L 1.15625 -0.6875 C 1.15625 -0.769531 1.148438 -0.835938 1.140625 -0.890625 C 1.128906 -0.941406 1.113281 -0.984375 1.09375 -1.015625 C 1.070312 -1.054688 1.039062 -1.082031 1 -1.09375 C 0.96875 -1.113281 0.925781 -1.125 0.875 -1.125 C 0.832031 -1.125 0.789062 -1.109375 0.75 -1.078125 C 0.71875 -1.046875 0.6875 -1.003906 0.65625 -0.953125 C 0.644531 -0.929688 0.632812 -0.894531 0.625 -0.84375 C 0.613281 -0.800781 0.609375 -0.753906 0.609375 -0.703125 Z M 0.609375 -0.390625 "/></g></g></g></g><g clip-path="url(#e1f292b1c0)"><g fill="#cf577e" fill-opacity="1"><g transform="translate(24.738826, 3.049895)"><g><path d="M 0.53125 -0.25 C 0.582031 -0.25 0.625 -0.242188 0.65625 -0.234375 C 0.6875 -0.234375 0.710938 -0.234375 0.734375 -0.234375 C 0.765625 -0.234375 0.796875 -0.226562 0.828125 -0.21875 C 0.859375 -0.21875 0.890625 -0.210938 0.921875 -0.203125 C 1.046875 -0.191406 1.140625 -0.144531 1.203125 -0.0625 C 1.273438 0.0078125 1.3125 0.0976562 1.3125 0.203125 C 1.3125 0.335938 1.253906 0.4375 1.140625 0.5 C 1.035156 0.570312 0.878906 0.609375 0.671875 0.609375 C 0.472656 0.609375 0.316406 0.578125 0.203125 0.515625 C 0.0976562 0.460938 0.046875 0.382812 0.046875 0.28125 C 0.046875 0.195312 0.0664062 0.132812 0.109375 0.09375 C 0.148438 0.0507812 0.207031 0.03125 0.28125 0.03125 C 0.320312 0.03125 0.359375 0.0351562 0.390625 0.046875 C 0.429688 0.0664062 0.46875 0.09375 0.5 0.125 C 0.457031 0.132812 0.421875 0.15625 0.390625 0.1875 C 0.367188 0.21875 0.359375 0.253906 0.359375 0.296875 C 0.359375 0.359375 0.382812 0.40625 0.4375 0.4375 C 0.488281 0.46875 0.570312 0.484375 0.6875 0.484375 C 0.914062 0.484375 1.03125 0.410156 1.03125 0.265625 C 1.03125 0.210938 1.015625 0.164062 0.984375 0.125 C 0.953125 0.0820312 0.898438 0.0546875 0.828125 0.046875 L 0.421875 0 C 0.242188 -0.0195312 0.15625 -0.0976562 0.15625 -0.234375 C 0.15625 -0.296875 0.175781 -0.347656 0.21875 -0.390625 C 0.257812 -0.429688 0.320312 -0.460938 0.40625 -0.484375 C 0.363281 -0.503906 0.328125 -0.523438 0.296875 -0.546875 C 0.265625 -0.566406 0.238281 -0.59375 0.21875 -0.625 C 0.195312 -0.664062 0.179688 -0.703125 0.171875 -0.734375 C 0.160156 -0.773438 0.15625 -0.816406 0.15625 -0.859375 C 0.15625 -0.921875 0.164062 -0.976562 0.1875 -1.03125 C 0.21875 -1.082031 0.253906 -1.125 0.296875 -1.15625 C 0.335938 -1.1875 0.382812 -1.210938 0.4375 -1.234375 C 0.5 -1.265625 0.566406 -1.28125 0.640625 -1.28125 C 0.703125 -1.28125 0.765625 -1.269531 0.828125 -1.25 C 0.898438 -1.226562 0.957031 -1.195312 1 -1.15625 C 1.039062 -1.175781 1.070312 -1.191406 1.09375 -1.203125 C 1.125 -1.222656 1.148438 -1.238281 1.171875 -1.25 C 1.191406 -1.257812 1.210938 -1.265625 1.234375 -1.265625 C 1.253906 -1.273438 1.273438 -1.28125 1.296875 -1.28125 C 1.347656 -1.28125 1.390625 -1.265625 1.421875 -1.234375 C 1.460938 -1.203125 1.484375 -1.164062 1.484375 -1.125 C 1.484375 -1.09375 1.472656 -1.066406 1.453125 -1.046875 C 1.441406 -1.023438 1.414062 -1.015625 1.375 -1.015625 C 1.351562 -1.015625 1.332031 -1.019531 1.3125 -1.03125 C 1.300781 -1.039062 1.289062 -1.050781 1.28125 -1.0625 C 1.269531 -1.070312 1.253906 -1.082031 1.234375 -1.09375 C 1.222656 -1.101562 1.207031 -1.109375 1.1875 -1.109375 C 1.15625 -1.109375 1.125 -1.085938 1.09375 -1.046875 C 1.101562 -1.023438 1.109375 -1 1.109375 -0.96875 C 1.117188 -0.9375 1.125 -0.898438 1.125 -0.859375 C 1.125 -0.796875 1.113281 -0.738281 1.09375 -0.6875 C 1.082031 -0.644531 1.054688 -0.601562 1.015625 -0.5625 C 0.972656 -0.519531 0.921875 -0.484375 0.859375 -0.453125 C 0.796875 -0.429688 0.71875 -0.414062 0.625 -0.40625 C 0.550781 -0.394531 0.5 -0.382812 0.46875 -0.375 C 0.445312 -0.363281 0.4375 -0.347656 0.4375 -0.328125 C 0.4375 -0.285156 0.46875 -0.257812 0.53125 -0.25 Z M 0.65625 -0.546875 C 0.707031 -0.546875 0.742188 -0.570312 0.765625 -0.625 C 0.796875 -0.675781 0.8125 -0.75 0.8125 -0.84375 C 0.8125 -0.945312 0.796875 -1.023438 0.765625 -1.078125 C 0.742188 -1.128906 0.707031 -1.15625 0.65625 -1.15625 C 0.59375 -1.15625 0.546875 -1.125 0.515625 -1.0625 C 0.484375 -1.007812 0.46875 -0.941406 0.46875 -0.859375 C 0.46875 -0.753906 0.484375 -0.675781 0.515625 -0.625 C 0.554688 -0.570312 0.601562 -0.546875 0.65625 -0.546875 Z M 0.65625 -0.546875 "/></g></g></g></g><g clip-path="url(#2ebae9cfd2)"><g fill="#cf577e" fill-opacity="1"><g transform="translate(26.159998, 3.049895)"><g><path d="M 0.125 -0.15625 C 0.125 -0.195312 0.140625 -0.234375 0.171875 -0.265625 C 0.210938 -0.304688 0.253906 -0.328125 0.296875 -0.328125 C 0.347656 -0.328125 0.390625 -0.304688 0.421875 -0.265625 C 0.460938 -0.234375 0.484375 -0.195312 0.484375 -0.15625 C 0.484375 -0.101562 0.460938 -0.0546875 0.421875 -0.015625 C 0.390625 0.015625 0.347656 0.03125 0.296875 0.03125 C 0.253906 0.03125 0.210938 0.015625 0.171875 -0.015625 C 0.140625 -0.0546875 0.125 -0.101562 0.125 -0.15625 Z M 0.125 -0.15625 "/></g></g></g></g><g clip-path="url(#b31a8623d8)"><g fill="#cf577e" fill-opacity="1"><g transform="translate(26.774818, 3.049895)"><g/></g></g></g><g clip-path="url(#637ad88cdb)"><g fill="#cf577e" fill-opacity="1"><g transform="translate(27.403825, 3.049895)"><g><path d="M 1.578125 0.03125 L 0.53125 -1.46875 L 0.53125 -0.453125 C 0.53125 -0.367188 0.53125 -0.304688 0.53125 -0.265625 C 0.539062 -0.222656 0.550781 -0.1875 0.5625 -0.15625 C 0.582031 -0.132812 0.609375 -0.117188 0.640625 -0.109375 C 0.671875 -0.0976562 0.710938 -0.09375 0.765625 -0.09375 L 0.765625 0 L 0.078125 0 L 0.078125 -0.09375 C 0.128906 -0.09375 0.171875 -0.0976562 0.203125 -0.109375 C 0.242188 -0.117188 0.273438 -0.132812 0.296875 -0.15625 C 0.316406 -0.175781 0.328125 -0.207031 0.328125 -0.25 C 0.335938 -0.300781 0.34375 -0.363281 0.34375 -0.4375 L 0.34375 -1.375 C 0.34375 -1.445312 0.335938 -1.503906 0.328125 -1.546875 C 0.328125 -1.585938 0.316406 -1.617188 0.296875 -1.640625 C 0.273438 -1.671875 0.25 -1.691406 0.21875 -1.703125 C 0.1875 -1.710938 0.144531 -1.71875 0.09375 -1.71875 L 0.09375 -1.8125 L 0.75 -1.8125 L 1.703125 -0.453125 L 1.71875 -0.453125 L 1.71875 -1.359375 C 1.71875 -1.441406 1.710938 -1.503906 1.703125 -1.546875 C 1.703125 -1.597656 1.691406 -1.632812 1.671875 -1.65625 C 1.648438 -1.6875 1.625 -1.703125 1.59375 -1.703125 C 1.5625 -1.710938 1.519531 -1.71875 1.46875 -1.71875 L 1.46875 -1.8125 L 2.171875 -1.8125 L 2.171875 -1.71875 C 2.109375 -1.71875 2.054688 -1.710938 2.015625 -1.703125 C 1.984375 -1.691406 1.957031 -1.675781 1.9375 -1.65625 C 1.925781 -1.632812 1.914062 -1.597656 1.90625 -1.546875 C 1.894531 -1.503906 1.890625 -1.445312 1.890625 -1.375 L 1.890625 0.03125 Z M 1.578125 0.03125 "/></g></g></g></g><g clip-path="url(#05916dbbad)"><g fill="#cf577e" fill-opacity="1"><g transform="translate(29.562767, 3.049895)"><g><path d="M 0.78125 -1.28125 C 0.875 -1.28125 0.960938 -1.257812 1.046875 -1.21875 C 1.128906 -1.1875 1.203125 -1.140625 1.265625 -1.078125 C 1.328125 -1.023438 1.375 -0.960938 1.40625 -0.890625 C 1.445312 -0.816406 1.46875 -0.734375 1.46875 -0.640625 C 1.46875 -0.535156 1.445312 -0.441406 1.40625 -0.359375 C 1.375 -0.285156 1.328125 -0.21875 1.265625 -0.15625 C 1.203125 -0.101562 1.128906 -0.0546875 1.046875 -0.015625 C 0.960938 0.015625 0.875 0.03125 0.78125 0.03125 C 0.6875 0.03125 0.597656 0.015625 0.515625 -0.015625 C 0.429688 -0.0546875 0.359375 -0.101562 0.296875 -0.15625 C 0.234375 -0.21875 0.179688 -0.285156 0.140625 -0.359375 C 0.109375 -0.441406 0.09375 -0.535156 0.09375 -0.640625 C 0.09375 -0.734375 0.109375 -0.816406 0.140625 -0.890625 C 0.179688 -0.972656 0.234375 -1.039062 0.296875 -1.09375 C 0.359375 -1.15625 0.429688 -1.203125 0.515625 -1.234375 C 0.597656 -1.265625 0.6875 -1.28125 0.78125 -1.28125 Z M 0.78125 -1.140625 C 0.726562 -1.140625 0.679688 -1.125 0.640625 -1.09375 C 0.597656 -1.070312 0.5625 -1.039062 0.53125 -1 C 0.507812 -0.957031 0.488281 -0.90625 0.46875 -0.84375 C 0.457031 -0.78125 0.453125 -0.707031 0.453125 -0.625 C 0.453125 -0.550781 0.457031 -0.484375 0.46875 -0.421875 C 0.488281 -0.359375 0.507812 -0.300781 0.53125 -0.25 C 0.5625 -0.207031 0.597656 -0.175781 0.640625 -0.15625 C 0.679688 -0.132812 0.726562 -0.125 0.78125 -0.125 C 0.820312 -0.125 0.863281 -0.132812 0.90625 -0.15625 C 0.945312 -0.175781 0.976562 -0.207031 1 -0.25 C 1.03125 -0.300781 1.050781 -0.359375 1.0625 -0.421875 C 1.082031 -0.484375 1.09375 -0.550781 1.09375 -0.625 C 1.09375 -0.707031 1.082031 -0.773438 1.0625 -0.828125 C 1.050781 -0.890625 1.03125 -0.941406 1 -0.984375 C 0.976562 -1.035156 0.945312 -1.070312 0.90625 -1.09375 C 0.863281 -1.125 0.820312 -1.140625 0.78125 -1.140625 Z M 0.78125 -1.140625 "/></g></g></g></g><g clip-path="url(#fe670bdf35)"><g fill="#cf577e" fill-opacity="1"><g transform="translate(31.123463, 3.049895)"><g/></g></g></g><g clip-path="url(#81044a2606)"><g fill="#cf577e" fill-opacity="1"><g transform="translate(31.75247, 3.049895)"><g><path d="M 0.125 -0.609375 L 0.21875 -0.609375 C 0.238281 -0.453125 0.296875 -0.332031 0.390625 -0.25 C 0.492188 -0.164062 0.617188 -0.125 0.765625 -0.125 C 0.816406 -0.125 0.867188 -0.128906 0.921875 -0.140625 C 0.972656 -0.148438 1.015625 -0.164062 1.046875 -0.1875 C 1.078125 -0.21875 1.101562 -0.25 1.125 -0.28125 C 1.144531 -0.320312 1.15625 -0.363281 1.15625 -0.40625 C 1.15625 -0.445312 1.148438 -0.476562 1.140625 -0.5 C 1.128906 -0.53125 1.101562 -0.554688 1.0625 -0.578125 C 1.03125 -0.609375 0.984375 -0.632812 0.921875 -0.65625 C 0.867188 -0.6875 0.796875 -0.722656 0.703125 -0.765625 C 0.523438 -0.835938 0.390625 -0.921875 0.296875 -1.015625 C 0.210938 -1.109375 0.171875 -1.21875 0.171875 -1.34375 C 0.171875 -1.414062 0.179688 -1.484375 0.203125 -1.546875 C 0.234375 -1.609375 0.273438 -1.660156 0.328125 -1.703125 C 0.378906 -1.742188 0.441406 -1.773438 0.515625 -1.796875 C 0.585938 -1.828125 0.664062 -1.84375 0.75 -1.84375 C 0.832031 -1.84375 0.90625 -1.828125 0.96875 -1.796875 C 1.039062 -1.773438 1.113281 -1.738281 1.1875 -1.6875 L 1.234375 -1.8125 L 1.28125 -1.8125 L 1.3125 -1.296875 L 1.21875 -1.296875 C 1.1875 -1.421875 1.128906 -1.519531 1.046875 -1.59375 C 0.960938 -1.664062 0.867188 -1.703125 0.765625 -1.703125 C 0.671875 -1.703125 0.59375 -1.675781 0.53125 -1.625 C 0.46875 -1.570312 0.4375 -1.507812 0.4375 -1.4375 C 0.4375 -1.40625 0.441406 -1.375 0.453125 -1.34375 C 0.460938 -1.320312 0.484375 -1.296875 0.515625 -1.265625 C 0.546875 -1.242188 0.585938 -1.222656 0.640625 -1.203125 C 0.691406 -1.179688 0.757812 -1.15625 0.84375 -1.125 C 0.945312 -1.082031 1.035156 -1.035156 1.109375 -0.984375 C 1.191406 -0.941406 1.257812 -0.894531 1.3125 -0.84375 C 1.363281 -0.800781 1.398438 -0.75 1.421875 -0.6875 C 1.441406 -0.632812 1.453125 -0.578125 1.453125 -0.515625 C 1.453125 -0.429688 1.4375 -0.359375 1.40625 -0.296875 C 1.375 -0.234375 1.328125 -0.175781 1.265625 -0.125 C 1.203125 -0.0820312 1.125 -0.046875 1.03125 -0.015625 C 0.945312 0.015625 0.851562 0.03125 0.75 0.03125 C 0.65625 0.03125 0.570312 0.0195312 0.5 0 C 0.425781 -0.03125 0.347656 -0.078125 0.265625 -0.140625 L 0.21875 0 L 0.15625 0 Z M 0.125 -0.609375 "/></g></g></g></g><g clip-path="url(#65579fd18c)"><g fill="#cf577e" fill-opacity="1"><g transform="translate(33.27768, 3.049895)"><g><path d="M 0.734375 0.03125 L 0.5625 0.03125 L 0.234375 -0.953125 C 0.210938 -1.023438 0.179688 -1.078125 0.140625 -1.109375 C 0.109375 -1.140625 0.0664062 -1.15625 0.015625 -1.15625 L 0.015625 -1.25 L 0.6875 -1.25 L 0.6875 -1.15625 C 0.632812 -1.15625 0.597656 -1.144531 0.578125 -1.125 C 0.554688 -1.113281 0.546875 -1.085938 0.546875 -1.046875 C 0.546875 -1.035156 0.546875 -1.019531 0.546875 -1 C 0.554688 -0.976562 0.5625 -0.953125 0.5625 -0.921875 L 0.71875 -0.375 L 0.734375 -0.375 L 1.0625 -1.25 L 1.25 -1.25 L 1.5 -0.375 L 1.515625 -0.375 L 1.703125 -0.859375 C 1.710938 -0.898438 1.71875 -0.9375 1.71875 -0.96875 C 1.726562 -1 1.734375 -1.023438 1.734375 -1.046875 C 1.734375 -1.085938 1.71875 -1.113281 1.6875 -1.125 C 1.664062 -1.144531 1.632812 -1.15625 1.59375 -1.15625 L 1.59375 -1.25 L 2.09375 -1.25 L 2.09375 -1.15625 C 2.070312 -1.15625 2.050781 -1.148438 2.03125 -1.140625 C 2.007812 -1.140625 1.988281 -1.125 1.96875 -1.09375 C 1.945312 -1.070312 1.925781 -1.035156 1.90625 -0.984375 C 1.882812 -0.941406 1.859375 -0.878906 1.828125 -0.796875 L 1.5 0.03125 L 1.3125 0.03125 L 1.0625 -0.8125 Z M 0.734375 0.03125 "/></g></g></g></g><g clip-path="url(#6da64be281)"><g fill="#cf577e" fill-opacity="1"><g transform="translate(35.384618, 3.049895)"><g><path d="M 0.609375 -0.390625 C 0.609375 -0.328125 0.609375 -0.273438 0.609375 -0.234375 C 0.617188 -0.191406 0.628906 -0.160156 0.640625 -0.140625 C 0.648438 -0.128906 0.671875 -0.117188 0.703125 -0.109375 C 0.734375 -0.0976562 0.769531 -0.09375 0.8125 -0.09375 L 0.8125 0 L 0.0625 0 L 0.0625 -0.09375 C 0.113281 -0.09375 0.148438 -0.0976562 0.171875 -0.109375 C 0.203125 -0.117188 0.222656 -0.132812 0.234375 -0.15625 C 0.253906 -0.175781 0.265625 -0.203125 0.265625 -0.234375 C 0.273438 -0.265625 0.28125 -0.3125 0.28125 -0.375 L 0.28125 -0.65625 C 0.28125 -0.75 0.273438 -0.820312 0.265625 -0.875 C 0.265625 -0.9375 0.265625 -0.976562 0.265625 -1 C 0.253906 -1.039062 0.234375 -1.066406 0.203125 -1.078125 C 0.179688 -1.097656 0.132812 -1.109375 0.0625 -1.109375 L 0.0625 -1.1875 L 0.609375 -1.28125 Z M 0.265625 -1.78125 C 0.265625 -1.832031 0.28125 -1.875 0.3125 -1.90625 C 0.34375 -1.9375 0.382812 -1.953125 0.4375 -1.953125 C 0.488281 -1.953125 0.53125 -1.9375 0.5625 -1.90625 C 0.601562 -1.875 0.625 -1.832031 0.625 -1.78125 C 0.625 -1.726562 0.601562 -1.679688 0.5625 -1.640625 C 0.53125 -1.609375 0.488281 -1.59375 0.4375 -1.59375 C 0.382812 -1.59375 0.34375 -1.609375 0.3125 -1.640625 C 0.28125 -1.679688 0.265625 -1.726562 0.265625 -1.78125 Z M 0.265625 -1.78125 "/></g></g></g></g><g clip-path="url(#fd319ce07f)"><g fill="#cf577e" fill-opacity="1"><g transform="translate(36.238273, 3.049895)"><g><path d="M 0.515625 -1.09375 L 0.53125 -1.09375 C 0.625 -1.21875 0.753906 -1.28125 0.921875 -1.28125 C 1.015625 -1.28125 1.097656 -1.257812 1.171875 -1.21875 C 1.253906 -1.1875 1.320312 -1.140625 1.375 -1.078125 C 1.4375 -1.023438 1.484375 -0.957031 1.515625 -0.875 C 1.546875 -0.800781 1.5625 -0.71875 1.5625 -0.625 C 1.5625 -0.53125 1.546875 -0.441406 1.515625 -0.359375 C 1.484375 -0.285156 1.4375 -0.21875 1.375 -0.15625 C 1.320312 -0.101562 1.253906 -0.0546875 1.171875 -0.015625 C 1.097656 0.015625 1.019531 0.03125 0.9375 0.03125 C 0.78125 0.03125 0.660156 -0.0195312 0.578125 -0.125 L 0.578125 0.203125 C 0.578125 0.265625 0.578125 0.3125 0.578125 0.34375 C 0.585938 0.382812 0.601562 0.414062 0.625 0.4375 C 0.644531 0.457031 0.671875 0.46875 0.703125 0.46875 C 0.742188 0.476562 0.796875 0.484375 0.859375 0.484375 L 0.859375 0.59375 L 0.046875 0.59375 L 0.046875 0.484375 C 0.0859375 0.484375 0.117188 0.476562 0.140625 0.46875 C 0.171875 0.46875 0.191406 0.457031 0.203125 0.4375 C 0.222656 0.414062 0.234375 0.382812 0.234375 0.34375 C 0.242188 0.3125 0.25 0.269531 0.25 0.21875 L 0.25 -0.671875 C 0.25 -0.742188 0.242188 -0.8125 0.234375 -0.875 C 0.234375 -0.9375 0.234375 -0.984375 0.234375 -1.015625 C 0.222656 -1.046875 0.203125 -1.066406 0.171875 -1.078125 C 0.148438 -1.097656 0.109375 -1.109375 0.046875 -1.109375 L 0.046875 -1.203125 L 0.515625 -1.265625 Z M 0.921875 -1.140625 C 0.867188 -1.140625 0.816406 -1.128906 0.765625 -1.109375 C 0.722656 -1.085938 0.6875 -1.054688 0.65625 -1.015625 C 0.632812 -0.984375 0.613281 -0.9375 0.59375 -0.875 C 0.582031 -0.820312 0.578125 -0.765625 0.578125 -0.703125 L 0.578125 -0.546875 C 0.578125 -0.429688 0.601562 -0.335938 0.65625 -0.265625 C 0.71875 -0.171875 0.804688 -0.125 0.921875 -0.125 C 1.015625 -0.125 1.082031 -0.164062 1.125 -0.25 C 1.175781 -0.332031 1.203125 -0.457031 1.203125 -0.625 C 1.203125 -0.96875 1.109375 -1.140625 0.921875 -1.140625 Z M 0.921875 -1.140625 "/></g></g></g></g><g clip-path="url(#d5e9b491c7)"><g fill="#cf577e" fill-opacity="1"><g transform="translate(37.88646, 3.049895)"><g><path d="M 0.609375 -0.390625 C 0.609375 -0.328125 0.609375 -0.273438 0.609375 -0.234375 C 0.617188 -0.191406 0.628906 -0.160156 0.640625 -0.140625 C 0.648438 -0.128906 0.671875 -0.117188 0.703125 -0.109375 C 0.734375 -0.0976562 0.769531 -0.09375 0.8125 -0.09375 L 0.8125 0 L 0.0625 0 L 0.0625 -0.09375 C 0.113281 -0.09375 0.148438 -0.0976562 0.171875 -0.109375 C 0.203125 -0.117188 0.222656 -0.132812 0.234375 -0.15625 C 0.253906 -0.175781 0.265625 -0.203125 0.265625 -0.234375 C 0.273438 -0.265625 0.28125 -0.3125 0.28125 -0.375 L 0.28125 -0.65625 C 0.28125 -0.75 0.273438 -0.820312 0.265625 -0.875 C 0.265625 -0.9375 0.265625 -0.976562 0.265625 -1 C 0.253906 -1.039062 0.234375 -1.066406 0.203125 -1.078125 C 0.179688 -1.097656 0.132812 -1.109375 0.0625 -1.109375 L 0.0625 -1.1875 L 0.609375 -1.28125 Z M 0.265625 -1.78125 C 0.265625 -1.832031 0.28125 -1.875 0.3125 -1.90625 C 0.34375 -1.9375 0.382812 -1.953125 0.4375 -1.953125 C 0.488281 -1.953125 0.53125 -1.9375 0.5625 -1.90625 C 0.601562 -1.875 0.625 -1.832031 0.625 -1.78125 C 0.625 -1.726562 0.601562 -1.679688 0.5625 -1.640625 C 0.53125 -1.609375 0.488281 -1.59375 0.4375 -1.59375 C 0.382812 -1.59375 0.34375 -1.609375 0.3125 -1.640625 C 0.28125 -1.679688 0.265625 -1.726562 0.265625 -1.78125 Z M 0.265625 -1.78125 "/></g></g></g></g><g clip-path="url(#0577a44e3c)"><g fill="#cf577e" fill-opacity="1"><g transform="translate(38.740115, 3.049895)"><g><path d="M 0.609375 -0.390625 C 0.609375 -0.316406 0.609375 -0.257812 0.609375 -0.21875 C 0.617188 -0.1875 0.628906 -0.160156 0.640625 -0.140625 C 0.648438 -0.128906 0.664062 -0.117188 0.6875 -0.109375 C 0.71875 -0.0976562 0.757812 -0.09375 0.8125 -0.09375 L 0.8125 0 L 0.0625 0 L 0.0625 -0.09375 C 0.113281 -0.09375 0.148438 -0.0976562 0.171875 -0.109375 C 0.203125 -0.117188 0.222656 -0.128906 0.234375 -0.140625 C 0.253906 -0.160156 0.265625 -0.1875 0.265625 -0.21875 C 0.273438 -0.257812 0.28125 -0.3125 0.28125 -0.375 L 0.28125 -0.65625 C 0.28125 -0.75 0.273438 -0.820312 0.265625 -0.875 C 0.265625 -0.9375 0.265625 -0.976562 0.265625 -1 C 0.253906 -1.019531 0.242188 -1.035156 0.234375 -1.046875 C 0.234375 -1.066406 0.222656 -1.078125 0.203125 -1.078125 C 0.191406 -1.085938 0.171875 -1.09375 0.140625 -1.09375 C 0.117188 -1.101562 0.09375 -1.109375 0.0625 -1.109375 L 0.0625 -1.1875 L 0.515625 -1.28125 L 0.546875 -1.0625 C 0.597656 -1.132812 0.660156 -1.1875 0.734375 -1.21875 C 0.804688 -1.257812 0.882812 -1.28125 0.96875 -1.28125 C 1.070312 -1.28125 1.15625 -1.265625 1.21875 -1.234375 C 1.28125 -1.203125 1.332031 -1.15625 1.375 -1.09375 C 1.40625 -1.0625 1.429688 -1.015625 1.453125 -0.953125 C 1.472656 -0.898438 1.484375 -0.820312 1.484375 -0.71875 L 1.484375 -0.390625 C 1.484375 -0.316406 1.484375 -0.257812 1.484375 -0.21875 C 1.492188 -0.1875 1.503906 -0.160156 1.515625 -0.140625 C 1.523438 -0.128906 1.539062 -0.117188 1.5625 -0.109375 C 1.59375 -0.0976562 1.632812 -0.09375 1.6875 -0.09375 L 1.6875 0 L 0.953125 0 L 0.953125 -0.09375 C 0.992188 -0.09375 1.023438 -0.0976562 1.046875 -0.109375 C 1.078125 -0.117188 1.097656 -0.128906 1.109375 -0.140625 C 1.128906 -0.160156 1.140625 -0.1875 1.140625 -0.21875 C 1.148438 -0.257812 1.15625 -0.3125 1.15625 -0.375 L 1.15625 -0.6875 C 1.15625 -0.769531 1.148438 -0.835938 1.140625 -0.890625 C 1.128906 -0.941406 1.113281 -0.984375 1.09375 -1.015625 C 1.070312 -1.054688 1.039062 -1.082031 1 -1.09375 C 0.96875 -1.113281 0.925781 -1.125 0.875 -1.125 C 0.832031 -1.125 0.789062 -1.109375 0.75 -1.078125 C 0.71875 -1.046875 0.6875 -1.003906 0.65625 -0.953125 C 0.644531 -0.929688 0.632812 -0.894531 0.625 -0.84375 C 0.613281 -0.800781 0.609375 -0.753906 0.609375 -0.703125 Z M 0.609375 -0.390625 "/></g></g></g></g><g clip-path="url(#a8b8ce1c07)"><g fill="#cf577e" fill-opacity="1"><g transform="translate(40.459241, 3.049895)"><g><path d="M 0.53125 -0.25 C 0.582031 -0.25 0.625 -0.242188 0.65625 -0.234375 C 0.6875 -0.234375 0.710938 -0.234375 0.734375 -0.234375 C 0.765625 -0.234375 0.796875 -0.226562 0.828125 -0.21875 C 0.859375 -0.21875 0.890625 -0.210938 0.921875 -0.203125 C 1.046875 -0.191406 1.140625 -0.144531 1.203125 -0.0625 C 1.273438 0.0078125 1.3125 0.0976562 1.3125 0.203125 C 1.3125 0.335938 1.253906 0.4375 1.140625 0.5 C 1.035156 0.570312 0.878906 0.609375 0.671875 0.609375 C 0.472656 0.609375 0.316406 0.578125 0.203125 0.515625 C 0.0976562 0.460938 0.046875 0.382812 0.046875 0.28125 C 0.046875 0.195312 0.0664062 0.132812 0.109375 0.09375 C 0.148438 0.0507812 0.207031 0.03125 0.28125 0.03125 C 0.320312 0.03125 0.359375 0.0351562 0.390625 0.046875 C 0.429688 0.0664062 0.46875 0.09375 0.5 0.125 C 0.457031 0.132812 0.421875 0.15625 0.390625 0.1875 C 0.367188 0.21875 0.359375 0.253906 0.359375 0.296875 C 0.359375 0.359375 0.382812 0.40625 0.4375 0.4375 C 0.488281 0.46875 0.570312 0.484375 0.6875 0.484375 C 0.914062 0.484375 1.03125 0.410156 1.03125 0.265625 C 1.03125 0.210938 1.015625 0.164062 0.984375 0.125 C 0.953125 0.0820312 0.898438 0.0546875 0.828125 0.046875 L 0.421875 0 C 0.242188 -0.0195312 0.15625 -0.0976562 0.15625 -0.234375 C 0.15625 -0.296875 0.175781 -0.347656 0.21875 -0.390625 C 0.257812 -0.429688 0.320312 -0.460938 0.40625 -0.484375 C 0.363281 -0.503906 0.328125 -0.523438 0.296875 -0.546875 C 0.265625 -0.566406 0.238281 -0.59375 0.21875 -0.625 C 0.195312 -0.664062 0.179688 -0.703125 0.171875 -0.734375 C 0.160156 -0.773438 0.15625 -0.816406 0.15625 -0.859375 C 0.15625 -0.921875 0.164062 -0.976562 0.1875 -1.03125 C 0.21875 -1.082031 0.253906 -1.125 0.296875 -1.15625 C 0.335938 -1.1875 0.382812 -1.210938 0.4375 -1.234375 C 0.5 -1.265625 0.566406 -1.28125 0.640625 -1.28125 C 0.703125 -1.28125 0.765625 -1.269531 0.828125 -1.25 C 0.898438 -1.226562 0.957031 -1.195312 1 -1.15625 C 1.039062 -1.175781 1.070312 -1.191406 1.09375 -1.203125 C 1.125 -1.222656 1.148438 -1.238281 1.171875 -1.25 C 1.191406 -1.257812 1.210938 -1.265625 1.234375 -1.265625 C 1.253906 -1.273438 1.273438 -1.28125 1.296875 -1.28125 C 1.347656 -1.28125 1.390625 -1.265625 1.421875 -1.234375 C 1.460938 -1.203125 1.484375 -1.164062 1.484375 -1.125 C 1.484375 -1.09375 1.472656 -1.066406 1.453125 -1.046875 C 1.441406 -1.023438 1.414062 -1.015625 1.375 -1.015625 C 1.351562 -1.015625 1.332031 -1.019531 1.3125 -1.03125 C 1.300781 -1.039062 1.289062 -1.050781 1.28125 -1.0625 C 1.269531 -1.070312 1.253906 -1.082031 1.234375 -1.09375 C 1.222656 -1.101562 1.207031 -1.109375 1.1875 -1.109375 C 1.15625 -1.109375 1.125 -1.085938 1.09375 -1.046875 C 1.101562 -1.023438 1.109375 -1 1.109375 -0.96875 C 1.117188 -0.9375 1.125 -0.898438 1.125 -0.859375 C 1.125 -0.796875 1.113281 -0.738281 1.09375 -0.6875 C 1.082031 -0.644531 1.054688 -0.601562 1.015625 -0.5625 C 0.972656 -0.519531 0.921875 -0.484375 0.859375 -0.453125 C 0.796875 -0.429688 0.71875 -0.414062 0.625 -0.40625 C 0.550781 -0.394531 0.5 -0.382812 0.46875 -0.375 C 0.445312 -0.363281 0.4375 -0.347656 0.4375 -0.328125 C 0.4375 -0.285156 0.46875 -0.257812 0.53125 -0.25 Z M 0.65625 -0.546875 C 0.707031 -0.546875 0.742188 -0.570312 0.765625 -0.625 C 0.796875 -0.675781 0.8125 -0.75 0.8125 -0.84375 C 0.8125 -0.945312 0.796875 -1.023438 0.765625 -1.078125 C 0.742188 -1.128906 0.707031 -1.15625 0.65625 -1.15625 C 0.59375 -1.15625 0.546875 -1.125 0.515625 -1.0625 C 0.484375 -1.007812 0.46875 -0.941406 0.46875 -0.859375 C 0.46875 -0.753906 0.484375 -0.675781 0.515625 -0.625 C 0.554688 -0.570312 0.601562 -0.546875 0.65625 -0.546875 Z M 0.65625 -0.546875 "/></g></g></g></g><g clip-path="url(#f9887cc5af)"><g fill="#cf577e" fill-opacity="1"><g transform="translate(41.880411, 3.049895)"><g><path d="M 0.125 -0.15625 C 0.125 -0.195312 0.140625 -0.234375 0.171875 -0.265625 C 0.210938 -0.304688 0.253906 -0.328125 0.296875 -0.328125 C 0.347656 -0.328125 0.390625 -0.304688 0.421875 -0.265625 C 0.460938 -0.234375 0.484375 -0.195312 0.484375 -0.15625 C 0.484375 -0.101562 0.460938 -0.0546875 0.421875 -0.015625 C 0.390625 0.015625 0.347656 0.03125 0.296875 0.03125 C 0.253906 0.03125 0.210938 0.015625 0.171875 -0.015625 C 0.140625 -0.0546875 0.125 -0.101562 0.125 -0.15625 Z M 0.125 -0.15625 "/></g></g></g></g></g></g></g><path stroke-linecap="round" transform="matrix(0.74228, 0, 0, 0.74228, 25.703305, 4.594183)" fill="none" stroke-linejoin="miter" d="M 0.499696 0.499355 L 2.052133 0.499355 " stroke="#efa73a" stroke-width="1" stroke-opacity="1" stroke-miterlimit="4"/><g transform="matrix(1, 0, 0, 1, 22, 2)"><g clip-path="url(#3d78e60d94)"><g clip-path="url(#220809f3fc)"><g fill="#1e3151" fill-opacity="1"><g transform="translate(1.141144, 8.576691)"><g><path d="M 4.515625 -0.109375 C 4.523438 -0.109375 4.53125 -0.0859375 4.53125 -0.046875 C 4.53125 -0.015625 4.523438 0 4.515625 0 C 4.359375 0 4.234375 -0.00390625 4.140625 -0.015625 L 2.890625 -0.015625 C 2.785156 -0.00390625 2.648438 0 2.484375 0 C 2.460938 0 2.453125 -0.015625 2.453125 -0.046875 C 2.453125 -0.0859375 2.460938 -0.109375 2.484375 -0.109375 C 2.703125 -0.109375 2.8125 -0.171875 2.8125 -0.296875 C 2.8125 -0.367188 2.785156 -0.429688 2.734375 -0.484375 L 1.703125 -1.8125 L 1.53125 -1.65625 L 1.53125 -0.734375 C 1.53125 -0.492188 1.5625 -0.328125 1.625 -0.234375 C 1.695312 -0.148438 1.828125 -0.109375 2.015625 -0.109375 C 2.035156 -0.109375 2.046875 -0.0859375 2.046875 -0.046875 C 2.046875 -0.015625 2.035156 0 2.015625 0 C 1.859375 0 1.734375 -0.00390625 1.640625 -0.015625 L 0.5625 -0.015625 C 0.46875 -0.00390625 0.34375 0 0.1875 0 C 0.175781 0 0.171875 -0.015625 0.171875 -0.046875 C 0.171875 -0.0859375 0.175781 -0.109375 0.1875 -0.109375 C 0.375 -0.109375 0.503906 -0.148438 0.578125 -0.234375 C 0.648438 -0.328125 0.6875 -0.492188 0.6875 -0.734375 L 0.6875 -5.34375 C 0.6875 -5.5625 0.664062 -5.710938 0.625 -5.796875 C 0.582031 -5.890625 0.515625 -5.9375 0.421875 -5.9375 C 0.335938 -5.9375 0.222656 -5.90625 0.078125 -5.84375 L 0.0625 -5.84375 C 0.0390625 -5.84375 0.0195312 -5.859375 0 -5.890625 C -0.0078125 -5.921875 -0.00390625 -5.941406 0.015625 -5.953125 L 1.328125 -6.578125 L 1.375 -6.578125 C 1.40625 -6.578125 1.4375 -6.5625 1.46875 -6.53125 C 1.507812 -6.507812 1.53125 -6.488281 1.53125 -6.46875 L 1.53125 -1.859375 L 2.375 -2.671875 C 2.53125 -2.816406 2.609375 -2.96875 2.609375 -3.125 C 2.609375 -3.195312 2.578125 -3.257812 2.515625 -3.3125 C 2.453125 -3.363281 2.367188 -3.390625 2.265625 -3.390625 C 2.253906 -3.390625 2.25 -3.40625 2.25 -3.4375 C 2.25 -3.476562 2.253906 -3.5 2.265625 -3.5 C 2.441406 -3.5 2.578125 -3.5 2.671875 -3.5 L 3.390625 -3.484375 L 4.046875 -3.5 C 4.128906 -3.5 4.25 -3.5 4.40625 -3.5 C 4.425781 -3.5 4.4375 -3.476562 4.4375 -3.4375 C 4.4375 -3.40625 4.425781 -3.390625 4.40625 -3.390625 C 4.144531 -3.390625 3.84375 -3.320312 3.5 -3.1875 C 3.164062 -3.0625 2.867188 -2.875 2.609375 -2.625 L 2.28125 -2.328125 L 3.515625 -0.734375 C 3.691406 -0.515625 3.859375 -0.351562 4.015625 -0.25 C 4.179688 -0.15625 4.347656 -0.109375 4.515625 -0.109375 Z M 4.515625 -0.109375 "/></g></g></g></g></g></g><g clip-path="url(#0013ae55bb)"><path stroke-linecap="round" transform="matrix(-0.627807, 0.396028, -0.396028, -0.627807, 27.457216, 2.857335)" fill="none" stroke-linejoin="miter" d="M 0.500518 0.499144 L 2.278868 0.500979 " stroke="#efa73a" stroke-width="1" stroke-opacity="1" stroke-miterlimit="4"/></g></g></g></svg>